<svg width="1240" height="401" viewBox="0 0 1240 401" fill="none" xmlns="http://www.w3.org/2000/svg">
<g filter="url(#filter0_d_201_76)">
<path d="M41.3823 383.82C52.0757 383.82 59.9175 377.333 61.8423 367.637L61.9136 367.281H57.0303L56.9233 367.602C54.7847 374.909 49.3667 379.293 41.3823 379.293C30.3325 379.293 23.1323 370.596 23.1323 357.265V357.229C23.1323 343.862 30.2612 335.272 41.3823 335.272C49.4023 335.272 54.856 339.692 56.8164 346.643L57.0303 347.284H61.9136L61.8423 346.928C59.9175 337.304 52.04 330.745 41.3823 330.745C27.1958 330.745 18.1421 341.082 18.1421 357.229V357.265C18.1421 373.376 27.2671 383.82 41.3823 383.82ZM83.4072 383.677C93.4946 383.677 100.303 376.263 100.303 364.465V364.394C100.303 352.595 93.459 345.252 83.4072 345.252C73.3198 345.252 66.5117 352.631 66.5117 364.394V364.465C66.5117 376.228 73.2842 383.642 83.4072 383.677ZM83.4429 379.471C76.1357 379.436 71.3594 373.875 71.3594 364.465V364.394C71.3594 355.055 76.1714 349.458 83.4072 349.458C90.6431 349.458 95.4907 355.019 95.4907 364.394V364.465C95.4907 373.839 90.6787 379.471 83.4429 379.471ZM106.897 383H111.602V331.565H106.897V383ZM135.092 383.677C145.179 383.677 151.987 376.263 151.987 364.465V364.394C151.987 352.595 145.144 345.252 135.092 345.252C125.004 345.252 118.196 352.631 118.196 364.394V364.465C118.196 376.228 124.969 383.642 135.092 383.677ZM135.127 379.471C127.82 379.436 123.044 373.875 123.044 364.465V364.394C123.044 355.055 127.856 349.458 135.092 349.458C142.328 349.458 147.175 355.019 147.175 364.394V364.465C147.175 373.839 142.363 379.471 135.127 379.471ZM158.261 383H162.966V360.045C162.966 353.771 166.316 349.779 171.592 349.779C173.196 349.779 174.515 350.029 175.121 350.278V345.68C174.55 345.502 173.445 345.252 172.198 345.252C167.707 345.252 164.427 348.068 163.108 352.595H162.966V345.93H158.261V383ZM193.085 383.677C201.105 383.677 207.022 379.079 208.306 372.734L208.377 372.378H203.708L203.636 372.699C202.424 376.727 198.646 379.471 193.192 379.471C185.885 379.471 181.145 374.445 181.002 365.605H208.84V363.752C208.84 352.667 202.603 345.252 192.693 345.252C182.784 345.252 176.226 352.916 176.226 364.536V364.572C176.226 376.299 182.677 383.677 193.085 383.677ZM192.658 349.458C199.002 349.458 203.565 353.771 204.1 361.863H181.073C181.644 353.985 186.349 349.458 192.658 349.458ZM228.979 383.677C234.825 383.677 239.459 380.398 241.598 375.301H241.74V383H246.481V331.565H241.74V353.665H241.633C239.53 348.532 234.754 345.252 228.944 345.252C219.676 345.252 213.296 352.845 213.296 364.429V364.465C213.296 376.049 219.641 383.677 228.979 383.677ZM229.871 379.471C222.742 379.471 218.144 373.625 218.144 364.465V364.429C218.144 355.34 222.742 349.458 229.871 349.458C236.786 349.458 241.776 355.518 241.776 364.429V364.465C241.776 373.412 236.857 379.471 229.871 379.471ZM280.949 383.677C282.09 383.677 283.302 383.535 284.05 383.392V379.542C283.516 379.614 282.767 379.721 281.912 379.721C278.454 379.721 276.708 378.331 276.708 374.231V349.886H284.05V345.93H276.708V335.914H271.86V345.93H266.406V349.886H271.86V374.303C271.86 380.79 274.854 383.677 280.949 383.677ZM304.368 383.677C312.388 383.677 318.305 379.079 319.588 372.734L319.659 372.378H314.99L314.918 372.699C313.707 376.727 309.928 379.471 304.475 379.471C297.167 379.471 292.427 374.445 292.284 365.605H320.123V363.752C320.123 352.667 313.885 345.252 303.976 345.252C294.066 345.252 287.508 352.916 287.508 364.536V364.572C287.508 376.299 293.959 383.677 304.368 383.677ZM303.94 349.458C310.285 349.458 314.847 353.771 315.382 361.863H292.355C292.926 353.985 297.631 349.458 303.94 349.458ZM322.653 383H327.964L338.159 367.78H338.266L348.424 383H353.735L340.903 364.18L353.878 345.93H348.531L338.444 360.793H338.301L328.143 345.93H322.796L335.699 364.358L322.653 383ZM369.775 383.677C370.916 383.677 372.128 383.535 372.876 383.392V379.542C372.342 379.614 371.593 379.721 370.738 379.721C367.28 379.721 365.534 378.331 365.534 374.231V349.886H372.876V345.93H365.534V335.914H360.686V345.93H355.232V349.886H360.686V374.303C360.686 380.79 363.68 383.677 369.775 383.677ZM396.366 383H401.071V349.886H409.02V345.93H401.036V340.761C401.036 336.662 402.996 334.844 406.596 334.844C407.559 334.844 408.485 334.916 409.27 335.058V331.173C408.45 331.03 407.131 330.888 405.812 330.888C399.61 330.888 396.366 333.989 396.366 340.69V345.93H391.198V349.886H396.366V383ZM426.878 383.677C436.965 383.677 443.773 376.263 443.773 364.465V364.394C443.773 352.595 436.93 345.252 426.878 345.252C416.791 345.252 409.982 352.631 409.982 364.394V364.465C409.982 376.228 416.755 383.642 426.878 383.677ZM426.914 379.471C419.606 379.436 414.83 373.875 414.83 364.465V364.394C414.83 355.055 419.642 349.458 426.878 349.458C434.114 349.458 438.961 355.019 438.961 364.394V364.465C438.961 373.839 434.149 379.471 426.914 379.471ZM450.047 383H454.752V360.045C454.752 353.771 458.103 349.779 463.378 349.779C464.982 349.779 466.301 350.029 466.907 350.278V345.68C466.336 345.502 465.231 345.252 463.984 345.252C459.493 345.252 456.213 348.068 454.895 352.595H454.752V345.93H450.047V383ZM504.227 383.82C515.526 383.82 522.726 378.117 522.726 369.312V369.277C522.726 361.685 518.449 357.585 507.898 355.233L502.266 353.95C494.816 352.31 491.466 349.387 491.466 344.611V344.54C491.466 339.015 496.492 335.272 503.906 335.272C511.177 335.272 516.132 338.979 516.88 345.003L516.916 345.466H521.799L521.764 344.967C521.158 336.52 513.958 330.745 504.048 330.745C493.854 330.745 486.547 336.52 486.511 344.682V344.718C486.511 352.025 491.002 356.338 500.983 358.583L506.615 359.831C514.528 361.613 517.736 364.429 517.736 369.491V369.526C517.736 375.479 512.532 379.293 504.476 379.293C496.349 379.293 490.86 375.515 490.147 369.598L490.111 369.099H485.228L485.264 369.598C485.905 378.295 493.319 383.82 504.227 383.82ZM536.485 383H541.475L550.671 352.239H550.778L560.01 383H565L575.516 345.93H570.775L562.47 377.725H562.363L553.131 345.93H548.354L539.123 377.725H539.016L530.71 345.93H525.934L536.485 383ZM583.037 339.229C584.748 339.229 586.138 337.838 586.138 336.092C586.138 334.345 584.748 332.991 583.037 332.991C581.29 332.991 579.9 334.345 579.9 336.092C579.9 337.838 581.29 339.229 583.037 339.229ZM580.648 383H585.389V345.93H580.648V383ZM595.833 383H600.538V349.886H608.487V345.93H600.502V340.761C600.502 336.662 602.463 334.844 606.063 334.844C607.025 334.844 607.952 334.916 608.736 335.058V331.173C607.917 331.03 606.598 330.888 605.279 330.888C599.077 330.888 595.833 333.989 595.833 340.69V345.93H590.665V349.886H595.833V383ZM625.917 383.677C627.058 383.677 628.27 383.535 629.018 383.392V379.542C628.483 379.614 627.735 379.721 626.879 379.721C623.422 379.721 621.675 378.331 621.675 374.231V349.886H629.018V345.93H621.675V335.914H616.828V345.93H611.374V349.886H616.828V374.303C616.828 380.79 619.822 383.677 625.917 383.677ZM665.589 383.677C673.681 383.677 679.633 378.58 680.738 371.665L680.774 371.38H676.104L676.033 371.665C674.928 376.299 671.114 379.471 665.589 379.471C658.389 379.471 653.577 373.839 653.577 364.5V364.465C653.577 355.269 658.318 349.458 665.554 349.458C671.328 349.458 675 352.916 676.033 357.265L676.104 357.55H680.738L680.703 357.229C679.776 350.849 674.18 345.252 665.554 345.252C655.395 345.252 648.729 352.738 648.729 364.394V364.429C648.729 376.228 655.288 383.677 665.589 383.677ZM701.697 383.677C711.785 383.677 718.593 376.263 718.593 364.465V364.394C718.593 352.595 711.749 345.252 701.697 345.252C691.61 345.252 684.802 352.631 684.802 364.394V364.465C684.802 376.228 691.574 383.642 701.697 383.677ZM701.733 379.471C694.426 379.436 689.649 373.875 689.649 364.465V364.394C689.649 355.055 694.461 349.458 701.697 349.458C708.933 349.458 713.781 355.019 713.781 364.394V364.465C713.781 373.839 708.969 379.471 701.733 379.471ZM724.866 383H729.571V360.223C729.571 353.878 733.492 349.494 738.946 349.494C744.007 349.494 747.429 352.987 747.429 358.298V383H752.17V359.653C752.17 353.7 755.948 349.494 761.438 349.494C766.82 349.494 770.028 352.952 770.028 358.726V383H774.733V357.657C774.733 350.136 769.992 345.288 762.721 345.288C757.089 345.288 752.847 348.532 751.065 353.13H750.958C749.568 348.425 745.647 345.288 740.229 345.288C735.025 345.288 731.247 348.211 729.714 352.31H729.571V345.93H724.866V383ZM782.682 383H787.387V360.223C787.387 353.878 791.308 349.494 796.761 349.494C801.823 349.494 805.245 352.987 805.245 358.298V383H809.985V359.653C809.985 353.7 813.764 349.494 819.253 349.494C824.635 349.494 827.843 352.952 827.843 358.726V383H832.548V357.657C832.548 350.136 827.808 345.288 820.536 345.288C814.904 345.288 810.663 348.532 808.88 353.13H808.773C807.383 348.425 803.462 345.288 798.044 345.288C792.84 345.288 789.062 348.211 787.529 352.31H787.387V345.93H782.682V383ZM851.476 383.677C856.965 383.677 861.848 380.647 863.88 376.228H864.022V383H868.728V357.621C868.728 350.029 863.417 345.252 854.933 345.252C846.557 345.252 841.281 349.815 840.568 356.195L840.533 356.623H845.095L845.167 356.267C845.951 352.061 849.479 349.458 854.862 349.458C860.636 349.458 864.022 352.702 864.022 358.049V361.257L852.474 361.97C843.955 362.54 839.178 366.354 839.178 372.663V372.734C839.178 379.293 844.168 383.677 851.476 383.677ZM843.99 372.734V372.663C843.99 368.6 847.234 366.069 853.044 365.712L864.022 364.964V369.063C864.022 374.98 858.925 379.542 852.438 379.542C847.412 379.542 843.99 376.798 843.99 372.734ZM876.641 383H881.346V361.043C881.346 354.128 885.659 349.494 892.11 349.494C898.419 349.494 901.841 353.166 901.841 360.045V383H906.546V359.261C906.546 350.563 901.699 345.288 893.5 345.288C887.512 345.288 883.342 348.247 881.488 352.239H881.346V345.93H876.641V383ZM928.325 383.677C934.171 383.677 938.805 380.398 940.943 375.301H941.086V383H945.827V331.565H941.086V353.665H940.979C938.876 348.532 934.1 345.252 928.29 345.252C919.022 345.252 912.642 352.845 912.642 364.429V364.465C912.642 376.049 918.986 383.677 928.325 383.677ZM929.216 379.471C922.087 379.471 917.489 373.625 917.489 364.465V364.429C917.489 355.34 922.087 349.458 929.216 349.458C936.131 349.458 941.122 355.518 941.122 364.429V364.465C941.122 373.412 936.203 379.471 929.216 379.471ZM969.566 383H974.271V331.565H969.566V383ZM985.463 339.229C987.174 339.229 988.564 337.838 988.564 336.092C988.564 334.345 987.174 332.991 985.463 332.991C983.717 332.991 982.327 334.345 982.327 336.092C982.327 337.838 983.717 339.229 985.463 339.229ZM983.075 383H987.816V345.93H983.075V383ZM996.335 383H1001.04V361.043C1001.04 354.128 1005.35 349.494 1011.8 349.494C1018.11 349.494 1021.54 353.166 1021.54 360.045V383H1026.24V359.261C1026.24 350.563 1021.39 345.288 1013.19 345.288C1007.21 345.288 1003.04 348.247 1001.18 352.239H1001.04V345.93H996.335V383ZM1049.2 383.677C1057.22 383.677 1063.13 379.079 1064.42 372.734L1064.49 372.378H1059.82L1059.75 372.699C1058.53 376.727 1054.76 379.471 1049.3 379.471C1042 379.471 1037.25 374.445 1037.11 365.605H1064.95V363.752C1064.95 352.667 1058.71 345.252 1048.8 345.252C1038.89 345.252 1032.34 352.916 1032.34 364.536V364.572C1032.34 376.299 1038.79 383.677 1049.2 383.677ZM1048.77 349.458C1055.11 349.458 1059.68 353.771 1060.21 361.863H1037.18C1037.75 353.985 1042.46 349.458 1048.77 349.458ZM1097.28 383.677C1098.42 383.677 1099.63 383.535 1100.38 383.392V379.542C1099.85 379.614 1099.1 379.721 1098.24 379.721C1094.79 379.721 1093.04 378.331 1093.04 374.231V349.886H1100.38V345.93H1093.04V335.914H1088.19V345.93H1082.74V349.886H1088.19V374.303C1088.19 380.79 1091.19 383.677 1097.28 383.677ZM1120.73 383.677C1130.82 383.677 1137.63 376.263 1137.63 364.465V364.394C1137.63 352.595 1130.79 345.252 1120.73 345.252C1110.65 345.252 1103.84 352.631 1103.84 364.394V364.465C1103.84 376.228 1110.61 383.642 1120.73 383.677ZM1120.77 379.471C1113.46 379.436 1108.69 373.875 1108.69 364.465V364.394C1108.69 355.055 1113.5 349.458 1120.73 349.458C1127.97 349.458 1132.82 355.019 1132.82 364.394V364.465C1132.82 373.839 1128.01 379.471 1120.77 379.471ZM1158.95 383.677C1169.03 383.677 1175.84 376.263 1175.84 364.465V364.394C1175.84 352.595 1169 345.252 1158.95 345.252C1148.86 345.252 1142.05 352.631 1142.05 364.394V364.465C1142.05 376.228 1148.82 383.642 1158.95 383.677ZM1158.98 379.471C1151.67 379.436 1146.9 373.875 1146.9 364.465V364.394C1146.9 355.055 1151.71 349.458 1158.95 349.458C1166.18 349.458 1171.03 355.019 1171.03 364.394V364.465C1171.03 373.839 1166.22 379.471 1158.98 379.471ZM1182.44 383H1187.14V331.565H1182.44V383ZM1208.31 383.677C1216.44 383.677 1222.32 379.222 1222.32 372.913V372.877C1222.32 367.673 1219.51 364.786 1212.13 363.003L1206.53 361.685C1201.65 360.508 1199.65 358.619 1199.65 355.661V355.625C1199.65 351.847 1203 349.245 1208.03 349.245C1213.2 349.245 1216.48 352.061 1217.08 356.374L1217.12 356.623H1221.64L1221.61 356.231C1221 349.851 1215.94 345.252 1208.03 345.252C1200.29 345.252 1194.84 349.637 1194.84 355.803V355.839C1194.84 360.972 1198.19 364.037 1205.18 365.712L1210.77 367.067C1215.73 368.243 1217.51 369.99 1217.51 373.198V373.233C1217.51 377.119 1213.94 379.685 1208.35 379.685C1202.75 379.685 1199.29 376.905 1198.55 372.627L1198.48 372.307H1193.77L1193.81 372.627C1194.52 379.186 1199.9 383.677 1208.31 383.677Z" fill="url(#paint0_linear_201_76)"/>
</g>
<path d="M19.7754 286H39.6973V206.312H91.6992C131.982 206.312 159.521 179.652 159.521 140.395V140.102C159.521 100.844 131.982 74.623 91.6992 74.623H19.7754V286ZM87.0117 92.4941C119.531 92.4941 139.16 110.512 139.16 140.248V140.541C139.16 170.424 119.531 188.441 87.0117 188.441H39.6973V92.4941H87.0117ZM278.232 286H298.154V199.428H350.156C351.475 199.428 353.232 199.428 354.404 199.428L403.037 286H426.475L375.205 196.205C403.33 188.881 420.469 166.469 420.469 136.732V136.439C420.469 98.793 394.102 74.623 352.793 74.623H278.232V286ZM298.154 181.703V92.4941H350.449C381.064 92.4941 399.814 109.047 399.814 136.879V137.172C399.814 165.297 381.797 181.703 351.182 181.703H298.154ZM543.135 286H563.057V74.623H543.135V286ZM760.43 289.369C806.865 289.369 836.455 265.932 836.455 229.75V229.604C836.455 198.402 818.877 181.557 775.518 171.889L752.373 166.615C721.758 159.877 707.988 147.865 707.988 128.236V127.943C707.988 105.238 728.643 89.8574 759.111 89.8574C788.994 89.8574 809.355 105.092 812.432 129.848L812.578 131.752H832.646L832.5 129.701C830.01 94.9844 800.42 71.2539 759.697 71.2539C717.803 71.2539 687.773 94.9844 687.627 128.529V128.676C687.627 158.705 706.084 176.43 747.1 185.658L770.244 190.785C802.764 198.109 815.947 209.682 815.947 230.482V230.629C815.947 255.092 794.561 270.766 761.455 270.766C728.057 270.766 705.498 255.238 702.568 230.922L702.422 228.871H682.354L682.5 230.922C685.137 266.664 715.605 289.369 760.43 289.369ZM955.752 286H974.502V112.27H975.527L1048.77 286H1066.2L1139.59 112.27H1140.62V286H1159.37V74.623H1136.37L1058 260.805H1057.12L978.75 74.623H955.752V286Z" fill="url(#paint1_linear_201_76)"/>
<path d="M19.7754 286H39.6973V206.312H91.6992C131.982 206.312 159.521 179.652 159.521 140.395V140.102C159.521 100.844 131.982 74.623 91.6992 74.623H19.7754V286ZM87.0117 92.4941C119.531 92.4941 139.16 110.512 139.16 140.248V140.541C139.16 170.424 119.531 188.441 87.0117 188.441H39.6973V92.4941H87.0117ZM278.232 286H298.154V199.428H350.156C351.475 199.428 353.232 199.428 354.404 199.428L403.037 286H426.475L375.205 196.205C403.33 188.881 420.469 166.469 420.469 136.732V136.439C420.469 98.793 394.102 74.623 352.793 74.623H278.232V286ZM298.154 181.703V92.4941H350.449C381.064 92.4941 399.814 109.047 399.814 136.879V137.172C399.814 165.297 381.797 181.703 351.182 181.703H298.154ZM543.135 286H563.057V74.623H543.135V286ZM760.43 289.369C806.865 289.369 836.455 265.932 836.455 229.75V229.604C836.455 198.402 818.877 181.557 775.518 171.889L752.373 166.615C721.758 159.877 707.988 147.865 707.988 128.236V127.943C707.988 105.238 728.643 89.8574 759.111 89.8574C788.994 89.8574 809.355 105.092 812.432 129.848L812.578 131.752H832.646L832.5 129.701C830.01 94.9844 800.42 71.2539 759.697 71.2539C717.803 71.2539 687.773 94.9844 687.627 128.529V128.676C687.627 158.705 706.084 176.43 747.1 185.658L770.244 190.785C802.764 198.109 815.947 209.682 815.947 230.482V230.629C815.947 255.092 794.561 270.766 761.455 270.766C728.057 270.766 705.498 255.238 702.568 230.922L702.422 228.871H682.354L682.5 230.922C685.137 266.664 715.605 289.369 760.43 289.369ZM955.752 286H974.502V112.27H975.527L1048.77 286H1066.2L1139.59 112.27H1140.62V286H1159.37V74.623H1136.37L1058 260.805H1057.12L978.75 74.623H955.752V286Z" fill="black" fill-opacity="0.5" style="mix-blend-mode:multiply"/>
<g opacity="0.91">
<path d="M25.7754 286H45.6973V206.312H97.6992C137.982 206.312 165.521 179.652 165.521 140.395V140.102C165.521 100.844 137.982 74.623 97.6992 74.623H25.7754V286ZM93.0117 92.4941C125.531 92.4941 145.16 110.512 145.16 140.248V140.541C145.16 170.424 125.531 188.441 93.0117 188.441H45.6973V92.4941H93.0117ZM284.232 286H304.154V199.428H356.156C357.475 199.428 359.232 199.428 360.404 199.428L409.037 286H432.475L381.205 196.205C409.33 188.881 426.469 166.469 426.469 136.732V136.439C426.469 98.793 400.102 74.623 358.793 74.623H284.232V286ZM304.154 181.703V92.4941H356.449C387.064 92.4941 405.814 109.047 405.814 136.879V137.172C405.814 165.297 387.797 181.703 357.182 181.703H304.154ZM549.135 286H569.057V74.623H549.135V286ZM766.43 289.369C812.865 289.369 842.455 265.932 842.455 229.75V229.604C842.455 198.402 824.877 181.557 781.518 171.889L758.373 166.615C727.758 159.877 713.988 147.865 713.988 128.236V127.943C713.988 105.238 734.643 89.8574 765.111 89.8574C794.994 89.8574 815.355 105.092 818.432 129.848L818.578 131.752H838.646L838.5 129.701C836.01 94.9844 806.42 71.2539 765.697 71.2539C723.803 71.2539 693.773 94.9844 693.627 128.529V128.676C693.627 158.705 712.084 176.43 753.1 185.658L776.244 190.785C808.764 198.109 821.947 209.682 821.947 230.482V230.629C821.947 255.092 800.561 270.766 767.455 270.766C734.057 270.766 711.498 255.238 708.568 230.922L708.422 228.871H688.354L688.5 230.922C691.137 266.664 721.605 289.369 766.43 289.369ZM961.752 286H980.502V112.27H981.527L1054.77 286H1072.2L1145.59 112.27H1146.62V286H1165.37V74.623H1142.37L1064 260.805H1063.12L984.75 74.623H961.752V286Z" fill="url(#paint2_linear_201_76)"/>
<path d="M25.7754 286H45.6973V206.312H97.6992C137.982 206.312 165.521 179.652 165.521 140.395V140.102C165.521 100.844 137.982 74.623 97.6992 74.623H25.7754V286ZM93.0117 92.4941C125.531 92.4941 145.16 110.512 145.16 140.248V140.541C145.16 170.424 125.531 188.441 93.0117 188.441H45.6973V92.4941H93.0117ZM284.232 286H304.154V199.428H356.156C357.475 199.428 359.232 199.428 360.404 199.428L409.037 286H432.475L381.205 196.205C409.33 188.881 426.469 166.469 426.469 136.732V136.439C426.469 98.793 400.102 74.623 358.793 74.623H284.232V286ZM304.154 181.703V92.4941H356.449C387.064 92.4941 405.814 109.047 405.814 136.879V137.172C405.814 165.297 387.797 181.703 357.182 181.703H304.154ZM549.135 286H569.057V74.623H549.135V286ZM766.43 289.369C812.865 289.369 842.455 265.932 842.455 229.75V229.604C842.455 198.402 824.877 181.557 781.518 171.889L758.373 166.615C727.758 159.877 713.988 147.865 713.988 128.236V127.943C713.988 105.238 734.643 89.8574 765.111 89.8574C794.994 89.8574 815.355 105.092 818.432 129.848L818.578 131.752H838.646L838.5 129.701C836.01 94.9844 806.42 71.2539 765.697 71.2539C723.803 71.2539 693.773 94.9844 693.627 128.529V128.676C693.627 158.705 712.084 176.43 753.1 185.658L776.244 190.785C808.764 198.109 821.947 209.682 821.947 230.482V230.629C821.947 255.092 800.561 270.766 767.455 270.766C734.057 270.766 711.498 255.238 708.568 230.922L708.422 228.871H688.354L688.5 230.922C691.137 266.664 721.605 289.369 766.43 289.369ZM961.752 286H980.502V112.27H981.527L1054.77 286H1072.2L1145.59 112.27H1146.62V286H1165.37V74.623H1142.37L1064 260.805H1063.12L984.75 74.623H961.752V286Z" fill="url(#paint3_linear_201_76)" fill-opacity="0.4" style="mix-blend-mode:luminosity"/>
<path d="M25.7754 286H45.6973V206.312H97.6992C137.982 206.312 165.521 179.652 165.521 140.395V140.102C165.521 100.844 137.982 74.623 97.6992 74.623H25.7754V286ZM93.0117 92.4941C125.531 92.4941 145.16 110.512 145.16 140.248V140.541C145.16 170.424 125.531 188.441 93.0117 188.441H45.6973V92.4941H93.0117ZM284.232 286H304.154V199.428H356.156C357.475 199.428 359.232 199.428 360.404 199.428L409.037 286H432.475L381.205 196.205C409.33 188.881 426.469 166.469 426.469 136.732V136.439C426.469 98.793 400.102 74.623 358.793 74.623H284.232V286ZM304.154 181.703V92.4941H356.449C387.064 92.4941 405.814 109.047 405.814 136.879V137.172C405.814 165.297 387.797 181.703 357.182 181.703H304.154ZM549.135 286H569.057V74.623H549.135V286ZM766.43 289.369C812.865 289.369 842.455 265.932 842.455 229.75V229.604C842.455 198.402 824.877 181.557 781.518 171.889L758.373 166.615C727.758 159.877 713.988 147.865 713.988 128.236V127.943C713.988 105.238 734.643 89.8574 765.111 89.8574C794.994 89.8574 815.355 105.092 818.432 129.848L818.578 131.752H838.646L838.5 129.701C836.01 94.9844 806.42 71.2539 765.697 71.2539C723.803 71.2539 693.773 94.9844 693.627 128.529V128.676C693.627 158.705 712.084 176.43 753.1 185.658L776.244 190.785C808.764 198.109 821.947 209.682 821.947 230.482V230.629C821.947 255.092 800.561 270.766 767.455 270.766C734.057 270.766 711.498 255.238 708.568 230.922L708.422 228.871H688.354L688.5 230.922C691.137 266.664 721.605 289.369 766.43 289.369ZM961.752 286H980.502V112.27H981.527L1054.77 286H1072.2L1145.59 112.27H1146.62V286H1165.37V74.623H1142.37L1064 260.805H1063.12L984.75 74.623H961.752V286Z" fill="black" fill-opacity="0.45" style="mix-blend-mode:multiply"/>
</g>
<g opacity="0.82">
<path d="M31.7754 286H51.6973V206.312H103.699C143.982 206.312 171.521 179.652 171.521 140.395V140.102C171.521 100.844 143.982 74.623 103.699 74.623H31.7754V286ZM99.0117 92.4941C131.531 92.4941 151.16 110.512 151.16 140.248V140.541C151.16 170.424 131.531 188.441 99.0117 188.441H51.6973V92.4941H99.0117ZM290.232 286H310.154V199.428H362.156C363.475 199.428 365.232 199.428 366.404 199.428L415.037 286H438.475L387.205 196.205C415.33 188.881 432.469 166.469 432.469 136.732V136.439C432.469 98.793 406.102 74.623 364.793 74.623H290.232V286ZM310.154 181.703V92.4941H362.449C393.064 92.4941 411.814 109.047 411.814 136.879V137.172C411.814 165.297 393.797 181.703 363.182 181.703H310.154ZM555.135 286H575.057V74.623H555.135V286ZM772.43 289.369C818.865 289.369 848.455 265.932 848.455 229.75V229.604C848.455 198.402 830.877 181.557 787.518 171.889L764.373 166.615C733.758 159.877 719.988 147.865 719.988 128.236V127.943C719.988 105.238 740.643 89.8574 771.111 89.8574C800.994 89.8574 821.355 105.092 824.432 129.848L824.578 131.752H844.646L844.5 129.701C842.01 94.9844 812.42 71.2539 771.697 71.2539C729.803 71.2539 699.773 94.9844 699.627 128.529V128.676C699.627 158.705 718.084 176.43 759.1 185.658L782.244 190.785C814.764 198.109 827.947 209.682 827.947 230.482V230.629C827.947 255.092 806.561 270.766 773.455 270.766C740.057 270.766 717.498 255.238 714.568 230.922L714.422 228.871H694.354L694.5 230.922C697.137 266.664 727.605 289.369 772.43 289.369ZM967.752 286H986.502V112.27H987.527L1060.77 286H1078.2L1151.59 112.27H1152.62V286H1171.37V74.623H1148.37L1070 260.805H1069.12L990.75 74.623H967.752V286Z" fill="url(#paint4_linear_201_76)"/>
<path d="M31.7754 286H51.6973V206.312H103.699C143.982 206.312 171.521 179.652 171.521 140.395V140.102C171.521 100.844 143.982 74.623 103.699 74.623H31.7754V286ZM99.0117 92.4941C131.531 92.4941 151.16 110.512 151.16 140.248V140.541C151.16 170.424 131.531 188.441 99.0117 188.441H51.6973V92.4941H99.0117ZM290.232 286H310.154V199.428H362.156C363.475 199.428 365.232 199.428 366.404 199.428L415.037 286H438.475L387.205 196.205C415.33 188.881 432.469 166.469 432.469 136.732V136.439C432.469 98.793 406.102 74.623 364.793 74.623H290.232V286ZM310.154 181.703V92.4941H362.449C393.064 92.4941 411.814 109.047 411.814 136.879V137.172C411.814 165.297 393.797 181.703 363.182 181.703H310.154ZM555.135 286H575.057V74.623H555.135V286ZM772.43 289.369C818.865 289.369 848.455 265.932 848.455 229.75V229.604C848.455 198.402 830.877 181.557 787.518 171.889L764.373 166.615C733.758 159.877 719.988 147.865 719.988 128.236V127.943C719.988 105.238 740.643 89.8574 771.111 89.8574C800.994 89.8574 821.355 105.092 824.432 129.848L824.578 131.752H844.646L844.5 129.701C842.01 94.9844 812.42 71.2539 771.697 71.2539C729.803 71.2539 699.773 94.9844 699.627 128.529V128.676C699.627 158.705 718.084 176.43 759.1 185.658L782.244 190.785C814.764 198.109 827.947 209.682 827.947 230.482V230.629C827.947 255.092 806.561 270.766 773.455 270.766C740.057 270.766 717.498 255.238 714.568 230.922L714.422 228.871H694.354L694.5 230.922C697.137 266.664 727.605 289.369 772.43 289.369ZM967.752 286H986.502V112.27H987.527L1060.77 286H1078.2L1151.59 112.27H1152.62V286H1171.37V74.623H1148.37L1070 260.805H1069.12L990.75 74.623H967.752V286Z" fill="black" fill-opacity="0.4" style="mix-blend-mode:multiply"/>
</g>
<g opacity="0.73">
<path d="M37.7754 286H57.6973V206.312H109.699C149.982 206.312 177.521 179.652 177.521 140.395V140.102C177.521 100.844 149.982 74.623 109.699 74.623H37.7754V286ZM105.012 92.4941C137.531 92.4941 157.16 110.512 157.16 140.248V140.541C157.16 170.424 137.531 188.441 105.012 188.441H57.6973V92.4941H105.012ZM296.232 286H316.154V199.428H368.156C369.475 199.428 371.232 199.428 372.404 199.428L421.037 286H444.475L393.205 196.205C421.33 188.881 438.469 166.469 438.469 136.732V136.439C438.469 98.793 412.102 74.623 370.793 74.623H296.232V286ZM316.154 181.703V92.4941H368.449C399.064 92.4941 417.814 109.047 417.814 136.879V137.172C417.814 165.297 399.797 181.703 369.182 181.703H316.154ZM561.135 286H581.057V74.623H561.135V286ZM778.43 289.369C824.865 289.369 854.455 265.932 854.455 229.75V229.604C854.455 198.402 836.877 181.557 793.518 171.889L770.373 166.615C739.758 159.877 725.988 147.865 725.988 128.236V127.943C725.988 105.238 746.643 89.8574 777.111 89.8574C806.994 89.8574 827.355 105.092 830.432 129.848L830.578 131.752H850.646L850.5 129.701C848.01 94.9844 818.42 71.2539 777.697 71.2539C735.803 71.2539 705.773 94.9844 705.627 128.529V128.676C705.627 158.705 724.084 176.43 765.1 185.658L788.244 190.785C820.764 198.109 833.947 209.682 833.947 230.482V230.629C833.947 255.092 812.561 270.766 779.455 270.766C746.057 270.766 723.498 255.238 720.568 230.922L720.422 228.871H700.354L700.5 230.922C703.137 266.664 733.605 289.369 778.43 289.369ZM973.752 286H992.502V112.27H993.527L1066.77 286H1084.2L1157.59 112.27H1158.62V286H1177.37V74.623H1154.37L1076 260.805H1075.12L996.75 74.623H973.752V286Z" fill="url(#paint5_linear_201_76)"/>
<path d="M37.7754 286H57.6973V206.312H109.699C149.982 206.312 177.521 179.652 177.521 140.395V140.102C177.521 100.844 149.982 74.623 109.699 74.623H37.7754V286ZM105.012 92.4941C137.531 92.4941 157.16 110.512 157.16 140.248V140.541C157.16 170.424 137.531 188.441 105.012 188.441H57.6973V92.4941H105.012ZM296.232 286H316.154V199.428H368.156C369.475 199.428 371.232 199.428 372.404 199.428L421.037 286H444.475L393.205 196.205C421.33 188.881 438.469 166.469 438.469 136.732V136.439C438.469 98.793 412.102 74.623 370.793 74.623H296.232V286ZM316.154 181.703V92.4941H368.449C399.064 92.4941 417.814 109.047 417.814 136.879V137.172C417.814 165.297 399.797 181.703 369.182 181.703H316.154ZM561.135 286H581.057V74.623H561.135V286ZM778.43 289.369C824.865 289.369 854.455 265.932 854.455 229.75V229.604C854.455 198.402 836.877 181.557 793.518 171.889L770.373 166.615C739.758 159.877 725.988 147.865 725.988 128.236V127.943C725.988 105.238 746.643 89.8574 777.111 89.8574C806.994 89.8574 827.355 105.092 830.432 129.848L830.578 131.752H850.646L850.5 129.701C848.01 94.9844 818.42 71.2539 777.697 71.2539C735.803 71.2539 705.773 94.9844 705.627 128.529V128.676C705.627 158.705 724.084 176.43 765.1 185.658L788.244 190.785C820.764 198.109 833.947 209.682 833.947 230.482V230.629C833.947 255.092 812.561 270.766 779.455 270.766C746.057 270.766 723.498 255.238 720.568 230.922L720.422 228.871H700.354L700.5 230.922C703.137 266.664 733.605 289.369 778.43 289.369ZM973.752 286H992.502V112.27H993.527L1066.77 286H1084.2L1157.59 112.27H1158.62V286H1177.37V74.623H1154.37L1076 260.805H1075.12L996.75 74.623H973.752V286Z" fill="url(#paint6_linear_201_76)" fill-opacity="0.4" style="mix-blend-mode:luminosity"/>
<path d="M37.7754 286H57.6973V206.312H109.699C149.982 206.312 177.521 179.652 177.521 140.395V140.102C177.521 100.844 149.982 74.623 109.699 74.623H37.7754V286ZM105.012 92.4941C137.531 92.4941 157.16 110.512 157.16 140.248V140.541C157.16 170.424 137.531 188.441 105.012 188.441H57.6973V92.4941H105.012ZM296.232 286H316.154V199.428H368.156C369.475 199.428 371.232 199.428 372.404 199.428L421.037 286H444.475L393.205 196.205C421.33 188.881 438.469 166.469 438.469 136.732V136.439C438.469 98.793 412.102 74.623 370.793 74.623H296.232V286ZM316.154 181.703V92.4941H368.449C399.064 92.4941 417.814 109.047 417.814 136.879V137.172C417.814 165.297 399.797 181.703 369.182 181.703H316.154ZM561.135 286H581.057V74.623H561.135V286ZM778.43 289.369C824.865 289.369 854.455 265.932 854.455 229.75V229.604C854.455 198.402 836.877 181.557 793.518 171.889L770.373 166.615C739.758 159.877 725.988 147.865 725.988 128.236V127.943C725.988 105.238 746.643 89.8574 777.111 89.8574C806.994 89.8574 827.355 105.092 830.432 129.848L830.578 131.752H850.646L850.5 129.701C848.01 94.9844 818.42 71.2539 777.697 71.2539C735.803 71.2539 705.773 94.9844 705.627 128.529V128.676C705.627 158.705 724.084 176.43 765.1 185.658L788.244 190.785C820.764 198.109 833.947 209.682 833.947 230.482V230.629C833.947 255.092 812.561 270.766 779.455 270.766C746.057 270.766 723.498 255.238 720.568 230.922L720.422 228.871H700.354L700.5 230.922C703.137 266.664 733.605 289.369 778.43 289.369ZM973.752 286H992.502V112.27H993.527L1066.77 286H1084.2L1157.59 112.27H1158.62V286H1177.37V74.623H1154.37L1076 260.805H1075.12L996.75 74.623H973.752V286Z" fill="black" fill-opacity="0.35" style="mix-blend-mode:multiply"/>
</g>
<g opacity="0.64">
<path d="M43.7754 286H63.6973V206.312H115.699C155.982 206.312 183.521 179.652 183.521 140.395V140.102C183.521 100.844 155.982 74.623 115.699 74.623H43.7754V286ZM111.012 92.4941C143.531 92.4941 163.16 110.512 163.16 140.248V140.541C163.16 170.424 143.531 188.441 111.012 188.441H63.6973V92.4941H111.012ZM302.232 286H322.154V199.428H374.156C375.475 199.428 377.232 199.428 378.404 199.428L427.037 286H450.475L399.205 196.205C427.33 188.881 444.469 166.469 444.469 136.732V136.439C444.469 98.793 418.102 74.623 376.793 74.623H302.232V286ZM322.154 181.703V92.4941H374.449C405.064 92.4941 423.814 109.047 423.814 136.879V137.172C423.814 165.297 405.797 181.703 375.182 181.703H322.154ZM567.135 286H587.057V74.623H567.135V286ZM784.43 289.369C830.865 289.369 860.455 265.932 860.455 229.75V229.604C860.455 198.402 842.877 181.557 799.518 171.889L776.373 166.615C745.758 159.877 731.988 147.865 731.988 128.236V127.943C731.988 105.238 752.643 89.8574 783.111 89.8574C812.994 89.8574 833.355 105.092 836.432 129.848L836.578 131.752H856.646L856.5 129.701C854.01 94.9844 824.42 71.2539 783.697 71.2539C741.803 71.2539 711.773 94.9844 711.627 128.529V128.676C711.627 158.705 730.084 176.43 771.1 185.658L794.244 190.785C826.764 198.109 839.947 209.682 839.947 230.482V230.629C839.947 255.092 818.561 270.766 785.455 270.766C752.057 270.766 729.498 255.238 726.568 230.922L726.422 228.871H706.354L706.5 230.922C709.137 266.664 739.605 289.369 784.43 289.369ZM979.752 286H998.502V112.27H999.527L1072.77 286H1090.2L1163.59 112.27H1164.62V286H1183.37V74.623H1160.37L1082 260.805H1081.12L1002.75 74.623H979.752V286Z" fill="url(#paint7_linear_201_76)"/>
<path d="M43.7754 286H63.6973V206.312H115.699C155.982 206.312 183.521 179.652 183.521 140.395V140.102C183.521 100.844 155.982 74.623 115.699 74.623H43.7754V286ZM111.012 92.4941C143.531 92.4941 163.16 110.512 163.16 140.248V140.541C163.16 170.424 143.531 188.441 111.012 188.441H63.6973V92.4941H111.012ZM302.232 286H322.154V199.428H374.156C375.475 199.428 377.232 199.428 378.404 199.428L427.037 286H450.475L399.205 196.205C427.33 188.881 444.469 166.469 444.469 136.732V136.439C444.469 98.793 418.102 74.623 376.793 74.623H302.232V286ZM322.154 181.703V92.4941H374.449C405.064 92.4941 423.814 109.047 423.814 136.879V137.172C423.814 165.297 405.797 181.703 375.182 181.703H322.154ZM567.135 286H587.057V74.623H567.135V286ZM784.43 289.369C830.865 289.369 860.455 265.932 860.455 229.75V229.604C860.455 198.402 842.877 181.557 799.518 171.889L776.373 166.615C745.758 159.877 731.988 147.865 731.988 128.236V127.943C731.988 105.238 752.643 89.8574 783.111 89.8574C812.994 89.8574 833.355 105.092 836.432 129.848L836.578 131.752H856.646L856.5 129.701C854.01 94.9844 824.42 71.2539 783.697 71.2539C741.803 71.2539 711.773 94.9844 711.627 128.529V128.676C711.627 158.705 730.084 176.43 771.1 185.658L794.244 190.785C826.764 198.109 839.947 209.682 839.947 230.482V230.629C839.947 255.092 818.561 270.766 785.455 270.766C752.057 270.766 729.498 255.238 726.568 230.922L726.422 228.871H706.354L706.5 230.922C709.137 266.664 739.605 289.369 784.43 289.369ZM979.752 286H998.502V112.27H999.527L1072.77 286H1090.2L1163.59 112.27H1164.62V286H1183.37V74.623H1160.37L1082 260.805H1081.12L1002.75 74.623H979.752V286Z" fill="black" fill-opacity="0.3" style="mix-blend-mode:multiply"/>
</g>
<g opacity="0.55">
<path d="M49.7754 286H69.6973V206.312H121.699C161.982 206.312 189.521 179.652 189.521 140.395V140.102C189.521 100.844 161.982 74.623 121.699 74.623H49.7754V286ZM117.012 92.4941C149.531 92.4941 169.16 110.512 169.16 140.248V140.541C169.16 170.424 149.531 188.441 117.012 188.441H69.6973V92.4941H117.012ZM308.232 286H328.154V199.428H380.156C381.475 199.428 383.232 199.428 384.404 199.428L433.037 286H456.475L405.205 196.205C433.33 188.881 450.469 166.469 450.469 136.732V136.439C450.469 98.793 424.102 74.623 382.793 74.623H308.232V286ZM328.154 181.703V92.4941H380.449C411.064 92.4941 429.814 109.047 429.814 136.879V137.172C429.814 165.297 411.797 181.703 381.182 181.703H328.154ZM573.135 286H593.057V74.623H573.135V286ZM790.43 289.369C836.865 289.369 866.455 265.932 866.455 229.75V229.604C866.455 198.402 848.877 181.557 805.518 171.889L782.373 166.615C751.758 159.877 737.988 147.865 737.988 128.236V127.943C737.988 105.238 758.643 89.8574 789.111 89.8574C818.994 89.8574 839.355 105.092 842.432 129.848L842.578 131.752H862.646L862.5 129.701C860.01 94.9844 830.42 71.2539 789.697 71.2539C747.803 71.2539 717.773 94.9844 717.627 128.529V128.676C717.627 158.705 736.084 176.43 777.1 185.658L800.244 190.785C832.764 198.109 845.947 209.682 845.947 230.482V230.629C845.947 255.092 824.561 270.766 791.455 270.766C758.057 270.766 735.498 255.238 732.568 230.922L732.422 228.871H712.354L712.5 230.922C715.137 266.664 745.605 289.369 790.43 289.369ZM985.752 286H1004.5V112.27H1005.53L1078.77 286H1096.2L1169.59 112.27H1170.62V286H1189.37V74.623H1166.37L1088 260.805H1087.12L1008.75 74.623H985.752V286Z" fill="url(#paint8_linear_201_76)"/>
<path d="M49.7754 286H69.6973V206.312H121.699C161.982 206.312 189.521 179.652 189.521 140.395V140.102C189.521 100.844 161.982 74.623 121.699 74.623H49.7754V286ZM117.012 92.4941C149.531 92.4941 169.16 110.512 169.16 140.248V140.541C169.16 170.424 149.531 188.441 117.012 188.441H69.6973V92.4941H117.012ZM308.232 286H328.154V199.428H380.156C381.475 199.428 383.232 199.428 384.404 199.428L433.037 286H456.475L405.205 196.205C433.33 188.881 450.469 166.469 450.469 136.732V136.439C450.469 98.793 424.102 74.623 382.793 74.623H308.232V286ZM328.154 181.703V92.4941H380.449C411.064 92.4941 429.814 109.047 429.814 136.879V137.172C429.814 165.297 411.797 181.703 381.182 181.703H328.154ZM573.135 286H593.057V74.623H573.135V286ZM790.43 289.369C836.865 289.369 866.455 265.932 866.455 229.75V229.604C866.455 198.402 848.877 181.557 805.518 171.889L782.373 166.615C751.758 159.877 737.988 147.865 737.988 128.236V127.943C737.988 105.238 758.643 89.8574 789.111 89.8574C818.994 89.8574 839.355 105.092 842.432 129.848L842.578 131.752H862.646L862.5 129.701C860.01 94.9844 830.42 71.2539 789.697 71.2539C747.803 71.2539 717.773 94.9844 717.627 128.529V128.676C717.627 158.705 736.084 176.43 777.1 185.658L800.244 190.785C832.764 198.109 845.947 209.682 845.947 230.482V230.629C845.947 255.092 824.561 270.766 791.455 270.766C758.057 270.766 735.498 255.238 732.568 230.922L732.422 228.871H712.354L712.5 230.922C715.137 266.664 745.605 289.369 790.43 289.369ZM985.752 286H1004.5V112.27H1005.53L1078.77 286H1096.2L1169.59 112.27H1170.62V286H1189.37V74.623H1166.37L1088 260.805H1087.12L1008.75 74.623H985.752V286Z" fill="url(#paint9_linear_201_76)" fill-opacity="0.4" style="mix-blend-mode:luminosity"/>
<path d="M49.7754 286H69.6973V206.312H121.699C161.982 206.312 189.521 179.652 189.521 140.395V140.102C189.521 100.844 161.982 74.623 121.699 74.623H49.7754V286ZM117.012 92.4941C149.531 92.4941 169.16 110.512 169.16 140.248V140.541C169.16 170.424 149.531 188.441 117.012 188.441H69.6973V92.4941H117.012ZM308.232 286H328.154V199.428H380.156C381.475 199.428 383.232 199.428 384.404 199.428L433.037 286H456.475L405.205 196.205C433.33 188.881 450.469 166.469 450.469 136.732V136.439C450.469 98.793 424.102 74.623 382.793 74.623H308.232V286ZM328.154 181.703V92.4941H380.449C411.064 92.4941 429.814 109.047 429.814 136.879V137.172C429.814 165.297 411.797 181.703 381.182 181.703H328.154ZM573.135 286H593.057V74.623H573.135V286ZM790.43 289.369C836.865 289.369 866.455 265.932 866.455 229.75V229.604C866.455 198.402 848.877 181.557 805.518 171.889L782.373 166.615C751.758 159.877 737.988 147.865 737.988 128.236V127.943C737.988 105.238 758.643 89.8574 789.111 89.8574C818.994 89.8574 839.355 105.092 842.432 129.848L842.578 131.752H862.646L862.5 129.701C860.01 94.9844 830.42 71.2539 789.697 71.2539C747.803 71.2539 717.773 94.9844 717.627 128.529V128.676C717.627 158.705 736.084 176.43 777.1 185.658L800.244 190.785C832.764 198.109 845.947 209.682 845.947 230.482V230.629C845.947 255.092 824.561 270.766 791.455 270.766C758.057 270.766 735.498 255.238 732.568 230.922L732.422 228.871H712.354L712.5 230.922C715.137 266.664 745.605 289.369 790.43 289.369ZM985.752 286H1004.5V112.27H1005.53L1078.77 286H1096.2L1169.59 112.27H1170.62V286H1189.37V74.623H1166.37L1088 260.805H1087.12L1008.75 74.623H985.752V286Z" fill="black" fill-opacity="0.25" style="mix-blend-mode:multiply"/>
</g>
<g opacity="0.64">
<path d="M55.7754 286H75.6973V206.312H127.699C167.982 206.312 195.521 179.652 195.521 140.395V140.102C195.521 100.844 167.982 74.623 127.699 74.623H55.7754V286ZM123.012 92.4941C155.531 92.4941 175.16 110.512 175.16 140.248V140.541C175.16 170.424 155.531 188.441 123.012 188.441H75.6973V92.4941H123.012ZM314.232 286H334.154V199.428H386.156C387.475 199.428 389.232 199.428 390.404 199.428L439.037 286H462.475L411.205 196.205C439.33 188.881 456.469 166.469 456.469 136.732V136.439C456.469 98.793 430.102 74.623 388.793 74.623H314.232V286ZM334.154 181.703V92.4941H386.449C417.064 92.4941 435.814 109.047 435.814 136.879V137.172C435.814 165.297 417.797 181.703 387.182 181.703H334.154ZM579.135 286H599.057V74.623H579.135V286ZM796.43 289.369C842.865 289.369 872.455 265.932 872.455 229.75V229.604C872.455 198.402 854.877 181.557 811.518 171.889L788.373 166.615C757.758 159.877 743.988 147.865 743.988 128.236V127.943C743.988 105.238 764.643 89.8574 795.111 89.8574C824.994 89.8574 845.355 105.092 848.432 129.848L848.578 131.752H868.646L868.5 129.701C866.01 94.9844 836.42 71.2539 795.697 71.2539C753.803 71.2539 723.773 94.9844 723.627 128.529V128.676C723.627 158.705 742.084 176.43 783.1 185.658L806.244 190.785C838.764 198.109 851.947 209.682 851.947 230.482V230.629C851.947 255.092 830.561 270.766 797.455 270.766C764.057 270.766 741.498 255.238 738.568 230.922L738.422 228.871H718.354L718.5 230.922C721.137 266.664 751.605 289.369 796.43 289.369ZM991.752 286H1010.5V112.27H1011.53L1084.77 286H1102.2L1175.59 112.27H1176.62V286H1195.37V74.623H1172.37L1094 260.805H1093.12L1014.75 74.623H991.752V286Z" fill="url(#paint10_linear_201_76)"/>
<path d="M55.7754 286H75.6973V206.312H127.699C167.982 206.312 195.521 179.652 195.521 140.395V140.102C195.521 100.844 167.982 74.623 127.699 74.623H55.7754V286ZM123.012 92.4941C155.531 92.4941 175.16 110.512 175.16 140.248V140.541C175.16 170.424 155.531 188.441 123.012 188.441H75.6973V92.4941H123.012ZM314.232 286H334.154V199.428H386.156C387.475 199.428 389.232 199.428 390.404 199.428L439.037 286H462.475L411.205 196.205C439.33 188.881 456.469 166.469 456.469 136.732V136.439C456.469 98.793 430.102 74.623 388.793 74.623H314.232V286ZM334.154 181.703V92.4941H386.449C417.064 92.4941 435.814 109.047 435.814 136.879V137.172C435.814 165.297 417.797 181.703 387.182 181.703H334.154ZM579.135 286H599.057V74.623H579.135V286ZM796.43 289.369C842.865 289.369 872.455 265.932 872.455 229.75V229.604C872.455 198.402 854.877 181.557 811.518 171.889L788.373 166.615C757.758 159.877 743.988 147.865 743.988 128.236V127.943C743.988 105.238 764.643 89.8574 795.111 89.8574C824.994 89.8574 845.355 105.092 848.432 129.848L848.578 131.752H868.646L868.5 129.701C866.01 94.9844 836.42 71.2539 795.697 71.2539C753.803 71.2539 723.773 94.9844 723.627 128.529V128.676C723.627 158.705 742.084 176.43 783.1 185.658L806.244 190.785C838.764 198.109 851.947 209.682 851.947 230.482V230.629C851.947 255.092 830.561 270.766 797.455 270.766C764.057 270.766 741.498 255.238 738.568 230.922L738.422 228.871H718.354L718.5 230.922C721.137 266.664 751.605 289.369 796.43 289.369ZM991.752 286H1010.5V112.27H1011.53L1084.77 286H1102.2L1175.59 112.27H1176.62V286H1195.37V74.623H1172.37L1094 260.805H1093.12L1014.75 74.623H991.752V286Z" fill="black" fill-opacity="0.2" style="mix-blend-mode:multiply"/>
</g>
<g opacity="0.73">
<path d="M61.7754 286H81.6973V206.312H133.699C173.982 206.312 201.521 179.652 201.521 140.395V140.102C201.521 100.844 173.982 74.623 133.699 74.623H61.7754V286ZM129.012 92.4941C161.531 92.4941 181.16 110.512 181.16 140.248V140.541C181.16 170.424 161.531 188.441 129.012 188.441H81.6973V92.4941H129.012ZM320.232 286H340.154V199.428H392.156C393.475 199.428 395.232 199.428 396.404 199.428L445.037 286H468.475L417.205 196.205C445.33 188.881 462.469 166.469 462.469 136.732V136.439C462.469 98.793 436.102 74.623 394.793 74.623H320.232V286ZM340.154 181.703V92.4941H392.449C423.064 92.4941 441.814 109.047 441.814 136.879V137.172C441.814 165.297 423.797 181.703 393.182 181.703H340.154ZM585.135 286H605.057V74.623H585.135V286ZM802.43 289.369C848.865 289.369 878.455 265.932 878.455 229.75V229.604C878.455 198.402 860.877 181.557 817.518 171.889L794.373 166.615C763.758 159.877 749.988 147.865 749.988 128.236V127.943C749.988 105.238 770.643 89.8574 801.111 89.8574C830.994 89.8574 851.355 105.092 854.432 129.848L854.578 131.752H874.646L874.5 129.701C872.01 94.9844 842.42 71.2539 801.697 71.2539C759.803 71.2539 729.773 94.9844 729.627 128.529V128.676C729.627 158.705 748.084 176.43 789.1 185.658L812.244 190.785C844.764 198.109 857.947 209.682 857.947 230.482V230.629C857.947 255.092 836.561 270.766 803.455 270.766C770.057 270.766 747.498 255.238 744.568 230.922L744.422 228.871H724.354L724.5 230.922C727.137 266.664 757.605 289.369 802.43 289.369ZM997.752 286H1016.5V112.27H1017.53L1090.77 286H1108.2L1181.59 112.27H1182.62V286H1201.37V74.623H1178.37L1100 260.805H1099.12L1020.75 74.623H997.752V286Z" fill="url(#paint11_linear_201_76)"/>
<path d="M61.7754 286H81.6973V206.312H133.699C173.982 206.312 201.521 179.652 201.521 140.395V140.102C201.521 100.844 173.982 74.623 133.699 74.623H61.7754V286ZM129.012 92.4941C161.531 92.4941 181.16 110.512 181.16 140.248V140.541C181.16 170.424 161.531 188.441 129.012 188.441H81.6973V92.4941H129.012ZM320.232 286H340.154V199.428H392.156C393.475 199.428 395.232 199.428 396.404 199.428L445.037 286H468.475L417.205 196.205C445.33 188.881 462.469 166.469 462.469 136.732V136.439C462.469 98.793 436.102 74.623 394.793 74.623H320.232V286ZM340.154 181.703V92.4941H392.449C423.064 92.4941 441.814 109.047 441.814 136.879V137.172C441.814 165.297 423.797 181.703 393.182 181.703H340.154ZM585.135 286H605.057V74.623H585.135V286ZM802.43 289.369C848.865 289.369 878.455 265.932 878.455 229.75V229.604C878.455 198.402 860.877 181.557 817.518 171.889L794.373 166.615C763.758 159.877 749.988 147.865 749.988 128.236V127.943C749.988 105.238 770.643 89.8574 801.111 89.8574C830.994 89.8574 851.355 105.092 854.432 129.848L854.578 131.752H874.646L874.5 129.701C872.01 94.9844 842.42 71.2539 801.697 71.2539C759.803 71.2539 729.773 94.9844 729.627 128.529V128.676C729.627 158.705 748.084 176.43 789.1 185.658L812.244 190.785C844.764 198.109 857.947 209.682 857.947 230.482V230.629C857.947 255.092 836.561 270.766 803.455 270.766C770.057 270.766 747.498 255.238 744.568 230.922L744.422 228.871H724.354L724.5 230.922C727.137 266.664 757.605 289.369 802.43 289.369ZM997.752 286H1016.5V112.27H1017.53L1090.77 286H1108.2L1181.59 112.27H1182.62V286H1201.37V74.623H1178.37L1100 260.805H1099.12L1020.75 74.623H997.752V286Z" fill="url(#paint12_linear_201_76)" fill-opacity="0.4" style="mix-blend-mode:luminosity"/>
<path d="M61.7754 286H81.6973V206.312H133.699C173.982 206.312 201.521 179.652 201.521 140.395V140.102C201.521 100.844 173.982 74.623 133.699 74.623H61.7754V286ZM129.012 92.4941C161.531 92.4941 181.16 110.512 181.16 140.248V140.541C181.16 170.424 161.531 188.441 129.012 188.441H81.6973V92.4941H129.012ZM320.232 286H340.154V199.428H392.156C393.475 199.428 395.232 199.428 396.404 199.428L445.037 286H468.475L417.205 196.205C445.33 188.881 462.469 166.469 462.469 136.732V136.439C462.469 98.793 436.102 74.623 394.793 74.623H320.232V286ZM340.154 181.703V92.4941H392.449C423.064 92.4941 441.814 109.047 441.814 136.879V137.172C441.814 165.297 423.797 181.703 393.182 181.703H340.154ZM585.135 286H605.057V74.623H585.135V286ZM802.43 289.369C848.865 289.369 878.455 265.932 878.455 229.75V229.604C878.455 198.402 860.877 181.557 817.518 171.889L794.373 166.615C763.758 159.877 749.988 147.865 749.988 128.236V127.943C749.988 105.238 770.643 89.8574 801.111 89.8574C830.994 89.8574 851.355 105.092 854.432 129.848L854.578 131.752H874.646L874.5 129.701C872.01 94.9844 842.42 71.2539 801.697 71.2539C759.803 71.2539 729.773 94.9844 729.627 128.529V128.676C729.627 158.705 748.084 176.43 789.1 185.658L812.244 190.785C844.764 198.109 857.947 209.682 857.947 230.482V230.629C857.947 255.092 836.561 270.766 803.455 270.766C770.057 270.766 747.498 255.238 744.568 230.922L744.422 228.871H724.354L724.5 230.922C727.137 266.664 757.605 289.369 802.43 289.369ZM997.752 286H1016.5V112.27H1017.53L1090.77 286H1108.2L1181.59 112.27H1182.62V286H1201.37V74.623H1178.37L1100 260.805H1099.12L1020.75 74.623H997.752V286Z" fill="black" fill-opacity="0.15" style="mix-blend-mode:multiply"/>
</g>
<g opacity="0.82">
<path d="M67.7754 286H87.6973V206.312H139.699C179.982 206.312 207.521 179.652 207.521 140.395V140.102C207.521 100.844 179.982 74.623 139.699 74.623H67.7754V286ZM135.012 92.4941C167.531 92.4941 187.16 110.512 187.16 140.248V140.541C187.16 170.424 167.531 188.441 135.012 188.441H87.6973V92.4941H135.012ZM326.232 286H346.154V199.428H398.156C399.475 199.428 401.232 199.428 402.404 199.428L451.037 286H474.475L423.205 196.205C451.33 188.881 468.469 166.469 468.469 136.732V136.439C468.469 98.793 442.102 74.623 400.793 74.623H326.232V286ZM346.154 181.703V92.4941H398.449C429.064 92.4941 447.814 109.047 447.814 136.879V137.172C447.814 165.297 429.797 181.703 399.182 181.703H346.154ZM591.135 286H611.057V74.623H591.135V286ZM808.43 289.369C854.865 289.369 884.455 265.932 884.455 229.75V229.604C884.455 198.402 866.877 181.557 823.518 171.889L800.373 166.615C769.758 159.877 755.988 147.865 755.988 128.236V127.943C755.988 105.238 776.643 89.8574 807.111 89.8574C836.994 89.8574 857.355 105.092 860.432 129.848L860.578 131.752H880.646L880.5 129.701C878.01 94.9844 848.42 71.2539 807.697 71.2539C765.803 71.2539 735.773 94.9844 735.627 128.529V128.676C735.627 158.705 754.084 176.43 795.1 185.658L818.244 190.785C850.764 198.109 863.947 209.682 863.947 230.482V230.629C863.947 255.092 842.561 270.766 809.455 270.766C776.057 270.766 753.498 255.238 750.568 230.922L750.422 228.871H730.354L730.5 230.922C733.137 266.664 763.605 289.369 808.43 289.369ZM1003.75 286H1022.5V112.27H1023.53L1096.77 286H1114.2L1187.59 112.27H1188.62V286H1207.37V74.623H1184.37L1106 260.805H1105.12L1026.75 74.623H1003.75V286Z" fill="url(#paint13_linear_201_76)"/>
<path d="M67.7754 286H87.6973V206.312H139.699C179.982 206.312 207.521 179.652 207.521 140.395V140.102C207.521 100.844 179.982 74.623 139.699 74.623H67.7754V286ZM135.012 92.4941C167.531 92.4941 187.16 110.512 187.16 140.248V140.541C187.16 170.424 167.531 188.441 135.012 188.441H87.6973V92.4941H135.012ZM326.232 286H346.154V199.428H398.156C399.475 199.428 401.232 199.428 402.404 199.428L451.037 286H474.475L423.205 196.205C451.33 188.881 468.469 166.469 468.469 136.732V136.439C468.469 98.793 442.102 74.623 400.793 74.623H326.232V286ZM346.154 181.703V92.4941H398.449C429.064 92.4941 447.814 109.047 447.814 136.879V137.172C447.814 165.297 429.797 181.703 399.182 181.703H346.154ZM591.135 286H611.057V74.623H591.135V286ZM808.43 289.369C854.865 289.369 884.455 265.932 884.455 229.75V229.604C884.455 198.402 866.877 181.557 823.518 171.889L800.373 166.615C769.758 159.877 755.988 147.865 755.988 128.236V127.943C755.988 105.238 776.643 89.8574 807.111 89.8574C836.994 89.8574 857.355 105.092 860.432 129.848L860.578 131.752H880.646L880.5 129.701C878.01 94.9844 848.42 71.2539 807.697 71.2539C765.803 71.2539 735.773 94.9844 735.627 128.529V128.676C735.627 158.705 754.084 176.43 795.1 185.658L818.244 190.785C850.764 198.109 863.947 209.682 863.947 230.482V230.629C863.947 255.092 842.561 270.766 809.455 270.766C776.057 270.766 753.498 255.238 750.568 230.922L750.422 228.871H730.354L730.5 230.922C733.137 266.664 763.605 289.369 808.43 289.369ZM1003.75 286H1022.5V112.27H1023.53L1096.77 286H1114.2L1187.59 112.27H1188.62V286H1207.37V74.623H1184.37L1106 260.805H1105.12L1026.75 74.623H1003.75V286Z" fill="black" fill-opacity="0.1" style="mix-blend-mode:multiply"/>
</g>
<g opacity="0.91">
<path d="M73.7754 286H93.6973V206.312H145.699C185.982 206.312 213.521 179.652 213.521 140.395V140.102C213.521 100.844 185.982 74.623 145.699 74.623H73.7754V286ZM141.012 92.4941C173.531 92.4941 193.16 110.512 193.16 140.248V140.541C193.16 170.424 173.531 188.441 141.012 188.441H93.6973V92.4941H141.012ZM332.232 286H352.154V199.428H404.156C405.475 199.428 407.232 199.428 408.404 199.428L457.037 286H480.475L429.205 196.205C457.33 188.881 474.469 166.469 474.469 136.732V136.439C474.469 98.793 448.102 74.623 406.793 74.623H332.232V286ZM352.154 181.703V92.4941H404.449C435.064 92.4941 453.814 109.047 453.814 136.879V137.172C453.814 165.297 435.797 181.703 405.182 181.703H352.154ZM597.135 286H617.057V74.623H597.135V286ZM814.43 289.369C860.865 289.369 890.455 265.932 890.455 229.75V229.604C890.455 198.402 872.877 181.557 829.518 171.889L806.373 166.615C775.758 159.877 761.988 147.865 761.988 128.236V127.943C761.988 105.238 782.643 89.8574 813.111 89.8574C842.994 89.8574 863.355 105.092 866.432 129.848L866.578 131.752H886.646L886.5 129.701C884.01 94.9844 854.42 71.2539 813.697 71.2539C771.803 71.2539 741.773 94.9844 741.627 128.529V128.676C741.627 158.705 760.084 176.43 801.1 185.658L824.244 190.785C856.764 198.109 869.947 209.682 869.947 230.482V230.629C869.947 255.092 848.561 270.766 815.455 270.766C782.057 270.766 759.498 255.238 756.568 230.922L756.422 228.871H736.354L736.5 230.922C739.137 266.664 769.605 289.369 814.43 289.369ZM1009.75 286H1028.5V112.27H1029.53L1102.77 286H1120.2L1193.59 112.27H1194.62V286H1213.37V74.623H1190.37L1112 260.805H1111.12L1032.75 74.623H1009.75V286Z" fill="url(#paint14_linear_201_76)"/>
<path d="M73.7754 286H93.6973V206.312H145.699C185.982 206.312 213.521 179.652 213.521 140.395V140.102C213.521 100.844 185.982 74.623 145.699 74.623H73.7754V286ZM141.012 92.4941C173.531 92.4941 193.16 110.512 193.16 140.248V140.541C193.16 170.424 173.531 188.441 141.012 188.441H93.6973V92.4941H141.012ZM332.232 286H352.154V199.428H404.156C405.475 199.428 407.232 199.428 408.404 199.428L457.037 286H480.475L429.205 196.205C457.33 188.881 474.469 166.469 474.469 136.732V136.439C474.469 98.793 448.102 74.623 406.793 74.623H332.232V286ZM352.154 181.703V92.4941H404.449C435.064 92.4941 453.814 109.047 453.814 136.879V137.172C453.814 165.297 435.797 181.703 405.182 181.703H352.154ZM597.135 286H617.057V74.623H597.135V286ZM814.43 289.369C860.865 289.369 890.455 265.932 890.455 229.75V229.604C890.455 198.402 872.877 181.557 829.518 171.889L806.373 166.615C775.758 159.877 761.988 147.865 761.988 128.236V127.943C761.988 105.238 782.643 89.8574 813.111 89.8574C842.994 89.8574 863.355 105.092 866.432 129.848L866.578 131.752H886.646L886.5 129.701C884.01 94.9844 854.42 71.2539 813.697 71.2539C771.803 71.2539 741.773 94.9844 741.627 128.529V128.676C741.627 158.705 760.084 176.43 801.1 185.658L824.244 190.785C856.764 198.109 869.947 209.682 869.947 230.482V230.629C869.947 255.092 848.561 270.766 815.455 270.766C782.057 270.766 759.498 255.238 756.568 230.922L756.422 228.871H736.354L736.5 230.922C739.137 266.664 769.605 289.369 814.43 289.369ZM1009.75 286H1028.5V112.27H1029.53L1102.77 286H1120.2L1193.59 112.27H1194.62V286H1213.37V74.623H1190.37L1112 260.805H1111.12L1032.75 74.623H1009.75V286Z" fill="url(#paint15_linear_201_76)" fill-opacity="0.4" style="mix-blend-mode:luminosity"/>
<path d="M73.7754 286H93.6973V206.312H145.699C185.982 206.312 213.521 179.652 213.521 140.395V140.102C213.521 100.844 185.982 74.623 145.699 74.623H73.7754V286ZM141.012 92.4941C173.531 92.4941 193.16 110.512 193.16 140.248V140.541C193.16 170.424 173.531 188.441 141.012 188.441H93.6973V92.4941H141.012ZM332.232 286H352.154V199.428H404.156C405.475 199.428 407.232 199.428 408.404 199.428L457.037 286H480.475L429.205 196.205C457.33 188.881 474.469 166.469 474.469 136.732V136.439C474.469 98.793 448.102 74.623 406.793 74.623H332.232V286ZM352.154 181.703V92.4941H404.449C435.064 92.4941 453.814 109.047 453.814 136.879V137.172C453.814 165.297 435.797 181.703 405.182 181.703H352.154ZM597.135 286H617.057V74.623H597.135V286ZM814.43 289.369C860.865 289.369 890.455 265.932 890.455 229.75V229.604C890.455 198.402 872.877 181.557 829.518 171.889L806.373 166.615C775.758 159.877 761.988 147.865 761.988 128.236V127.943C761.988 105.238 782.643 89.8574 813.111 89.8574C842.994 89.8574 863.355 105.092 866.432 129.848L866.578 131.752H886.646L886.5 129.701C884.01 94.9844 854.42 71.2539 813.697 71.2539C771.803 71.2539 741.773 94.9844 741.627 128.529V128.676C741.627 158.705 760.084 176.43 801.1 185.658L824.244 190.785C856.764 198.109 869.947 209.682 869.947 230.482V230.629C869.947 255.092 848.561 270.766 815.455 270.766C782.057 270.766 759.498 255.238 756.568 230.922L756.422 228.871H736.354L736.5 230.922C739.137 266.664 769.605 289.369 814.43 289.369ZM1009.75 286H1028.5V112.27H1029.53L1102.77 286H1120.2L1193.59 112.27H1194.62V286H1213.37V74.623H1190.37L1112 260.805H1111.12L1032.75 74.623H1009.75V286Z" fill="black" fill-opacity="0.05" style="mix-blend-mode:multiply"/>
</g>
<path d="M79.7754 286H99.6973V206.312H151.699C191.982 206.312 219.521 179.652 219.521 140.395V140.102C219.521 100.844 191.982 74.623 151.699 74.623H79.7754V286ZM147.012 92.4941C179.531 92.4941 199.16 110.512 199.16 140.248V140.541C199.16 170.424 179.531 188.441 147.012 188.441H99.6973V92.4941H147.012ZM338.232 286H358.154V199.428H410.156C411.475 199.428 413.232 199.428 414.404 199.428L463.037 286H486.475L435.205 196.205C463.33 188.881 480.469 166.469 480.469 136.732V136.439C480.469 98.793 454.102 74.623 412.793 74.623H338.232V286ZM358.154 181.703V92.4941H410.449C441.064 92.4941 459.814 109.047 459.814 136.879V137.172C459.814 165.297 441.797 181.703 411.182 181.703H358.154ZM603.135 286H623.057V74.623H603.135V286ZM820.43 289.369C866.865 289.369 896.455 265.932 896.455 229.75V229.604C896.455 198.402 878.877 181.557 835.518 171.889L812.373 166.615C781.758 159.877 767.988 147.865 767.988 128.236V127.943C767.988 105.238 788.643 89.8574 819.111 89.8574C848.994 89.8574 869.355 105.092 872.432 129.848L872.578 131.752H892.646L892.5 129.701C890.01 94.9844 860.42 71.2539 819.697 71.2539C777.803 71.2539 747.773 94.9844 747.627 128.529V128.676C747.627 158.705 766.084 176.43 807.1 185.658L830.244 190.785C862.764 198.109 875.947 209.682 875.947 230.482V230.629C875.947 255.092 854.561 270.766 821.455 270.766C788.057 270.766 765.498 255.238 762.568 230.922L762.422 228.871H742.354L742.5 230.922C745.137 266.664 775.605 289.369 820.43 289.369ZM1015.75 286H1034.5V112.27H1035.53L1108.77 286H1126.2L1199.59 112.27H1200.62V286H1219.37V74.623H1196.37L1118 260.805H1117.12L1038.75 74.623H1015.75V286Z" fill="url(#paint16_linear_201_76)"/>
<defs>
<filter id="filter0_d_201_76" x="14.1421" y="330.745" width="1212.18" height="61.0747" filterUnits="userSpaceOnUse" color-interpolation-filters="sRGB">
<feFlood flood-opacity="0" result="BackgroundImageFix"/>
<feColorMatrix in="SourceAlpha" type="matrix" values="0 0 0 0 0 0 0 0 0 0 0 0 0 0 0 0 0 0 127 0" result="hardAlpha"/>
<feOffset dy="4"/>
<feGaussianBlur stdDeviation="2"/>
<feComposite in2="hardAlpha" operator="out"/>
<feColorMatrix type="matrix" values="0 0 0 0 0 0 0 0 0 0 0 0 0 0 0 0 0 0 0.25 0"/>
<feBlend mode="normal" in2="BackgroundImageFix" result="effect1_dropShadow_201_76"/>
<feBlend mode="normal" in="SourceGraphic" in2="effect1_dropShadow_201_76" result="shape"/>
</filter>
<linearGradient id="paint0_linear_201_76" x1="15" y1="357.5" x2="1225" y2="357.499" gradientUnits="userSpaceOnUse">
<stop stop-color="#ED5858"/>
<stop offset="0.145833" stop-color="#FFB067"/>
<stop offset="0.286458" stop-color="#F9C716"/>
<stop offset="0.427083" stop-color="#B4F52B"/>
<stop offset="0.572917" stop-color="#43C4AD"/>
<stop offset="0.71875" stop-color="#766EAA"/>
<stop offset="0.859375" stop-color="#A63DA7"/>
<stop offset="1" stop-color="#A60D7B"/>
</linearGradient>
<linearGradient id="paint1_linear_201_76" x1="0" y1="179" x2="1180" y2="179" gradientUnits="userSpaceOnUse">
<stop stop-color="#ED5858"/>
<stop offset="0.145833" stop-color="#FFB067"/>
<stop offset="0.286458" stop-color="#F9C716"/>
<stop offset="0.427083" stop-color="#B4F52B"/>
<stop offset="0.572917" stop-color="#43C4AD"/>
<stop offset="0.71875" stop-color="#766EAA"/>
<stop offset="0.859375" stop-color="#A63DA7"/>
<stop offset="1" stop-color="#A60D7B"/>
</linearGradient>
<linearGradient id="paint2_linear_201_76" x1="6" y1="179" x2="1186" y2="179" gradientUnits="userSpaceOnUse">
<stop stop-color="#ED5858"/>
<stop offset="0.145833" stop-color="#FFB067"/>
<stop offset="0.286458" stop-color="#F9C716"/>
<stop offset="0.427083" stop-color="#B4F52B"/>
<stop offset="0.572917" stop-color="#43C4AD"/>
<stop offset="0.71875" stop-color="#766EAA"/>
<stop offset="0.859375" stop-color="#A63DA7"/>
<stop offset="1" stop-color="#A60D7B"/>
</linearGradient>
<linearGradient id="paint3_linear_201_76" x1="6" y1="179" x2="1186" y2="179" gradientUnits="userSpaceOnUse">
<stop/>
<stop offset="0.473958" stop-color="#909090"/>
<stop offset="0.583333" stop-color="white"/>
<stop offset="0.713542" stop-color="white"/>
<stop offset="0.796875" stop-color="#E2E2E2"/>
<stop offset="1" stop-color="white"/>
</linearGradient>
<linearGradient id="paint4_linear_201_76" x1="12" y1="179" x2="1192" y2="179" gradientUnits="userSpaceOnUse">
<stop stop-color="#ED5858"/>
<stop offset="0.145833" stop-color="#FFB067"/>
<stop offset="0.286458" stop-color="#F9C716"/>
<stop offset="0.427083" stop-color="#B4F52B"/>
<stop offset="0.572917" stop-color="#43C4AD"/>
<stop offset="0.71875" stop-color="#766EAA"/>
<stop offset="0.859375" stop-color="#A63DA7"/>
<stop offset="1" stop-color="#A60D7B"/>
</linearGradient>
<linearGradient id="paint5_linear_201_76" x1="18" y1="179" x2="1198" y2="179" gradientUnits="userSpaceOnUse">
<stop stop-color="#ED5858"/>
<stop offset="0.145833" stop-color="#FFB067"/>
<stop offset="0.286458" stop-color="#F9C716"/>
<stop offset="0.427083" stop-color="#B4F52B"/>
<stop offset="0.572917" stop-color="#43C4AD"/>
<stop offset="0.71875" stop-color="#766EAA"/>
<stop offset="0.859375" stop-color="#A63DA7"/>
<stop offset="1" stop-color="#A60D7B"/>
</linearGradient>
<linearGradient id="paint6_linear_201_76" x1="18" y1="179" x2="1198" y2="179" gradientUnits="userSpaceOnUse">
<stop/>
<stop offset="0.473958" stop-color="#909090"/>
<stop offset="0.583333" stop-color="white"/>
<stop offset="0.713542" stop-color="white"/>
<stop offset="0.796875" stop-color="#E2E2E2"/>
<stop offset="1" stop-color="white"/>
</linearGradient>
<linearGradient id="paint7_linear_201_76" x1="24" y1="179" x2="1204" y2="179" gradientUnits="userSpaceOnUse">
<stop stop-color="#ED5858"/>
<stop offset="0.145833" stop-color="#FFB067"/>
<stop offset="0.286458" stop-color="#F9C716"/>
<stop offset="0.427083" stop-color="#B4F52B"/>
<stop offset="0.572917" stop-color="#43C4AD"/>
<stop offset="0.71875" stop-color="#766EAA"/>
<stop offset="0.859375" stop-color="#A63DA7"/>
<stop offset="1" stop-color="#A60D7B"/>
</linearGradient>
<linearGradient id="paint8_linear_201_76" x1="30" y1="179" x2="1210" y2="179" gradientUnits="userSpaceOnUse">
<stop stop-color="#ED5858"/>
<stop offset="0.145833" stop-color="#FFB067"/>
<stop offset="0.286458" stop-color="#F9C716"/>
<stop offset="0.427083" stop-color="#B4F52B"/>
<stop offset="0.572917" stop-color="#43C4AD"/>
<stop offset="0.71875" stop-color="#766EAA"/>
<stop offset="0.859375" stop-color="#A63DA7"/>
<stop offset="1" stop-color="#A60D7B"/>
</linearGradient>
<linearGradient id="paint9_linear_201_76" x1="30" y1="179" x2="1210" y2="179" gradientUnits="userSpaceOnUse">
<stop/>
<stop offset="0.473958" stop-color="#909090"/>
<stop offset="0.583333" stop-color="white"/>
<stop offset="0.713542" stop-color="white"/>
<stop offset="0.796875" stop-color="#E2E2E2"/>
<stop offset="1" stop-color="white"/>
</linearGradient>
<linearGradient id="paint10_linear_201_76" x1="36" y1="179" x2="1216" y2="179" gradientUnits="userSpaceOnUse">
<stop stop-color="#ED5858"/>
<stop offset="0.145833" stop-color="#FFB067"/>
<stop offset="0.286458" stop-color="#F9C716"/>
<stop offset="0.427083" stop-color="#B4F52B"/>
<stop offset="0.572917" stop-color="#43C4AD"/>
<stop offset="0.71875" stop-color="#766EAA"/>
<stop offset="0.859375" stop-color="#A63DA7"/>
<stop offset="1" stop-color="#A60D7B"/>
</linearGradient>
<linearGradient id="paint11_linear_201_76" x1="42" y1="179" x2="1222" y2="179" gradientUnits="userSpaceOnUse">
<stop stop-color="#ED5858"/>
<stop offset="0.145833" stop-color="#FFB067"/>
<stop offset="0.286458" stop-color="#F9C716"/>
<stop offset="0.427083" stop-color="#B4F52B"/>
<stop offset="0.572917" stop-color="#43C4AD"/>
<stop offset="0.71875" stop-color="#766EAA"/>
<stop offset="0.859375" stop-color="#A63DA7"/>
<stop offset="1" stop-color="#A60D7B"/>
</linearGradient>
<linearGradient id="paint12_linear_201_76" x1="42" y1="179" x2="1222" y2="179" gradientUnits="userSpaceOnUse">
<stop/>
<stop offset="0.473958" stop-color="#909090"/>
<stop offset="0.583333" stop-color="white"/>
<stop offset="0.713542" stop-color="white"/>
<stop offset="0.796875" stop-color="#E2E2E2"/>
<stop offset="1" stop-color="white"/>
</linearGradient>
<linearGradient id="paint13_linear_201_76" x1="48" y1="179" x2="1228" y2="179" gradientUnits="userSpaceOnUse">
<stop stop-color="#ED5858"/>
<stop offset="0.145833" stop-color="#FFB067"/>
<stop offset="0.286458" stop-color="#F9C716"/>
<stop offset="0.427083" stop-color="#B4F52B"/>
<stop offset="0.572917" stop-color="#43C4AD"/>
<stop offset="0.71875" stop-color="#766EAA"/>
<stop offset="0.859375" stop-color="#A63DA7"/>
<stop offset="1" stop-color="#A60D7B"/>
</linearGradient>
<linearGradient id="paint14_linear_201_76" x1="54" y1="179" x2="1234" y2="179" gradientUnits="userSpaceOnUse">
<stop stop-color="#ED5858"/>
<stop offset="0.145833" stop-color="#FFB067"/>
<stop offset="0.286458" stop-color="#F9C716"/>
<stop offset="0.427083" stop-color="#B4F52B"/>
<stop offset="0.572917" stop-color="#43C4AD"/>
<stop offset="0.71875" stop-color="#766EAA"/>
<stop offset="0.859375" stop-color="#A63DA7"/>
<stop offset="1" stop-color="#A60D7B"/>
</linearGradient>
<linearGradient id="paint15_linear_201_76" x1="54" y1="179" x2="1234" y2="179" gradientUnits="userSpaceOnUse">
<stop/>
<stop offset="0.473958" stop-color="#909090"/>
<stop offset="0.583333" stop-color="white"/>
<stop offset="0.713542" stop-color="white"/>
<stop offset="0.796875" stop-color="#E2E2E2"/>
<stop offset="1" stop-color="white"/>
</linearGradient>
<linearGradient id="paint16_linear_201_76" x1="60" y1="179" x2="1240" y2="179" gradientUnits="userSpaceOnUse">
<stop stop-color="#ED5858"/>
<stop offset="0.145833" stop-color="#FFB067"/>
<stop offset="0.286458" stop-color="#F9C716"/>
<stop offset="0.427083" stop-color="#B4F52B"/>
<stop offset="0.572917" stop-color="#43C4AD"/>
<stop offset="0.71875" stop-color="#766EAA"/>
<stop offset="0.859375" stop-color="#A63DA7"/>
<stop offset="1" stop-color="#A60D7B"/>
</linearGradient>
</defs>
</svg>
