<svg width="1260" height="374" viewBox="0 0 1260 374" fill="none" xmlns="http://www.w3.org/2000/svg">
<rect width="1260" height="374" fill="#29292D"/>
<g filter="url(#filter0_d_405_51)">
<path d="M51.3823 341.82C62.0757 341.82 69.9175 335.333 71.8423 325.637L71.9136 325.281H67.0303L66.9233 325.602C64.7847 332.909 59.3667 337.293 51.3823 337.293C40.3325 337.293 33.1323 328.596 33.1323 315.265V315.229C33.1323 301.862 40.2612 293.272 51.3823 293.272C59.4023 293.272 64.856 297.692 66.8164 304.643L67.0303 305.284H71.9136L71.8423 304.928C69.9175 295.304 62.04 288.745 51.3823 288.745C37.1958 288.745 28.1421 299.082 28.1421 315.229V315.265C28.1421 331.376 37.2671 341.82 51.3823 341.82ZM93.4072 341.677C103.495 341.677 110.303 334.263 110.303 322.465V322.394C110.303 310.595 103.459 303.252 93.4072 303.252C83.3198 303.252 76.5117 310.631 76.5117 322.394V322.465C76.5117 334.228 83.2842 341.642 93.4072 341.677ZM93.4429 337.471C86.1357 337.436 81.3594 331.875 81.3594 322.465V322.394C81.3594 313.055 86.1714 307.458 93.4072 307.458C100.643 307.458 105.491 313.019 105.491 322.394V322.465C105.491 331.839 100.679 337.471 93.4429 337.471ZM116.897 341H121.602V289.565H116.897V341ZM145.092 341.677C155.179 341.677 161.987 334.263 161.987 322.465V322.394C161.987 310.595 155.144 303.252 145.092 303.252C135.004 303.252 128.196 310.631 128.196 322.394V322.465C128.196 334.228 134.969 341.642 145.092 341.677ZM145.127 337.471C137.82 337.436 133.044 331.875 133.044 322.465V322.394C133.044 313.055 137.856 307.458 145.092 307.458C152.328 307.458 157.175 313.019 157.175 322.394V322.465C157.175 331.839 152.363 337.471 145.127 337.471ZM168.261 341H172.966V318.045C172.966 311.771 176.316 307.779 181.592 307.779C183.196 307.779 184.515 308.029 185.121 308.278V303.68C184.55 303.502 183.445 303.252 182.198 303.252C177.707 303.252 174.427 306.068 173.108 310.595H172.966V303.93H168.261V341ZM203.085 341.677C211.105 341.677 217.022 337.079 218.306 330.734L218.377 330.378H213.708L213.636 330.699C212.424 334.727 208.646 337.471 203.192 337.471C195.885 337.471 191.145 332.445 191.002 323.605H218.84V321.752C218.84 310.667 212.603 303.252 202.693 303.252C192.784 303.252 186.226 310.916 186.226 322.536V322.572C186.226 334.299 192.677 341.677 203.085 341.677ZM202.658 307.458C209.002 307.458 213.565 311.771 214.1 319.863H191.073C191.644 311.985 196.349 307.458 202.658 307.458ZM238.979 341.677C244.825 341.677 249.459 338.398 251.598 333.301H251.74V341H256.481V289.565H251.74V311.665H251.633C249.53 306.532 244.754 303.252 238.944 303.252C229.676 303.252 223.296 310.845 223.296 322.429V322.465C223.296 334.049 229.641 341.677 238.979 341.677ZM239.871 337.471C232.742 337.471 228.144 331.625 228.144 322.465V322.429C228.144 313.34 232.742 307.458 239.871 307.458C246.786 307.458 251.776 313.518 251.776 322.429V322.465C251.776 331.412 246.857 337.471 239.871 337.471ZM290.949 341.677C292.09 341.677 293.302 341.535 294.05 341.392V337.542C293.516 337.614 292.767 337.721 291.912 337.721C288.454 337.721 286.708 336.331 286.708 332.231V307.886H294.05V303.93H286.708V293.914H281.86V303.93H276.406V307.886H281.86V332.303C281.86 338.79 284.854 341.677 290.949 341.677ZM314.368 341.677C322.388 341.677 328.305 337.079 329.588 330.734L329.659 330.378H324.99L324.918 330.699C323.707 334.727 319.928 337.471 314.475 337.471C307.167 337.471 302.427 332.445 302.284 323.605H330.123V321.752C330.123 310.667 323.885 303.252 313.976 303.252C304.066 303.252 297.508 310.916 297.508 322.536V322.572C297.508 334.299 303.959 341.677 314.368 341.677ZM313.94 307.458C320.285 307.458 324.847 311.771 325.382 319.863H302.355C302.926 311.985 307.631 307.458 313.94 307.458ZM332.653 341H337.964L348.159 325.78H348.266L358.424 341H363.735L350.903 322.18L363.878 303.93H358.531L348.444 318.793H348.301L338.143 303.93H332.796L345.699 322.358L332.653 341ZM379.775 341.677C380.916 341.677 382.128 341.535 382.876 341.392V337.542C382.342 337.614 381.593 337.721 380.738 337.721C377.28 337.721 375.534 336.331 375.534 332.231V307.886H382.876V303.93H375.534V293.914H370.686V303.93H365.232V307.886H370.686V332.303C370.686 338.79 373.68 341.677 379.775 341.677ZM406.366 341H411.071V307.886H419.02V303.93H411.036V298.761C411.036 294.662 412.996 292.844 416.596 292.844C417.559 292.844 418.485 292.916 419.27 293.058V289.173C418.45 289.03 417.131 288.888 415.812 288.888C409.61 288.888 406.366 291.989 406.366 298.69V303.93H401.198V307.886H406.366V341ZM436.878 341.677C446.965 341.677 453.773 334.263 453.773 322.465V322.394C453.773 310.595 446.93 303.252 436.878 303.252C426.791 303.252 419.982 310.631 419.982 322.394V322.465C419.982 334.228 426.755 341.642 436.878 341.677ZM436.914 337.471C429.606 337.436 424.83 331.875 424.83 322.465V322.394C424.83 313.055 429.642 307.458 436.878 307.458C444.114 307.458 448.961 313.019 448.961 322.394V322.465C448.961 331.839 444.149 337.471 436.914 337.471ZM460.047 341H464.752V318.045C464.752 311.771 468.103 307.779 473.378 307.779C474.982 307.779 476.301 308.029 476.907 308.278V303.68C476.336 303.502 475.231 303.252 473.984 303.252C469.493 303.252 466.213 306.068 464.895 310.595H464.752V303.93H460.047V341ZM514.227 341.82C525.526 341.82 532.726 336.117 532.726 327.312V327.277C532.726 319.685 528.449 315.585 517.898 313.233L512.266 311.95C504.816 310.31 501.466 307.387 501.466 302.611V302.54C501.466 297.015 506.492 293.272 513.906 293.272C521.177 293.272 526.132 296.979 526.88 303.003L526.916 303.466H531.799L531.764 302.967C531.158 294.52 523.958 288.745 514.048 288.745C503.854 288.745 496.547 294.52 496.511 302.682V302.718C496.511 310.025 501.002 314.338 510.983 316.583L516.615 317.831C524.528 319.613 527.736 322.429 527.736 327.491V327.526C527.736 333.479 522.532 337.293 514.476 337.293C506.349 337.293 500.86 333.515 500.147 327.598L500.111 327.099H495.228L495.264 327.598C495.905 336.295 503.319 341.82 514.227 341.82ZM546.485 341H551.475L560.671 310.239H560.778L570.01 341H575L585.516 303.93H580.775L572.47 335.725H572.363L563.131 303.93H558.354L549.123 335.725H549.016L540.71 303.93H535.934L546.485 341ZM593.037 297.229C594.748 297.229 596.138 295.838 596.138 294.092C596.138 292.345 594.748 290.991 593.037 290.991C591.29 290.991 589.9 292.345 589.9 294.092C589.9 295.838 591.29 297.229 593.037 297.229ZM590.648 341H595.389V303.93H590.648V341ZM605.833 341H610.538V307.886H618.487V303.93H610.502V298.761C610.502 294.662 612.463 292.844 616.063 292.844C617.025 292.844 617.952 292.916 618.736 293.058V289.173C617.917 289.03 616.598 288.888 615.279 288.888C609.077 288.888 605.833 291.989 605.833 298.69V303.93H600.665V307.886H605.833V341ZM635.917 341.677C637.058 341.677 638.27 341.535 639.018 341.392V337.542C638.483 337.614 637.735 337.721 636.879 337.721C633.422 337.721 631.675 336.331 631.675 332.231V307.886H639.018V303.93H631.675V293.914H626.828V303.93H621.374V307.886H626.828V332.303C626.828 338.79 629.822 341.677 635.917 341.677ZM675.589 341.677C683.681 341.677 689.633 336.58 690.738 329.665L690.774 329.38H686.104L686.033 329.665C684.928 334.299 681.114 337.471 675.589 337.471C668.389 337.471 663.577 331.839 663.577 322.5V322.465C663.577 313.269 668.318 307.458 675.554 307.458C681.328 307.458 685 310.916 686.033 315.265L686.104 315.55H690.738L690.703 315.229C689.776 308.849 684.18 303.252 675.554 303.252C665.395 303.252 658.729 310.738 658.729 322.394V322.429C658.729 334.228 665.288 341.677 675.589 341.677ZM711.697 341.677C721.785 341.677 728.593 334.263 728.593 322.465V322.394C728.593 310.595 721.749 303.252 711.697 303.252C701.61 303.252 694.802 310.631 694.802 322.394V322.465C694.802 334.228 701.574 341.642 711.697 341.677ZM711.733 337.471C704.426 337.436 699.649 331.875 699.649 322.465V322.394C699.649 313.055 704.461 307.458 711.697 307.458C718.933 307.458 723.781 313.019 723.781 322.394V322.465C723.781 331.839 718.969 337.471 711.733 337.471ZM734.866 341H739.571V318.223C739.571 311.878 743.492 307.494 748.946 307.494C754.007 307.494 757.429 310.987 757.429 316.298V341H762.17V317.653C762.17 311.7 765.948 307.494 771.438 307.494C776.82 307.494 780.028 310.952 780.028 316.726V341H784.733V315.657C784.733 308.136 779.992 303.288 772.721 303.288C767.089 303.288 762.847 306.532 761.065 311.13H760.958C759.568 306.425 755.647 303.288 750.229 303.288C745.025 303.288 741.247 306.211 739.714 310.31H739.571V303.93H734.866V341ZM792.682 341H797.387V318.223C797.387 311.878 801.308 307.494 806.761 307.494C811.823 307.494 815.245 310.987 815.245 316.298V341H819.985V317.653C819.985 311.7 823.764 307.494 829.253 307.494C834.635 307.494 837.843 310.952 837.843 316.726V341H842.548V315.657C842.548 308.136 837.808 303.288 830.536 303.288C824.904 303.288 820.663 306.532 818.88 311.13H818.773C817.383 306.425 813.462 303.288 808.044 303.288C802.84 303.288 799.062 306.211 797.529 310.31H797.387V303.93H792.682V341ZM861.476 341.677C866.965 341.677 871.848 338.647 873.88 334.228H874.022V341H878.728V315.621C878.728 308.029 873.417 303.252 864.933 303.252C856.557 303.252 851.281 307.815 850.568 314.195L850.533 314.623H855.095L855.167 314.267C855.951 310.061 859.479 307.458 864.862 307.458C870.636 307.458 874.022 310.702 874.022 316.049V319.257L862.474 319.97C853.955 320.54 849.178 324.354 849.178 330.663V330.734C849.178 337.293 854.168 341.677 861.476 341.677ZM853.99 330.734V330.663C853.99 326.6 857.234 324.069 863.044 323.712L874.022 322.964V327.063C874.022 332.98 868.925 337.542 862.438 337.542C857.412 337.542 853.99 334.798 853.99 330.734ZM886.641 341H891.346V319.043C891.346 312.128 895.659 307.494 902.11 307.494C908.419 307.494 911.841 311.166 911.841 318.045V341H916.546V317.261C916.546 308.563 911.699 303.288 903.5 303.288C897.512 303.288 893.342 306.247 891.488 310.239H891.346V303.93H886.641V341ZM938.325 341.677C944.171 341.677 948.805 338.398 950.943 333.301H951.086V341H955.827V289.565H951.086V311.665H950.979C948.876 306.532 944.1 303.252 938.29 303.252C929.022 303.252 922.642 310.845 922.642 322.429V322.465C922.642 334.049 928.986 341.677 938.325 341.677ZM939.216 337.471C932.087 337.471 927.489 331.625 927.489 322.465V322.429C927.489 313.34 932.087 307.458 939.216 307.458C946.131 307.458 951.122 313.518 951.122 322.429V322.465C951.122 331.412 946.203 337.471 939.216 337.471ZM979.566 341H984.271V289.565H979.566V341ZM995.463 297.229C997.174 297.229 998.564 295.838 998.564 294.092C998.564 292.345 997.174 290.991 995.463 290.991C993.717 290.991 992.327 292.345 992.327 294.092C992.327 295.838 993.717 297.229 995.463 297.229ZM993.075 341H997.816V303.93H993.075V341ZM1006.33 341H1011.04V319.043C1011.04 312.128 1015.35 307.494 1021.8 307.494C1028.11 307.494 1031.54 311.166 1031.54 318.045V341H1036.24V317.261C1036.24 308.563 1031.39 303.288 1023.19 303.288C1017.21 303.288 1013.04 306.247 1011.18 310.239H1011.04V303.93H1006.33V341ZM1059.2 341.677C1067.22 341.677 1073.13 337.079 1074.42 330.734L1074.49 330.378H1069.82L1069.75 330.699C1068.53 334.727 1064.76 337.471 1059.3 337.471C1052 337.471 1047.25 332.445 1047.11 323.605H1074.95V321.752C1074.95 310.667 1068.71 303.252 1058.8 303.252C1048.89 303.252 1042.34 310.916 1042.34 322.536V322.572C1042.34 334.299 1048.79 341.677 1059.2 341.677ZM1058.77 307.458C1065.11 307.458 1069.68 311.771 1070.21 319.863H1047.18C1047.75 311.985 1052.46 307.458 1058.77 307.458ZM1107.28 341.677C1108.42 341.677 1109.63 341.535 1110.38 341.392V337.542C1109.85 337.614 1109.1 337.721 1108.24 337.721C1104.79 337.721 1103.04 336.331 1103.04 332.231V307.886H1110.38V303.93H1103.04V293.914H1098.19V303.93H1092.74V307.886H1098.19V332.303C1098.19 338.79 1101.19 341.677 1107.28 341.677ZM1130.73 341.677C1140.82 341.677 1147.63 334.263 1147.63 322.465V322.394C1147.63 310.595 1140.79 303.252 1130.73 303.252C1120.65 303.252 1113.84 310.631 1113.84 322.394V322.465C1113.84 334.228 1120.61 341.642 1130.73 341.677ZM1130.77 337.471C1123.46 337.436 1118.69 331.875 1118.69 322.465V322.394C1118.69 313.055 1123.5 307.458 1130.73 307.458C1137.97 307.458 1142.82 313.019 1142.82 322.394V322.465C1142.82 331.839 1138.01 337.471 1130.77 337.471ZM1168.95 341.677C1179.03 341.677 1185.84 334.263 1185.84 322.465V322.394C1185.84 310.595 1179 303.252 1168.95 303.252C1158.86 303.252 1152.05 310.631 1152.05 322.394V322.465C1152.05 334.228 1158.82 341.642 1168.95 341.677ZM1168.98 337.471C1161.67 337.436 1156.9 331.875 1156.9 322.465V322.394C1156.9 313.055 1161.71 307.458 1168.95 307.458C1176.18 307.458 1181.03 313.019 1181.03 322.394V322.465C1181.03 331.839 1176.22 337.471 1168.98 337.471ZM1192.44 341H1197.14V289.565H1192.44V341ZM1218.31 341.677C1226.44 341.677 1232.32 337.222 1232.32 330.913V330.877C1232.32 325.673 1229.51 322.786 1222.13 321.003L1216.53 319.685C1211.65 318.508 1209.65 316.619 1209.65 313.661V313.625C1209.65 309.847 1213 307.245 1218.03 307.245C1223.2 307.245 1226.48 310.061 1227.08 314.374L1227.12 314.623H1231.64L1231.61 314.231C1231 307.851 1225.94 303.252 1218.03 303.252C1210.29 303.252 1204.84 307.637 1204.84 313.803V313.839C1204.84 318.972 1208.19 322.037 1215.18 323.712L1220.77 325.067C1225.73 326.243 1227.51 327.99 1227.51 331.198V331.233C1227.51 335.119 1223.94 337.685 1218.35 337.685C1212.75 337.685 1209.29 334.905 1208.55 330.627L1208.48 330.307H1203.77L1203.81 330.627C1204.52 337.186 1209.9 341.677 1218.31 341.677Z" fill="url(#paint0_linear_405_51)"/>
</g>
<path d="M30.2051 244H50.127V164.312H102.129C142.412 164.312 169.951 137.652 169.951 98.3945V98.1016C169.951 58.8438 142.412 32.623 102.129 32.623H30.2051V244ZM97.4414 50.4941C129.961 50.4941 149.59 68.5117 149.59 98.248V98.541C149.59 128.424 129.961 146.441 97.4414 146.441H50.127V50.4941H97.4414ZM288.662 244H308.584V157.428H360.586C361.904 157.428 363.662 157.428 364.834 157.428L413.467 244H436.904L385.635 154.205C413.76 146.881 430.898 124.469 430.898 94.7324V94.4395C430.898 56.793 404.531 32.623 363.223 32.623H288.662V244ZM308.584 139.703V50.4941H360.879C391.494 50.4941 410.244 67.0469 410.244 94.8789V95.1719C410.244 123.297 392.227 139.703 361.611 139.703H308.584ZM553.564 244H573.486V32.623H553.564V244ZM770.859 247.369C817.295 247.369 846.885 223.932 846.885 187.75V187.604C846.885 156.402 829.307 139.557 785.947 129.889L762.803 124.615C732.188 117.877 718.418 105.865 718.418 86.2363V85.9434C718.418 63.2383 739.072 47.8574 769.541 47.8574C799.424 47.8574 819.785 63.0918 822.861 87.8477L823.008 89.752H843.076L842.93 87.7012C840.439 52.9844 810.85 29.2539 770.127 29.2539C728.232 29.2539 698.203 52.9844 698.057 86.5293V86.6758C698.057 116.705 716.514 134.43 757.529 143.658L780.674 148.785C813.193 156.109 826.377 167.682 826.377 188.482V188.629C826.377 213.092 804.99 228.766 771.885 228.766C738.486 228.766 715.928 213.238 712.998 188.922L712.852 186.871H692.783L692.93 188.922C695.566 224.664 726.035 247.369 770.859 247.369ZM966.182 244H984.932V70.2695H985.957L1059.2 244H1076.63L1150.02 70.2695H1151.04V244H1169.79V32.623H1146.8L1068.43 218.805H1067.55L989.18 32.623H966.182V244Z" fill="url(#paint1_linear_405_51)"/>
<path d="M30.2051 244H50.127V164.312H102.129C142.412 164.312 169.951 137.652 169.951 98.3945V98.1016C169.951 58.8438 142.412 32.623 102.129 32.623H30.2051V244ZM97.4414 50.4941C129.961 50.4941 149.59 68.5117 149.59 98.248V98.541C149.59 128.424 129.961 146.441 97.4414 146.441H50.127V50.4941H97.4414ZM288.662 244H308.584V157.428H360.586C361.904 157.428 363.662 157.428 364.834 157.428L413.467 244H436.904L385.635 154.205C413.76 146.881 430.898 124.469 430.898 94.7324V94.4395C430.898 56.793 404.531 32.623 363.223 32.623H288.662V244ZM308.584 139.703V50.4941H360.879C391.494 50.4941 410.244 67.0469 410.244 94.8789V95.1719C410.244 123.297 392.227 139.703 361.611 139.703H308.584ZM553.564 244H573.486V32.623H553.564V244ZM770.859 247.369C817.295 247.369 846.885 223.932 846.885 187.75V187.604C846.885 156.402 829.307 139.557 785.947 129.889L762.803 124.615C732.188 117.877 718.418 105.865 718.418 86.2363V85.9434C718.418 63.2383 739.072 47.8574 769.541 47.8574C799.424 47.8574 819.785 63.0918 822.861 87.8477L823.008 89.752H843.076L842.93 87.7012C840.439 52.9844 810.85 29.2539 770.127 29.2539C728.232 29.2539 698.203 52.9844 698.057 86.5293V86.6758C698.057 116.705 716.514 134.43 757.529 143.658L780.674 148.785C813.193 156.109 826.377 167.682 826.377 188.482V188.629C826.377 213.092 804.99 228.766 771.885 228.766C738.486 228.766 715.928 213.238 712.998 188.922L712.852 186.871H692.783L692.93 188.922C695.566 224.664 726.035 247.369 770.859 247.369ZM966.182 244H984.932V70.2695H985.957L1059.2 244H1076.63L1150.02 70.2695H1151.04V244H1169.79V32.623H1146.8L1068.43 218.805H1067.55L989.18 32.623H966.182V244Z" fill="black" fill-opacity="0.5" style="mix-blend-mode:multiply"/>
<g opacity="0.91">
<path d="M36.2051 244H56.127V164.312H108.129C148.412 164.312 175.951 137.652 175.951 98.3945V98.1016C175.951 58.8438 148.412 32.623 108.129 32.623H36.2051V244ZM103.441 50.4941C135.961 50.4941 155.59 68.5117 155.59 98.248V98.541C155.59 128.424 135.961 146.441 103.441 146.441H56.127V50.4941H103.441ZM294.662 244H314.584V157.428H366.586C367.904 157.428 369.662 157.428 370.834 157.428L419.467 244H442.904L391.635 154.205C419.76 146.881 436.898 124.469 436.898 94.7324V94.4395C436.898 56.793 410.531 32.623 369.223 32.623H294.662V244ZM314.584 139.703V50.4941H366.879C397.494 50.4941 416.244 67.0469 416.244 94.8789V95.1719C416.244 123.297 398.227 139.703 367.611 139.703H314.584ZM559.564 244H579.486V32.623H559.564V244ZM776.859 247.369C823.295 247.369 852.885 223.932 852.885 187.75V187.604C852.885 156.402 835.307 139.557 791.947 129.889L768.803 124.615C738.188 117.877 724.418 105.865 724.418 86.2363V85.9434C724.418 63.2383 745.072 47.8574 775.541 47.8574C805.424 47.8574 825.785 63.0918 828.861 87.8477L829.008 89.752H849.076L848.93 87.7012C846.439 52.9844 816.85 29.2539 776.127 29.2539C734.232 29.2539 704.203 52.9844 704.057 86.5293V86.6758C704.057 116.705 722.514 134.43 763.529 143.658L786.674 148.785C819.193 156.109 832.377 167.682 832.377 188.482V188.629C832.377 213.092 810.99 228.766 777.885 228.766C744.486 228.766 721.928 213.238 718.998 188.922L718.852 186.871H698.783L698.93 188.922C701.566 224.664 732.035 247.369 776.859 247.369ZM972.182 244H990.932V70.2695H991.957L1065.2 244H1082.63L1156.02 70.2695H1157.04V244H1175.79V32.623H1152.8L1074.43 218.805H1073.55L995.18 32.623H972.182V244Z" fill="url(#paint2_linear_405_51)"/>
<path d="M36.2051 244H56.127V164.312H108.129C148.412 164.312 175.951 137.652 175.951 98.3945V98.1016C175.951 58.8438 148.412 32.623 108.129 32.623H36.2051V244ZM103.441 50.4941C135.961 50.4941 155.59 68.5117 155.59 98.248V98.541C155.59 128.424 135.961 146.441 103.441 146.441H56.127V50.4941H103.441ZM294.662 244H314.584V157.428H366.586C367.904 157.428 369.662 157.428 370.834 157.428L419.467 244H442.904L391.635 154.205C419.76 146.881 436.898 124.469 436.898 94.7324V94.4395C436.898 56.793 410.531 32.623 369.223 32.623H294.662V244ZM314.584 139.703V50.4941H366.879C397.494 50.4941 416.244 67.0469 416.244 94.8789V95.1719C416.244 123.297 398.227 139.703 367.611 139.703H314.584ZM559.564 244H579.486V32.623H559.564V244ZM776.859 247.369C823.295 247.369 852.885 223.932 852.885 187.75V187.604C852.885 156.402 835.307 139.557 791.947 129.889L768.803 124.615C738.188 117.877 724.418 105.865 724.418 86.2363V85.9434C724.418 63.2383 745.072 47.8574 775.541 47.8574C805.424 47.8574 825.785 63.0918 828.861 87.8477L829.008 89.752H849.076L848.93 87.7012C846.439 52.9844 816.85 29.2539 776.127 29.2539C734.232 29.2539 704.203 52.9844 704.057 86.5293V86.6758C704.057 116.705 722.514 134.43 763.529 143.658L786.674 148.785C819.193 156.109 832.377 167.682 832.377 188.482V188.629C832.377 213.092 810.99 228.766 777.885 228.766C744.486 228.766 721.928 213.238 718.998 188.922L718.852 186.871H698.783L698.93 188.922C701.566 224.664 732.035 247.369 776.859 247.369ZM972.182 244H990.932V70.2695H991.957L1065.2 244H1082.63L1156.02 70.2695H1157.04V244H1175.79V32.623H1152.8L1074.43 218.805H1073.55L995.18 32.623H972.182V244Z" fill="url(#paint3_linear_405_51)" fill-opacity="0.4" style="mix-blend-mode:luminosity"/>
<path d="M36.2051 244H56.127V164.312H108.129C148.412 164.312 175.951 137.652 175.951 98.3945V98.1016C175.951 58.8438 148.412 32.623 108.129 32.623H36.2051V244ZM103.441 50.4941C135.961 50.4941 155.59 68.5117 155.59 98.248V98.541C155.59 128.424 135.961 146.441 103.441 146.441H56.127V50.4941H103.441ZM294.662 244H314.584V157.428H366.586C367.904 157.428 369.662 157.428 370.834 157.428L419.467 244H442.904L391.635 154.205C419.76 146.881 436.898 124.469 436.898 94.7324V94.4395C436.898 56.793 410.531 32.623 369.223 32.623H294.662V244ZM314.584 139.703V50.4941H366.879C397.494 50.4941 416.244 67.0469 416.244 94.8789V95.1719C416.244 123.297 398.227 139.703 367.611 139.703H314.584ZM559.564 244H579.486V32.623H559.564V244ZM776.859 247.369C823.295 247.369 852.885 223.932 852.885 187.75V187.604C852.885 156.402 835.307 139.557 791.947 129.889L768.803 124.615C738.188 117.877 724.418 105.865 724.418 86.2363V85.9434C724.418 63.2383 745.072 47.8574 775.541 47.8574C805.424 47.8574 825.785 63.0918 828.861 87.8477L829.008 89.752H849.076L848.93 87.7012C846.439 52.9844 816.85 29.2539 776.127 29.2539C734.232 29.2539 704.203 52.9844 704.057 86.5293V86.6758C704.057 116.705 722.514 134.43 763.529 143.658L786.674 148.785C819.193 156.109 832.377 167.682 832.377 188.482V188.629C832.377 213.092 810.99 228.766 777.885 228.766C744.486 228.766 721.928 213.238 718.998 188.922L718.852 186.871H698.783L698.93 188.922C701.566 224.664 732.035 247.369 776.859 247.369ZM972.182 244H990.932V70.2695H991.957L1065.2 244H1082.63L1156.02 70.2695H1157.04V244H1175.79V32.623H1152.8L1074.43 218.805H1073.55L995.18 32.623H972.182V244Z" fill="black" fill-opacity="0.45" style="mix-blend-mode:multiply"/>
</g>
<g opacity="0.82">
<path d="M42.2051 244H62.127V164.312H114.129C154.412 164.312 181.951 137.652 181.951 98.3945V98.1016C181.951 58.8438 154.412 32.623 114.129 32.623H42.2051V244ZM109.441 50.4941C141.961 50.4941 161.59 68.5117 161.59 98.248V98.541C161.59 128.424 141.961 146.441 109.441 146.441H62.127V50.4941H109.441ZM300.662 244H320.584V157.428H372.586C373.904 157.428 375.662 157.428 376.834 157.428L425.467 244H448.904L397.635 154.205C425.76 146.881 442.898 124.469 442.898 94.7324V94.4395C442.898 56.793 416.531 32.623 375.223 32.623H300.662V244ZM320.584 139.703V50.4941H372.879C403.494 50.4941 422.244 67.0469 422.244 94.8789V95.1719C422.244 123.297 404.227 139.703 373.611 139.703H320.584ZM565.564 244H585.486V32.623H565.564V244ZM782.859 247.369C829.295 247.369 858.885 223.932 858.885 187.75V187.604C858.885 156.402 841.307 139.557 797.947 129.889L774.803 124.615C744.188 117.877 730.418 105.865 730.418 86.2363V85.9434C730.418 63.2383 751.072 47.8574 781.541 47.8574C811.424 47.8574 831.785 63.0918 834.861 87.8477L835.008 89.752H855.076L854.93 87.7012C852.439 52.9844 822.85 29.2539 782.127 29.2539C740.232 29.2539 710.203 52.9844 710.057 86.5293V86.6758C710.057 116.705 728.514 134.43 769.529 143.658L792.674 148.785C825.193 156.109 838.377 167.682 838.377 188.482V188.629C838.377 213.092 816.99 228.766 783.885 228.766C750.486 228.766 727.928 213.238 724.998 188.922L724.852 186.871H704.783L704.93 188.922C707.566 224.664 738.035 247.369 782.859 247.369ZM978.182 244H996.932V70.2695H997.957L1071.2 244H1088.63L1162.02 70.2695H1163.04V244H1181.79V32.623H1158.8L1080.43 218.805H1079.55L1001.18 32.623H978.182V244Z" fill="url(#paint4_linear_405_51)"/>
<path d="M42.2051 244H62.127V164.312H114.129C154.412 164.312 181.951 137.652 181.951 98.3945V98.1016C181.951 58.8438 154.412 32.623 114.129 32.623H42.2051V244ZM109.441 50.4941C141.961 50.4941 161.59 68.5117 161.59 98.248V98.541C161.59 128.424 141.961 146.441 109.441 146.441H62.127V50.4941H109.441ZM300.662 244H320.584V157.428H372.586C373.904 157.428 375.662 157.428 376.834 157.428L425.467 244H448.904L397.635 154.205C425.76 146.881 442.898 124.469 442.898 94.7324V94.4395C442.898 56.793 416.531 32.623 375.223 32.623H300.662V244ZM320.584 139.703V50.4941H372.879C403.494 50.4941 422.244 67.0469 422.244 94.8789V95.1719C422.244 123.297 404.227 139.703 373.611 139.703H320.584ZM565.564 244H585.486V32.623H565.564V244ZM782.859 247.369C829.295 247.369 858.885 223.932 858.885 187.75V187.604C858.885 156.402 841.307 139.557 797.947 129.889L774.803 124.615C744.188 117.877 730.418 105.865 730.418 86.2363V85.9434C730.418 63.2383 751.072 47.8574 781.541 47.8574C811.424 47.8574 831.785 63.0918 834.861 87.8477L835.008 89.752H855.076L854.93 87.7012C852.439 52.9844 822.85 29.2539 782.127 29.2539C740.232 29.2539 710.203 52.9844 710.057 86.5293V86.6758C710.057 116.705 728.514 134.43 769.529 143.658L792.674 148.785C825.193 156.109 838.377 167.682 838.377 188.482V188.629C838.377 213.092 816.99 228.766 783.885 228.766C750.486 228.766 727.928 213.238 724.998 188.922L724.852 186.871H704.783L704.93 188.922C707.566 224.664 738.035 247.369 782.859 247.369ZM978.182 244H996.932V70.2695H997.957L1071.2 244H1088.63L1162.02 70.2695H1163.04V244H1181.79V32.623H1158.8L1080.43 218.805H1079.55L1001.18 32.623H978.182V244Z" fill="black" fill-opacity="0.4" style="mix-blend-mode:multiply"/>
</g>
<g opacity="0.73">
<path d="M48.2051 244H68.127V164.312H120.129C160.412 164.312 187.951 137.652 187.951 98.3945V98.1016C187.951 58.8438 160.412 32.623 120.129 32.623H48.2051V244ZM115.441 50.4941C147.961 50.4941 167.59 68.5117 167.59 98.248V98.541C167.59 128.424 147.961 146.441 115.441 146.441H68.127V50.4941H115.441ZM306.662 244H326.584V157.428H378.586C379.904 157.428 381.662 157.428 382.834 157.428L431.467 244H454.904L403.635 154.205C431.76 146.881 448.898 124.469 448.898 94.7324V94.4395C448.898 56.793 422.531 32.623 381.223 32.623H306.662V244ZM326.584 139.703V50.4941H378.879C409.494 50.4941 428.244 67.0469 428.244 94.8789V95.1719C428.244 123.297 410.227 139.703 379.611 139.703H326.584ZM571.564 244H591.486V32.623H571.564V244ZM788.859 247.369C835.295 247.369 864.885 223.932 864.885 187.75V187.604C864.885 156.402 847.307 139.557 803.947 129.889L780.803 124.615C750.188 117.877 736.418 105.865 736.418 86.2363V85.9434C736.418 63.2383 757.072 47.8574 787.541 47.8574C817.424 47.8574 837.785 63.0918 840.861 87.8477L841.008 89.752H861.076L860.93 87.7012C858.439 52.9844 828.85 29.2539 788.127 29.2539C746.232 29.2539 716.203 52.9844 716.057 86.5293V86.6758C716.057 116.705 734.514 134.43 775.529 143.658L798.674 148.785C831.193 156.109 844.377 167.682 844.377 188.482V188.629C844.377 213.092 822.99 228.766 789.885 228.766C756.486 228.766 733.928 213.238 730.998 188.922L730.852 186.871H710.783L710.93 188.922C713.566 224.664 744.035 247.369 788.859 247.369ZM984.182 244H1002.93V70.2695H1003.96L1077.2 244H1094.63L1168.02 70.2695H1169.04V244H1187.79V32.623H1164.8L1086.43 218.805H1085.55L1007.18 32.623H984.182V244Z" fill="url(#paint5_linear_405_51)"/>
<path d="M48.2051 244H68.127V164.312H120.129C160.412 164.312 187.951 137.652 187.951 98.3945V98.1016C187.951 58.8438 160.412 32.623 120.129 32.623H48.2051V244ZM115.441 50.4941C147.961 50.4941 167.59 68.5117 167.59 98.248V98.541C167.59 128.424 147.961 146.441 115.441 146.441H68.127V50.4941H115.441ZM306.662 244H326.584V157.428H378.586C379.904 157.428 381.662 157.428 382.834 157.428L431.467 244H454.904L403.635 154.205C431.76 146.881 448.898 124.469 448.898 94.7324V94.4395C448.898 56.793 422.531 32.623 381.223 32.623H306.662V244ZM326.584 139.703V50.4941H378.879C409.494 50.4941 428.244 67.0469 428.244 94.8789V95.1719C428.244 123.297 410.227 139.703 379.611 139.703H326.584ZM571.564 244H591.486V32.623H571.564V244ZM788.859 247.369C835.295 247.369 864.885 223.932 864.885 187.75V187.604C864.885 156.402 847.307 139.557 803.947 129.889L780.803 124.615C750.188 117.877 736.418 105.865 736.418 86.2363V85.9434C736.418 63.2383 757.072 47.8574 787.541 47.8574C817.424 47.8574 837.785 63.0918 840.861 87.8477L841.008 89.752H861.076L860.93 87.7012C858.439 52.9844 828.85 29.2539 788.127 29.2539C746.232 29.2539 716.203 52.9844 716.057 86.5293V86.6758C716.057 116.705 734.514 134.43 775.529 143.658L798.674 148.785C831.193 156.109 844.377 167.682 844.377 188.482V188.629C844.377 213.092 822.99 228.766 789.885 228.766C756.486 228.766 733.928 213.238 730.998 188.922L730.852 186.871H710.783L710.93 188.922C713.566 224.664 744.035 247.369 788.859 247.369ZM984.182 244H1002.93V70.2695H1003.96L1077.2 244H1094.63L1168.02 70.2695H1169.04V244H1187.79V32.623H1164.8L1086.43 218.805H1085.55L1007.18 32.623H984.182V244Z" fill="url(#paint6_linear_405_51)" fill-opacity="0.4" style="mix-blend-mode:luminosity"/>
<path d="M48.2051 244H68.127V164.312H120.129C160.412 164.312 187.951 137.652 187.951 98.3945V98.1016C187.951 58.8438 160.412 32.623 120.129 32.623H48.2051V244ZM115.441 50.4941C147.961 50.4941 167.59 68.5117 167.59 98.248V98.541C167.59 128.424 147.961 146.441 115.441 146.441H68.127V50.4941H115.441ZM306.662 244H326.584V157.428H378.586C379.904 157.428 381.662 157.428 382.834 157.428L431.467 244H454.904L403.635 154.205C431.76 146.881 448.898 124.469 448.898 94.7324V94.4395C448.898 56.793 422.531 32.623 381.223 32.623H306.662V244ZM326.584 139.703V50.4941H378.879C409.494 50.4941 428.244 67.0469 428.244 94.8789V95.1719C428.244 123.297 410.227 139.703 379.611 139.703H326.584ZM571.564 244H591.486V32.623H571.564V244ZM788.859 247.369C835.295 247.369 864.885 223.932 864.885 187.75V187.604C864.885 156.402 847.307 139.557 803.947 129.889L780.803 124.615C750.188 117.877 736.418 105.865 736.418 86.2363V85.9434C736.418 63.2383 757.072 47.8574 787.541 47.8574C817.424 47.8574 837.785 63.0918 840.861 87.8477L841.008 89.752H861.076L860.93 87.7012C858.439 52.9844 828.85 29.2539 788.127 29.2539C746.232 29.2539 716.203 52.9844 716.057 86.5293V86.6758C716.057 116.705 734.514 134.43 775.529 143.658L798.674 148.785C831.193 156.109 844.377 167.682 844.377 188.482V188.629C844.377 213.092 822.99 228.766 789.885 228.766C756.486 228.766 733.928 213.238 730.998 188.922L730.852 186.871H710.783L710.93 188.922C713.566 224.664 744.035 247.369 788.859 247.369ZM984.182 244H1002.93V70.2695H1003.96L1077.2 244H1094.63L1168.02 70.2695H1169.04V244H1187.79V32.623H1164.8L1086.43 218.805H1085.55L1007.18 32.623H984.182V244Z" fill="black" fill-opacity="0.35" style="mix-blend-mode:multiply"/>
</g>
<g opacity="0.64">
<path d="M54.2051 244H74.127V164.312H126.129C166.412 164.312 193.951 137.652 193.951 98.3945V98.1016C193.951 58.8438 166.412 32.623 126.129 32.623H54.2051V244ZM121.441 50.4941C153.961 50.4941 173.59 68.5117 173.59 98.248V98.541C173.59 128.424 153.961 146.441 121.441 146.441H74.127V50.4941H121.441ZM312.662 244H332.584V157.428H384.586C385.904 157.428 387.662 157.428 388.834 157.428L437.467 244H460.904L409.635 154.205C437.76 146.881 454.898 124.469 454.898 94.7324V94.4395C454.898 56.793 428.531 32.623 387.223 32.623H312.662V244ZM332.584 139.703V50.4941H384.879C415.494 50.4941 434.244 67.0469 434.244 94.8789V95.1719C434.244 123.297 416.227 139.703 385.611 139.703H332.584ZM577.564 244H597.486V32.623H577.564V244ZM794.859 247.369C841.295 247.369 870.885 223.932 870.885 187.75V187.604C870.885 156.402 853.307 139.557 809.947 129.889L786.803 124.615C756.188 117.877 742.418 105.865 742.418 86.2363V85.9434C742.418 63.2383 763.072 47.8574 793.541 47.8574C823.424 47.8574 843.785 63.0918 846.861 87.8477L847.008 89.752H867.076L866.93 87.7012C864.439 52.9844 834.85 29.2539 794.127 29.2539C752.232 29.2539 722.203 52.9844 722.057 86.5293V86.6758C722.057 116.705 740.514 134.43 781.529 143.658L804.674 148.785C837.193 156.109 850.377 167.682 850.377 188.482V188.629C850.377 213.092 828.99 228.766 795.885 228.766C762.486 228.766 739.928 213.238 736.998 188.922L736.852 186.871H716.783L716.93 188.922C719.566 224.664 750.035 247.369 794.859 247.369ZM990.182 244H1008.93V70.2695H1009.96L1083.2 244H1100.63L1174.02 70.2695H1175.04V244H1193.79V32.623H1170.8L1092.43 218.805H1091.55L1013.18 32.623H990.182V244Z" fill="url(#paint7_linear_405_51)"/>
<path d="M54.2051 244H74.127V164.312H126.129C166.412 164.312 193.951 137.652 193.951 98.3945V98.1016C193.951 58.8438 166.412 32.623 126.129 32.623H54.2051V244ZM121.441 50.4941C153.961 50.4941 173.59 68.5117 173.59 98.248V98.541C173.59 128.424 153.961 146.441 121.441 146.441H74.127V50.4941H121.441ZM312.662 244H332.584V157.428H384.586C385.904 157.428 387.662 157.428 388.834 157.428L437.467 244H460.904L409.635 154.205C437.76 146.881 454.898 124.469 454.898 94.7324V94.4395C454.898 56.793 428.531 32.623 387.223 32.623H312.662V244ZM332.584 139.703V50.4941H384.879C415.494 50.4941 434.244 67.0469 434.244 94.8789V95.1719C434.244 123.297 416.227 139.703 385.611 139.703H332.584ZM577.564 244H597.486V32.623H577.564V244ZM794.859 247.369C841.295 247.369 870.885 223.932 870.885 187.75V187.604C870.885 156.402 853.307 139.557 809.947 129.889L786.803 124.615C756.188 117.877 742.418 105.865 742.418 86.2363V85.9434C742.418 63.2383 763.072 47.8574 793.541 47.8574C823.424 47.8574 843.785 63.0918 846.861 87.8477L847.008 89.752H867.076L866.93 87.7012C864.439 52.9844 834.85 29.2539 794.127 29.2539C752.232 29.2539 722.203 52.9844 722.057 86.5293V86.6758C722.057 116.705 740.514 134.43 781.529 143.658L804.674 148.785C837.193 156.109 850.377 167.682 850.377 188.482V188.629C850.377 213.092 828.99 228.766 795.885 228.766C762.486 228.766 739.928 213.238 736.998 188.922L736.852 186.871H716.783L716.93 188.922C719.566 224.664 750.035 247.369 794.859 247.369ZM990.182 244H1008.93V70.2695H1009.96L1083.2 244H1100.63L1174.02 70.2695H1175.04V244H1193.79V32.623H1170.8L1092.43 218.805H1091.55L1013.18 32.623H990.182V244Z" fill="black" fill-opacity="0.3" style="mix-blend-mode:multiply"/>
</g>
<g opacity="0.55">
<path d="M60.2051 244H80.127V164.312H132.129C172.412 164.312 199.951 137.652 199.951 98.3945V98.1016C199.951 58.8438 172.412 32.623 132.129 32.623H60.2051V244ZM127.441 50.4941C159.961 50.4941 179.59 68.5117 179.59 98.248V98.541C179.59 128.424 159.961 146.441 127.441 146.441H80.127V50.4941H127.441ZM318.662 244H338.584V157.428H390.586C391.904 157.428 393.662 157.428 394.834 157.428L443.467 244H466.904L415.635 154.205C443.76 146.881 460.898 124.469 460.898 94.7324V94.4395C460.898 56.793 434.531 32.623 393.223 32.623H318.662V244ZM338.584 139.703V50.4941H390.879C421.494 50.4941 440.244 67.0469 440.244 94.8789V95.1719C440.244 123.297 422.227 139.703 391.611 139.703H338.584ZM583.564 244H603.486V32.623H583.564V244ZM800.859 247.369C847.295 247.369 876.885 223.932 876.885 187.75V187.604C876.885 156.402 859.307 139.557 815.947 129.889L792.803 124.615C762.188 117.877 748.418 105.865 748.418 86.2363V85.9434C748.418 63.2383 769.072 47.8574 799.541 47.8574C829.424 47.8574 849.785 63.0918 852.861 87.8477L853.008 89.752H873.076L872.93 87.7012C870.439 52.9844 840.85 29.2539 800.127 29.2539C758.232 29.2539 728.203 52.9844 728.057 86.5293V86.6758C728.057 116.705 746.514 134.43 787.529 143.658L810.674 148.785C843.193 156.109 856.377 167.682 856.377 188.482V188.629C856.377 213.092 834.99 228.766 801.885 228.766C768.486 228.766 745.928 213.238 742.998 188.922L742.852 186.871H722.783L722.93 188.922C725.566 224.664 756.035 247.369 800.859 247.369ZM996.182 244H1014.93V70.2695H1015.96L1089.2 244H1106.63L1180.02 70.2695H1181.04V244H1199.79V32.623H1176.8L1098.43 218.805H1097.55L1019.18 32.623H996.182V244Z" fill="url(#paint8_linear_405_51)"/>
<path d="M60.2051 244H80.127V164.312H132.129C172.412 164.312 199.951 137.652 199.951 98.3945V98.1016C199.951 58.8438 172.412 32.623 132.129 32.623H60.2051V244ZM127.441 50.4941C159.961 50.4941 179.59 68.5117 179.59 98.248V98.541C179.59 128.424 159.961 146.441 127.441 146.441H80.127V50.4941H127.441ZM318.662 244H338.584V157.428H390.586C391.904 157.428 393.662 157.428 394.834 157.428L443.467 244H466.904L415.635 154.205C443.76 146.881 460.898 124.469 460.898 94.7324V94.4395C460.898 56.793 434.531 32.623 393.223 32.623H318.662V244ZM338.584 139.703V50.4941H390.879C421.494 50.4941 440.244 67.0469 440.244 94.8789V95.1719C440.244 123.297 422.227 139.703 391.611 139.703H338.584ZM583.564 244H603.486V32.623H583.564V244ZM800.859 247.369C847.295 247.369 876.885 223.932 876.885 187.75V187.604C876.885 156.402 859.307 139.557 815.947 129.889L792.803 124.615C762.188 117.877 748.418 105.865 748.418 86.2363V85.9434C748.418 63.2383 769.072 47.8574 799.541 47.8574C829.424 47.8574 849.785 63.0918 852.861 87.8477L853.008 89.752H873.076L872.93 87.7012C870.439 52.9844 840.85 29.2539 800.127 29.2539C758.232 29.2539 728.203 52.9844 728.057 86.5293V86.6758C728.057 116.705 746.514 134.43 787.529 143.658L810.674 148.785C843.193 156.109 856.377 167.682 856.377 188.482V188.629C856.377 213.092 834.99 228.766 801.885 228.766C768.486 228.766 745.928 213.238 742.998 188.922L742.852 186.871H722.783L722.93 188.922C725.566 224.664 756.035 247.369 800.859 247.369ZM996.182 244H1014.93V70.2695H1015.96L1089.2 244H1106.63L1180.02 70.2695H1181.04V244H1199.79V32.623H1176.8L1098.43 218.805H1097.55L1019.18 32.623H996.182V244Z" fill="url(#paint9_linear_405_51)" fill-opacity="0.4" style="mix-blend-mode:luminosity"/>
<path d="M60.2051 244H80.127V164.312H132.129C172.412 164.312 199.951 137.652 199.951 98.3945V98.1016C199.951 58.8438 172.412 32.623 132.129 32.623H60.2051V244ZM127.441 50.4941C159.961 50.4941 179.59 68.5117 179.59 98.248V98.541C179.59 128.424 159.961 146.441 127.441 146.441H80.127V50.4941H127.441ZM318.662 244H338.584V157.428H390.586C391.904 157.428 393.662 157.428 394.834 157.428L443.467 244H466.904L415.635 154.205C443.76 146.881 460.898 124.469 460.898 94.7324V94.4395C460.898 56.793 434.531 32.623 393.223 32.623H318.662V244ZM338.584 139.703V50.4941H390.879C421.494 50.4941 440.244 67.0469 440.244 94.8789V95.1719C440.244 123.297 422.227 139.703 391.611 139.703H338.584ZM583.564 244H603.486V32.623H583.564V244ZM800.859 247.369C847.295 247.369 876.885 223.932 876.885 187.75V187.604C876.885 156.402 859.307 139.557 815.947 129.889L792.803 124.615C762.188 117.877 748.418 105.865 748.418 86.2363V85.9434C748.418 63.2383 769.072 47.8574 799.541 47.8574C829.424 47.8574 849.785 63.0918 852.861 87.8477L853.008 89.752H873.076L872.93 87.7012C870.439 52.9844 840.85 29.2539 800.127 29.2539C758.232 29.2539 728.203 52.9844 728.057 86.5293V86.6758C728.057 116.705 746.514 134.43 787.529 143.658L810.674 148.785C843.193 156.109 856.377 167.682 856.377 188.482V188.629C856.377 213.092 834.99 228.766 801.885 228.766C768.486 228.766 745.928 213.238 742.998 188.922L742.852 186.871H722.783L722.93 188.922C725.566 224.664 756.035 247.369 800.859 247.369ZM996.182 244H1014.93V70.2695H1015.96L1089.2 244H1106.63L1180.02 70.2695H1181.04V244H1199.79V32.623H1176.8L1098.43 218.805H1097.55L1019.18 32.623H996.182V244Z" fill="black" fill-opacity="0.25" style="mix-blend-mode:multiply"/>
</g>
<g opacity="0.64">
<path d="M66.2051 244H86.127V164.312H138.129C178.412 164.312 205.951 137.652 205.951 98.3945V98.1016C205.951 58.8438 178.412 32.623 138.129 32.623H66.2051V244ZM133.441 50.4941C165.961 50.4941 185.59 68.5117 185.59 98.248V98.541C185.59 128.424 165.961 146.441 133.441 146.441H86.127V50.4941H133.441ZM324.662 244H344.584V157.428H396.586C397.904 157.428 399.662 157.428 400.834 157.428L449.467 244H472.904L421.635 154.205C449.76 146.881 466.898 124.469 466.898 94.7324V94.4395C466.898 56.793 440.531 32.623 399.223 32.623H324.662V244ZM344.584 139.703V50.4941H396.879C427.494 50.4941 446.244 67.0469 446.244 94.8789V95.1719C446.244 123.297 428.227 139.703 397.611 139.703H344.584ZM589.564 244H609.486V32.623H589.564V244ZM806.859 247.369C853.295 247.369 882.885 223.932 882.885 187.75V187.604C882.885 156.402 865.307 139.557 821.947 129.889L798.803 124.615C768.188 117.877 754.418 105.865 754.418 86.2363V85.9434C754.418 63.2383 775.072 47.8574 805.541 47.8574C835.424 47.8574 855.785 63.0918 858.861 87.8477L859.008 89.752H879.076L878.93 87.7012C876.439 52.9844 846.85 29.2539 806.127 29.2539C764.232 29.2539 734.203 52.9844 734.057 86.5293V86.6758C734.057 116.705 752.514 134.43 793.529 143.658L816.674 148.785C849.193 156.109 862.377 167.682 862.377 188.482V188.629C862.377 213.092 840.99 228.766 807.885 228.766C774.486 228.766 751.928 213.238 748.998 188.922L748.852 186.871H728.783L728.93 188.922C731.566 224.664 762.035 247.369 806.859 247.369ZM1002.18 244H1020.93V70.2695H1021.96L1095.2 244H1112.63L1186.02 70.2695H1187.04V244H1205.79V32.623H1182.8L1104.43 218.805H1103.55L1025.18 32.623H1002.18V244Z" fill="url(#paint10_linear_405_51)"/>
<path d="M66.2051 244H86.127V164.312H138.129C178.412 164.312 205.951 137.652 205.951 98.3945V98.1016C205.951 58.8438 178.412 32.623 138.129 32.623H66.2051V244ZM133.441 50.4941C165.961 50.4941 185.59 68.5117 185.59 98.248V98.541C185.59 128.424 165.961 146.441 133.441 146.441H86.127V50.4941H133.441ZM324.662 244H344.584V157.428H396.586C397.904 157.428 399.662 157.428 400.834 157.428L449.467 244H472.904L421.635 154.205C449.76 146.881 466.898 124.469 466.898 94.7324V94.4395C466.898 56.793 440.531 32.623 399.223 32.623H324.662V244ZM344.584 139.703V50.4941H396.879C427.494 50.4941 446.244 67.0469 446.244 94.8789V95.1719C446.244 123.297 428.227 139.703 397.611 139.703H344.584ZM589.564 244H609.486V32.623H589.564V244ZM806.859 247.369C853.295 247.369 882.885 223.932 882.885 187.75V187.604C882.885 156.402 865.307 139.557 821.947 129.889L798.803 124.615C768.188 117.877 754.418 105.865 754.418 86.2363V85.9434C754.418 63.2383 775.072 47.8574 805.541 47.8574C835.424 47.8574 855.785 63.0918 858.861 87.8477L859.008 89.752H879.076L878.93 87.7012C876.439 52.9844 846.85 29.2539 806.127 29.2539C764.232 29.2539 734.203 52.9844 734.057 86.5293V86.6758C734.057 116.705 752.514 134.43 793.529 143.658L816.674 148.785C849.193 156.109 862.377 167.682 862.377 188.482V188.629C862.377 213.092 840.99 228.766 807.885 228.766C774.486 228.766 751.928 213.238 748.998 188.922L748.852 186.871H728.783L728.93 188.922C731.566 224.664 762.035 247.369 806.859 247.369ZM1002.18 244H1020.93V70.2695H1021.96L1095.2 244H1112.63L1186.02 70.2695H1187.04V244H1205.79V32.623H1182.8L1104.43 218.805H1103.55L1025.18 32.623H1002.18V244Z" fill="black" fill-opacity="0.2" style="mix-blend-mode:multiply"/>
</g>
<g opacity="0.73">
<path d="M72.2051 244H92.127V164.312H144.129C184.412 164.312 211.951 137.652 211.951 98.3945V98.1016C211.951 58.8438 184.412 32.623 144.129 32.623H72.2051V244ZM139.441 50.4941C171.961 50.4941 191.59 68.5117 191.59 98.248V98.541C191.59 128.424 171.961 146.441 139.441 146.441H92.127V50.4941H139.441ZM330.662 244H350.584V157.428H402.586C403.904 157.428 405.662 157.428 406.834 157.428L455.467 244H478.904L427.635 154.205C455.76 146.881 472.898 124.469 472.898 94.7324V94.4395C472.898 56.793 446.531 32.623 405.223 32.623H330.662V244ZM350.584 139.703V50.4941H402.879C433.494 50.4941 452.244 67.0469 452.244 94.8789V95.1719C452.244 123.297 434.227 139.703 403.611 139.703H350.584ZM595.564 244H615.486V32.623H595.564V244ZM812.859 247.369C859.295 247.369 888.885 223.932 888.885 187.75V187.604C888.885 156.402 871.307 139.557 827.947 129.889L804.803 124.615C774.188 117.877 760.418 105.865 760.418 86.2363V85.9434C760.418 63.2383 781.072 47.8574 811.541 47.8574C841.424 47.8574 861.785 63.0918 864.861 87.8477L865.008 89.752H885.076L884.93 87.7012C882.439 52.9844 852.85 29.2539 812.127 29.2539C770.232 29.2539 740.203 52.9844 740.057 86.5293V86.6758C740.057 116.705 758.514 134.43 799.529 143.658L822.674 148.785C855.193 156.109 868.377 167.682 868.377 188.482V188.629C868.377 213.092 846.99 228.766 813.885 228.766C780.486 228.766 757.928 213.238 754.998 188.922L754.852 186.871H734.783L734.93 188.922C737.566 224.664 768.035 247.369 812.859 247.369ZM1008.18 244H1026.93V70.2695H1027.96L1101.2 244H1118.63L1192.02 70.2695H1193.04V244H1211.79V32.623H1188.8L1110.43 218.805H1109.55L1031.18 32.623H1008.18V244Z" fill="url(#paint11_linear_405_51)"/>
<path d="M72.2051 244H92.127V164.312H144.129C184.412 164.312 211.951 137.652 211.951 98.3945V98.1016C211.951 58.8438 184.412 32.623 144.129 32.623H72.2051V244ZM139.441 50.4941C171.961 50.4941 191.59 68.5117 191.59 98.248V98.541C191.59 128.424 171.961 146.441 139.441 146.441H92.127V50.4941H139.441ZM330.662 244H350.584V157.428H402.586C403.904 157.428 405.662 157.428 406.834 157.428L455.467 244H478.904L427.635 154.205C455.76 146.881 472.898 124.469 472.898 94.7324V94.4395C472.898 56.793 446.531 32.623 405.223 32.623H330.662V244ZM350.584 139.703V50.4941H402.879C433.494 50.4941 452.244 67.0469 452.244 94.8789V95.1719C452.244 123.297 434.227 139.703 403.611 139.703H350.584ZM595.564 244H615.486V32.623H595.564V244ZM812.859 247.369C859.295 247.369 888.885 223.932 888.885 187.75V187.604C888.885 156.402 871.307 139.557 827.947 129.889L804.803 124.615C774.188 117.877 760.418 105.865 760.418 86.2363V85.9434C760.418 63.2383 781.072 47.8574 811.541 47.8574C841.424 47.8574 861.785 63.0918 864.861 87.8477L865.008 89.752H885.076L884.93 87.7012C882.439 52.9844 852.85 29.2539 812.127 29.2539C770.232 29.2539 740.203 52.9844 740.057 86.5293V86.6758C740.057 116.705 758.514 134.43 799.529 143.658L822.674 148.785C855.193 156.109 868.377 167.682 868.377 188.482V188.629C868.377 213.092 846.99 228.766 813.885 228.766C780.486 228.766 757.928 213.238 754.998 188.922L754.852 186.871H734.783L734.93 188.922C737.566 224.664 768.035 247.369 812.859 247.369ZM1008.18 244H1026.93V70.2695H1027.96L1101.2 244H1118.63L1192.02 70.2695H1193.04V244H1211.79V32.623H1188.8L1110.43 218.805H1109.55L1031.18 32.623H1008.18V244Z" fill="url(#paint12_linear_405_51)" fill-opacity="0.4" style="mix-blend-mode:luminosity"/>
<path d="M72.2051 244H92.127V164.312H144.129C184.412 164.312 211.951 137.652 211.951 98.3945V98.1016C211.951 58.8438 184.412 32.623 144.129 32.623H72.2051V244ZM139.441 50.4941C171.961 50.4941 191.59 68.5117 191.59 98.248V98.541C191.59 128.424 171.961 146.441 139.441 146.441H92.127V50.4941H139.441ZM330.662 244H350.584V157.428H402.586C403.904 157.428 405.662 157.428 406.834 157.428L455.467 244H478.904L427.635 154.205C455.76 146.881 472.898 124.469 472.898 94.7324V94.4395C472.898 56.793 446.531 32.623 405.223 32.623H330.662V244ZM350.584 139.703V50.4941H402.879C433.494 50.4941 452.244 67.0469 452.244 94.8789V95.1719C452.244 123.297 434.227 139.703 403.611 139.703H350.584ZM595.564 244H615.486V32.623H595.564V244ZM812.859 247.369C859.295 247.369 888.885 223.932 888.885 187.75V187.604C888.885 156.402 871.307 139.557 827.947 129.889L804.803 124.615C774.188 117.877 760.418 105.865 760.418 86.2363V85.9434C760.418 63.2383 781.072 47.8574 811.541 47.8574C841.424 47.8574 861.785 63.0918 864.861 87.8477L865.008 89.752H885.076L884.93 87.7012C882.439 52.9844 852.85 29.2539 812.127 29.2539C770.232 29.2539 740.203 52.9844 740.057 86.5293V86.6758C740.057 116.705 758.514 134.43 799.529 143.658L822.674 148.785C855.193 156.109 868.377 167.682 868.377 188.482V188.629C868.377 213.092 846.99 228.766 813.885 228.766C780.486 228.766 757.928 213.238 754.998 188.922L754.852 186.871H734.783L734.93 188.922C737.566 224.664 768.035 247.369 812.859 247.369ZM1008.18 244H1026.93V70.2695H1027.96L1101.2 244H1118.63L1192.02 70.2695H1193.04V244H1211.79V32.623H1188.8L1110.43 218.805H1109.55L1031.18 32.623H1008.18V244Z" fill="black" fill-opacity="0.15" style="mix-blend-mode:multiply"/>
</g>
<g opacity="0.82">
<path d="M78.2051 244H98.127V164.312H150.129C190.412 164.312 217.951 137.652 217.951 98.3945V98.1016C217.951 58.8438 190.412 32.623 150.129 32.623H78.2051V244ZM145.441 50.4941C177.961 50.4941 197.59 68.5117 197.59 98.248V98.541C197.59 128.424 177.961 146.441 145.441 146.441H98.127V50.4941H145.441ZM336.662 244H356.584V157.428H408.586C409.904 157.428 411.662 157.428 412.834 157.428L461.467 244H484.904L433.635 154.205C461.76 146.881 478.898 124.469 478.898 94.7324V94.4395C478.898 56.793 452.531 32.623 411.223 32.623H336.662V244ZM356.584 139.703V50.4941H408.879C439.494 50.4941 458.244 67.0469 458.244 94.8789V95.1719C458.244 123.297 440.227 139.703 409.611 139.703H356.584ZM601.564 244H621.486V32.623H601.564V244ZM818.859 247.369C865.295 247.369 894.885 223.932 894.885 187.75V187.604C894.885 156.402 877.307 139.557 833.947 129.889L810.803 124.615C780.188 117.877 766.418 105.865 766.418 86.2363V85.9434C766.418 63.2383 787.072 47.8574 817.541 47.8574C847.424 47.8574 867.785 63.0918 870.861 87.8477L871.008 89.752H891.076L890.93 87.7012C888.439 52.9844 858.85 29.2539 818.127 29.2539C776.232 29.2539 746.203 52.9844 746.057 86.5293V86.6758C746.057 116.705 764.514 134.43 805.529 143.658L828.674 148.785C861.193 156.109 874.377 167.682 874.377 188.482V188.629C874.377 213.092 852.99 228.766 819.885 228.766C786.486 228.766 763.928 213.238 760.998 188.922L760.852 186.871H740.783L740.93 188.922C743.566 224.664 774.035 247.369 818.859 247.369ZM1014.18 244H1032.93V70.2695H1033.96L1107.2 244H1124.63L1198.02 70.2695H1199.04V244H1217.79V32.623H1194.8L1116.43 218.805H1115.55L1037.18 32.623H1014.18V244Z" fill="url(#paint13_linear_405_51)"/>
<path d="M78.2051 244H98.127V164.312H150.129C190.412 164.312 217.951 137.652 217.951 98.3945V98.1016C217.951 58.8438 190.412 32.623 150.129 32.623H78.2051V244ZM145.441 50.4941C177.961 50.4941 197.59 68.5117 197.59 98.248V98.541C197.59 128.424 177.961 146.441 145.441 146.441H98.127V50.4941H145.441ZM336.662 244H356.584V157.428H408.586C409.904 157.428 411.662 157.428 412.834 157.428L461.467 244H484.904L433.635 154.205C461.76 146.881 478.898 124.469 478.898 94.7324V94.4395C478.898 56.793 452.531 32.623 411.223 32.623H336.662V244ZM356.584 139.703V50.4941H408.879C439.494 50.4941 458.244 67.0469 458.244 94.8789V95.1719C458.244 123.297 440.227 139.703 409.611 139.703H356.584ZM601.564 244H621.486V32.623H601.564V244ZM818.859 247.369C865.295 247.369 894.885 223.932 894.885 187.75V187.604C894.885 156.402 877.307 139.557 833.947 129.889L810.803 124.615C780.188 117.877 766.418 105.865 766.418 86.2363V85.9434C766.418 63.2383 787.072 47.8574 817.541 47.8574C847.424 47.8574 867.785 63.0918 870.861 87.8477L871.008 89.752H891.076L890.93 87.7012C888.439 52.9844 858.85 29.2539 818.127 29.2539C776.232 29.2539 746.203 52.9844 746.057 86.5293V86.6758C746.057 116.705 764.514 134.43 805.529 143.658L828.674 148.785C861.193 156.109 874.377 167.682 874.377 188.482V188.629C874.377 213.092 852.99 228.766 819.885 228.766C786.486 228.766 763.928 213.238 760.998 188.922L760.852 186.871H740.783L740.93 188.922C743.566 224.664 774.035 247.369 818.859 247.369ZM1014.18 244H1032.93V70.2695H1033.96L1107.2 244H1124.63L1198.02 70.2695H1199.04V244H1217.79V32.623H1194.8L1116.43 218.805H1115.55L1037.18 32.623H1014.18V244Z" fill="black" fill-opacity="0.1" style="mix-blend-mode:multiply"/>
</g>
<g opacity="0.91">
<path d="M84.2051 244H104.127V164.312H156.129C196.412 164.312 223.951 137.652 223.951 98.3945V98.1016C223.951 58.8438 196.412 32.623 156.129 32.623H84.2051V244ZM151.441 50.4941C183.961 50.4941 203.59 68.5117 203.59 98.248V98.541C203.59 128.424 183.961 146.441 151.441 146.441H104.127V50.4941H151.441ZM342.662 244H362.584V157.428H414.586C415.904 157.428 417.662 157.428 418.834 157.428L467.467 244H490.904L439.635 154.205C467.76 146.881 484.898 124.469 484.898 94.7324V94.4395C484.898 56.793 458.531 32.623 417.223 32.623H342.662V244ZM362.584 139.703V50.4941H414.879C445.494 50.4941 464.244 67.0469 464.244 94.8789V95.1719C464.244 123.297 446.227 139.703 415.611 139.703H362.584ZM607.564 244H627.486V32.623H607.564V244ZM824.859 247.369C871.295 247.369 900.885 223.932 900.885 187.75V187.604C900.885 156.402 883.307 139.557 839.947 129.889L816.803 124.615C786.188 117.877 772.418 105.865 772.418 86.2363V85.9434C772.418 63.2383 793.072 47.8574 823.541 47.8574C853.424 47.8574 873.785 63.0918 876.861 87.8477L877.008 89.752H897.076L896.93 87.7012C894.439 52.9844 864.85 29.2539 824.127 29.2539C782.232 29.2539 752.203 52.9844 752.057 86.5293V86.6758C752.057 116.705 770.514 134.43 811.529 143.658L834.674 148.785C867.193 156.109 880.377 167.682 880.377 188.482V188.629C880.377 213.092 858.99 228.766 825.885 228.766C792.486 228.766 769.928 213.238 766.998 188.922L766.852 186.871H746.783L746.93 188.922C749.566 224.664 780.035 247.369 824.859 247.369ZM1020.18 244H1038.93V70.2695H1039.96L1113.2 244H1130.63L1204.02 70.2695H1205.04V244H1223.79V32.623H1200.8L1122.43 218.805H1121.55L1043.18 32.623H1020.18V244Z" fill="url(#paint14_linear_405_51)"/>
<path d="M84.2051 244H104.127V164.312H156.129C196.412 164.312 223.951 137.652 223.951 98.3945V98.1016C223.951 58.8438 196.412 32.623 156.129 32.623H84.2051V244ZM151.441 50.4941C183.961 50.4941 203.59 68.5117 203.59 98.248V98.541C203.59 128.424 183.961 146.441 151.441 146.441H104.127V50.4941H151.441ZM342.662 244H362.584V157.428H414.586C415.904 157.428 417.662 157.428 418.834 157.428L467.467 244H490.904L439.635 154.205C467.76 146.881 484.898 124.469 484.898 94.7324V94.4395C484.898 56.793 458.531 32.623 417.223 32.623H342.662V244ZM362.584 139.703V50.4941H414.879C445.494 50.4941 464.244 67.0469 464.244 94.8789V95.1719C464.244 123.297 446.227 139.703 415.611 139.703H362.584ZM607.564 244H627.486V32.623H607.564V244ZM824.859 247.369C871.295 247.369 900.885 223.932 900.885 187.75V187.604C900.885 156.402 883.307 139.557 839.947 129.889L816.803 124.615C786.188 117.877 772.418 105.865 772.418 86.2363V85.9434C772.418 63.2383 793.072 47.8574 823.541 47.8574C853.424 47.8574 873.785 63.0918 876.861 87.8477L877.008 89.752H897.076L896.93 87.7012C894.439 52.9844 864.85 29.2539 824.127 29.2539C782.232 29.2539 752.203 52.9844 752.057 86.5293V86.6758C752.057 116.705 770.514 134.43 811.529 143.658L834.674 148.785C867.193 156.109 880.377 167.682 880.377 188.482V188.629C880.377 213.092 858.99 228.766 825.885 228.766C792.486 228.766 769.928 213.238 766.998 188.922L766.852 186.871H746.783L746.93 188.922C749.566 224.664 780.035 247.369 824.859 247.369ZM1020.18 244H1038.93V70.2695H1039.96L1113.2 244H1130.63L1204.02 70.2695H1205.04V244H1223.79V32.623H1200.8L1122.43 218.805H1121.55L1043.18 32.623H1020.18V244Z" fill="url(#paint15_linear_405_51)" fill-opacity="0.4" style="mix-blend-mode:luminosity"/>
<path d="M84.2051 244H104.127V164.312H156.129C196.412 164.312 223.951 137.652 223.951 98.3945V98.1016C223.951 58.8438 196.412 32.623 156.129 32.623H84.2051V244ZM151.441 50.4941C183.961 50.4941 203.59 68.5117 203.59 98.248V98.541C203.59 128.424 183.961 146.441 151.441 146.441H104.127V50.4941H151.441ZM342.662 244H362.584V157.428H414.586C415.904 157.428 417.662 157.428 418.834 157.428L467.467 244H490.904L439.635 154.205C467.76 146.881 484.898 124.469 484.898 94.7324V94.4395C484.898 56.793 458.531 32.623 417.223 32.623H342.662V244ZM362.584 139.703V50.4941H414.879C445.494 50.4941 464.244 67.0469 464.244 94.8789V95.1719C464.244 123.297 446.227 139.703 415.611 139.703H362.584ZM607.564 244H627.486V32.623H607.564V244ZM824.859 247.369C871.295 247.369 900.885 223.932 900.885 187.75V187.604C900.885 156.402 883.307 139.557 839.947 129.889L816.803 124.615C786.188 117.877 772.418 105.865 772.418 86.2363V85.9434C772.418 63.2383 793.072 47.8574 823.541 47.8574C853.424 47.8574 873.785 63.0918 876.861 87.8477L877.008 89.752H897.076L896.93 87.7012C894.439 52.9844 864.85 29.2539 824.127 29.2539C782.232 29.2539 752.203 52.9844 752.057 86.5293V86.6758C752.057 116.705 770.514 134.43 811.529 143.658L834.674 148.785C867.193 156.109 880.377 167.682 880.377 188.482V188.629C880.377 213.092 858.99 228.766 825.885 228.766C792.486 228.766 769.928 213.238 766.998 188.922L766.852 186.871H746.783L746.93 188.922C749.566 224.664 780.035 247.369 824.859 247.369ZM1020.18 244H1038.93V70.2695H1039.96L1113.2 244H1130.63L1204.02 70.2695H1205.04V244H1223.79V32.623H1200.8L1122.43 218.805H1121.55L1043.18 32.623H1020.18V244Z" fill="black" fill-opacity="0.05" style="mix-blend-mode:multiply"/>
</g>
<path d="M90.2051 244H110.127V164.312H162.129C202.412 164.312 229.951 137.652 229.951 98.3945V98.1016C229.951 58.8438 202.412 32.623 162.129 32.623H90.2051V244ZM157.441 50.4941C189.961 50.4941 209.59 68.5117 209.59 98.248V98.541C209.59 128.424 189.961 146.441 157.441 146.441H110.127V50.4941H157.441ZM348.662 244H368.584V157.428H420.586C421.904 157.428 423.662 157.428 424.834 157.428L473.467 244H496.904L445.635 154.205C473.76 146.881 490.898 124.469 490.898 94.7324V94.4395C490.898 56.793 464.531 32.623 423.223 32.623H348.662V244ZM368.584 139.703V50.4941H420.879C451.494 50.4941 470.244 67.0469 470.244 94.8789V95.1719C470.244 123.297 452.227 139.703 421.611 139.703H368.584ZM613.564 244H633.486V32.623H613.564V244ZM830.859 247.369C877.295 247.369 906.885 223.932 906.885 187.75V187.604C906.885 156.402 889.307 139.557 845.947 129.889L822.803 124.615C792.188 117.877 778.418 105.865 778.418 86.2363V85.9434C778.418 63.2383 799.072 47.8574 829.541 47.8574C859.424 47.8574 879.785 63.0918 882.861 87.8477L883.008 89.752H903.076L902.93 87.7012C900.439 52.9844 870.85 29.2539 830.127 29.2539C788.232 29.2539 758.203 52.9844 758.057 86.5293V86.6758C758.057 116.705 776.514 134.43 817.529 143.658L840.674 148.785C873.193 156.109 886.377 167.682 886.377 188.482V188.629C886.377 213.092 864.99 228.766 831.885 228.766C798.486 228.766 775.928 213.238 772.998 188.922L772.852 186.871H752.783L752.93 188.922C755.566 224.664 786.035 247.369 830.859 247.369ZM1026.18 244H1044.93V70.2695H1045.96L1119.2 244H1136.63L1210.02 70.2695H1211.04V244H1229.79V32.623H1206.8L1128.43 218.805H1127.55L1049.18 32.623H1026.18V244Z" fill="url(#paint16_linear_405_51)"/>
<defs>
<filter id="filter0_d_405_51" x="24.1421" y="288.745" width="1212.18" height="61.0747" filterUnits="userSpaceOnUse" color-interpolation-filters="sRGB">
<feFlood flood-opacity="0" result="BackgroundImageFix"/>
<feColorMatrix in="SourceAlpha" type="matrix" values="0 0 0 0 0 0 0 0 0 0 0 0 0 0 0 0 0 0 127 0" result="hardAlpha"/>
<feOffset dy="4"/>
<feGaussianBlur stdDeviation="2"/>
<feComposite in2="hardAlpha" operator="out"/>
<feColorMatrix type="matrix" values="0 0 0 0 0 0 0 0 0 0 0 0 0 0 0 0 0 0 0.25 0"/>
<feBlend mode="normal" in2="BackgroundImageFix" result="effect1_dropShadow_405_51"/>
<feBlend mode="normal" in="SourceGraphic" in2="effect1_dropShadow_405_51" result="shape"/>
</filter>
<linearGradient id="paint0_linear_405_51" x1="25" y1="315.5" x2="1235" y2="315.499" gradientUnits="userSpaceOnUse">
<stop stop-color="#ED5858"/>
<stop offset="0.145833" stop-color="#FFB067"/>
<stop offset="0.286458" stop-color="#F9C716"/>
<stop offset="0.427083" stop-color="#B4F52B"/>
<stop offset="0.572917" stop-color="#43C4AD"/>
<stop offset="0.71875" stop-color="#766EAA"/>
<stop offset="0.859375" stop-color="#A63DA7"/>
<stop offset="1" stop-color="#A60D7B"/>
</linearGradient>
<linearGradient id="paint1_linear_405_51" x1="10" y1="137.5" x2="1190" y2="137.5" gradientUnits="userSpaceOnUse">
<stop stop-color="#ED5858"/>
<stop offset="0.145833" stop-color="#FFB067"/>
<stop offset="0.286458" stop-color="#F9C716"/>
<stop offset="0.427083" stop-color="#B4F52B"/>
<stop offset="0.572917" stop-color="#43C4AD"/>
<stop offset="0.71875" stop-color="#766EAA"/>
<stop offset="0.859375" stop-color="#A63DA7"/>
<stop offset="1" stop-color="#A60D7B"/>
</linearGradient>
<linearGradient id="paint2_linear_405_51" x1="16" y1="137.5" x2="1196" y2="137.5" gradientUnits="userSpaceOnUse">
<stop stop-color="#ED5858"/>
<stop offset="0.145833" stop-color="#FFB067"/>
<stop offset="0.286458" stop-color="#F9C716"/>
<stop offset="0.427083" stop-color="#B4F52B"/>
<stop offset="0.572917" stop-color="#43C4AD"/>
<stop offset="0.71875" stop-color="#766EAA"/>
<stop offset="0.859375" stop-color="#A63DA7"/>
<stop offset="1" stop-color="#A60D7B"/>
</linearGradient>
<linearGradient id="paint3_linear_405_51" x1="16" y1="137.5" x2="1196" y2="137.5" gradientUnits="userSpaceOnUse">
<stop/>
<stop offset="0.473958" stop-color="#909090"/>
<stop offset="0.583333" stop-color="white"/>
<stop offset="0.713542" stop-color="white"/>
<stop offset="0.796875" stop-color="#E2E2E2"/>
<stop offset="1" stop-color="white"/>
</linearGradient>
<linearGradient id="paint4_linear_405_51" x1="22" y1="137.5" x2="1202" y2="137.5" gradientUnits="userSpaceOnUse">
<stop stop-color="#ED5858"/>
<stop offset="0.145833" stop-color="#FFB067"/>
<stop offset="0.286458" stop-color="#F9C716"/>
<stop offset="0.427083" stop-color="#B4F52B"/>
<stop offset="0.572917" stop-color="#43C4AD"/>
<stop offset="0.71875" stop-color="#766EAA"/>
<stop offset="0.859375" stop-color="#A63DA7"/>
<stop offset="1" stop-color="#A60D7B"/>
</linearGradient>
<linearGradient id="paint5_linear_405_51" x1="28" y1="137.5" x2="1208" y2="137.5" gradientUnits="userSpaceOnUse">
<stop stop-color="#ED5858"/>
<stop offset="0.145833" stop-color="#FFB067"/>
<stop offset="0.286458" stop-color="#F9C716"/>
<stop offset="0.427083" stop-color="#B4F52B"/>
<stop offset="0.572917" stop-color="#43C4AD"/>
<stop offset="0.71875" stop-color="#766EAA"/>
<stop offset="0.859375" stop-color="#A63DA7"/>
<stop offset="1" stop-color="#A60D7B"/>
</linearGradient>
<linearGradient id="paint6_linear_405_51" x1="28" y1="137.5" x2="1208" y2="137.5" gradientUnits="userSpaceOnUse">
<stop/>
<stop offset="0.473958" stop-color="#909090"/>
<stop offset="0.583333" stop-color="white"/>
<stop offset="0.713542" stop-color="white"/>
<stop offset="0.796875" stop-color="#E2E2E2"/>
<stop offset="1" stop-color="white"/>
</linearGradient>
<linearGradient id="paint7_linear_405_51" x1="34" y1="137.5" x2="1214" y2="137.5" gradientUnits="userSpaceOnUse">
<stop stop-color="#ED5858"/>
<stop offset="0.145833" stop-color="#FFB067"/>
<stop offset="0.286458" stop-color="#F9C716"/>
<stop offset="0.427083" stop-color="#B4F52B"/>
<stop offset="0.572917" stop-color="#43C4AD"/>
<stop offset="0.71875" stop-color="#766EAA"/>
<stop offset="0.859375" stop-color="#A63DA7"/>
<stop offset="1" stop-color="#A60D7B"/>
</linearGradient>
<linearGradient id="paint8_linear_405_51" x1="40" y1="137.5" x2="1220" y2="137.5" gradientUnits="userSpaceOnUse">
<stop stop-color="#ED5858"/>
<stop offset="0.145833" stop-color="#FFB067"/>
<stop offset="0.286458" stop-color="#F9C716"/>
<stop offset="0.427083" stop-color="#B4F52B"/>
<stop offset="0.572917" stop-color="#43C4AD"/>
<stop offset="0.71875" stop-color="#766EAA"/>
<stop offset="0.859375" stop-color="#A63DA7"/>
<stop offset="1" stop-color="#A60D7B"/>
</linearGradient>
<linearGradient id="paint9_linear_405_51" x1="40" y1="137.5" x2="1220" y2="137.5" gradientUnits="userSpaceOnUse">
<stop/>
<stop offset="0.473958" stop-color="#909090"/>
<stop offset="0.583333" stop-color="white"/>
<stop offset="0.713542" stop-color="white"/>
<stop offset="0.796875" stop-color="#E2E2E2"/>
<stop offset="1" stop-color="white"/>
</linearGradient>
<linearGradient id="paint10_linear_405_51" x1="46" y1="137.5" x2="1226" y2="137.5" gradientUnits="userSpaceOnUse">
<stop stop-color="#ED5858"/>
<stop offset="0.145833" stop-color="#FFB067"/>
<stop offset="0.286458" stop-color="#F9C716"/>
<stop offset="0.427083" stop-color="#B4F52B"/>
<stop offset="0.572917" stop-color="#43C4AD"/>
<stop offset="0.71875" stop-color="#766EAA"/>
<stop offset="0.859375" stop-color="#A63DA7"/>
<stop offset="1" stop-color="#A60D7B"/>
</linearGradient>
<linearGradient id="paint11_linear_405_51" x1="52" y1="137.5" x2="1232" y2="137.5" gradientUnits="userSpaceOnUse">
<stop stop-color="#ED5858"/>
<stop offset="0.145833" stop-color="#FFB067"/>
<stop offset="0.286458" stop-color="#F9C716"/>
<stop offset="0.427083" stop-color="#B4F52B"/>
<stop offset="0.572917" stop-color="#43C4AD"/>
<stop offset="0.71875" stop-color="#766EAA"/>
<stop offset="0.859375" stop-color="#A63DA7"/>
<stop offset="1" stop-color="#A60D7B"/>
</linearGradient>
<linearGradient id="paint12_linear_405_51" x1="52" y1="137.5" x2="1232" y2="137.5" gradientUnits="userSpaceOnUse">
<stop/>
<stop offset="0.473958" stop-color="#909090"/>
<stop offset="0.583333" stop-color="white"/>
<stop offset="0.713542" stop-color="white"/>
<stop offset="0.796875" stop-color="#E2E2E2"/>
<stop offset="1" stop-color="white"/>
</linearGradient>
<linearGradient id="paint13_linear_405_51" x1="58" y1="137.5" x2="1238" y2="137.5" gradientUnits="userSpaceOnUse">
<stop stop-color="#ED5858"/>
<stop offset="0.145833" stop-color="#FFB067"/>
<stop offset="0.286458" stop-color="#F9C716"/>
<stop offset="0.427083" stop-color="#B4F52B"/>
<stop offset="0.572917" stop-color="#43C4AD"/>
<stop offset="0.71875" stop-color="#766EAA"/>
<stop offset="0.859375" stop-color="#A63DA7"/>
<stop offset="1" stop-color="#A60D7B"/>
</linearGradient>
<linearGradient id="paint14_linear_405_51" x1="64" y1="137.5" x2="1244" y2="137.5" gradientUnits="userSpaceOnUse">
<stop stop-color="#ED5858"/>
<stop offset="0.145833" stop-color="#FFB067"/>
<stop offset="0.286458" stop-color="#F9C716"/>
<stop offset="0.427083" stop-color="#B4F52B"/>
<stop offset="0.572917" stop-color="#43C4AD"/>
<stop offset="0.71875" stop-color="#766EAA"/>
<stop offset="0.859375" stop-color="#A63DA7"/>
<stop offset="1" stop-color="#A60D7B"/>
</linearGradient>
<linearGradient id="paint15_linear_405_51" x1="64" y1="137.5" x2="1244" y2="137.5" gradientUnits="userSpaceOnUse">
<stop/>
<stop offset="0.473958" stop-color="#909090"/>
<stop offset="0.583333" stop-color="white"/>
<stop offset="0.713542" stop-color="white"/>
<stop offset="0.796875" stop-color="#E2E2E2"/>
<stop offset="1" stop-color="white"/>
</linearGradient>
<linearGradient id="paint16_linear_405_51" x1="70" y1="137.5" x2="1250" y2="137.5" gradientUnits="userSpaceOnUse">
<stop stop-color="#ED5858"/>
<stop offset="0.145833" stop-color="#FFB067"/>
<stop offset="0.286458" stop-color="#F9C716"/>
<stop offset="0.427083" stop-color="#B4F52B"/>
<stop offset="0.572917" stop-color="#43C4AD"/>
<stop offset="0.71875" stop-color="#766EAA"/>
<stop offset="0.859375" stop-color="#A63DA7"/>
<stop offset="1" stop-color="#A60D7B"/>
</linearGradient>
</defs>
</svg>
