<svg width="1911" height="469" viewBox="0 0 1911 469" fill="none" xmlns="http://www.w3.org/2000/svg">
<rect width="1911" height="469" rx="15" fill="#1C1C1C"/>
<g filter="url(#filter0_d_201_76)">
<path d="M376.382 406.82C387.076 406.82 394.917 400.333 396.842 390.637L396.914 390.281H392.03L391.923 390.602C389.785 397.909 384.367 402.293 376.382 402.293C365.333 402.293 358.132 393.596 358.132 380.265V380.229C358.132 366.862 365.261 358.272 376.382 358.272C384.402 358.272 389.856 362.692 391.816 369.643L392.03 370.284H396.914L396.842 369.928C394.917 360.304 387.04 353.745 376.382 353.745C362.196 353.745 353.142 364.082 353.142 380.229V380.265C353.142 396.376 362.267 406.82 376.382 406.82ZM418.407 406.677C428.495 406.677 435.303 399.263 435.303 387.465V387.394C435.303 375.595 428.459 368.252 418.407 368.252C408.32 368.252 401.512 375.631 401.512 387.394V387.465C401.512 399.228 408.284 406.642 418.407 406.677ZM418.443 402.471C411.136 402.436 406.359 396.875 406.359 387.465V387.394C406.359 378.055 411.171 372.458 418.407 372.458C425.643 372.458 430.491 378.019 430.491 387.394V387.465C430.491 396.839 425.679 402.471 418.443 402.471ZM441.897 406H446.602V354.565H441.897V406ZM470.092 406.677C480.179 406.677 486.987 399.263 486.987 387.465V387.394C486.987 375.595 480.144 368.252 470.092 368.252C460.004 368.252 453.196 375.631 453.196 387.394V387.465C453.196 399.228 459.969 406.642 470.092 406.677ZM470.127 402.471C462.82 402.436 458.044 396.875 458.044 387.465V387.394C458.044 378.055 462.856 372.458 470.092 372.458C477.328 372.458 482.175 378.019 482.175 387.394V387.465C482.175 396.839 477.363 402.471 470.127 402.471ZM493.261 406H497.966V383.045C497.966 376.771 501.316 372.779 506.592 372.779C508.196 372.779 509.515 373.029 510.121 373.278V368.68C509.55 368.502 508.445 368.252 507.198 368.252C502.707 368.252 499.427 371.068 498.108 375.595H497.966V368.93H493.261V406ZM528.085 406.677C536.105 406.677 542.022 402.079 543.306 395.734L543.377 395.378H538.708L538.636 395.699C537.424 399.727 533.646 402.471 528.192 402.471C520.885 402.471 516.145 397.445 516.002 388.605H543.84V386.752C543.84 375.667 537.603 368.252 527.693 368.252C517.784 368.252 511.226 375.916 511.226 387.536V387.572C511.226 399.299 517.677 406.677 528.085 406.677ZM527.658 372.458C534.002 372.458 538.565 376.771 539.1 384.863H516.073C516.644 376.985 521.349 372.458 527.658 372.458ZM563.979 406.677C569.825 406.677 574.459 403.398 576.598 398.301H576.74V406H581.481V354.565H576.74V376.665H576.633C574.53 371.532 569.754 368.252 563.944 368.252C554.676 368.252 548.296 375.845 548.296 387.429V387.465C548.296 399.049 554.641 406.677 563.979 406.677ZM564.871 402.471C557.742 402.471 553.144 396.625 553.144 387.465V387.429C553.144 378.34 557.742 372.458 564.871 372.458C571.786 372.458 576.776 378.518 576.776 387.429V387.465C576.776 396.412 571.857 402.471 564.871 402.471ZM615.949 406.677C617.09 406.677 618.302 406.535 619.05 406.392V402.542C618.516 402.614 617.767 402.721 616.912 402.721C613.454 402.721 611.708 401.331 611.708 397.231V372.886H619.05V368.93H611.708V358.914H606.86V368.93H601.406V372.886H606.86V397.303C606.86 403.79 609.854 406.677 615.949 406.677ZM639.368 406.677C647.388 406.677 653.305 402.079 654.588 395.734L654.659 395.378H649.99L649.918 395.699C648.707 399.727 644.928 402.471 639.475 402.471C632.167 402.471 627.427 397.445 627.284 388.605H655.123V386.752C655.123 375.667 648.885 368.252 638.976 368.252C629.066 368.252 622.508 375.916 622.508 387.536V387.572C622.508 399.299 628.959 406.677 639.368 406.677ZM638.94 372.458C645.285 372.458 649.847 376.771 650.382 384.863H627.355C627.926 376.985 632.631 372.458 638.94 372.458ZM657.653 406H662.964L673.159 390.78H673.266L683.424 406H688.735L675.903 387.18L688.878 368.93H683.531L673.444 383.793H673.301L663.143 368.93H657.796L670.699 387.358L657.653 406ZM704.775 406.677C705.916 406.677 707.128 406.535 707.876 406.392V402.542C707.342 402.614 706.593 402.721 705.738 402.721C702.28 402.721 700.534 401.331 700.534 397.231V372.886H707.876V368.93H700.534V358.914H695.686V368.93H690.232V372.886H695.686V397.303C695.686 403.79 698.68 406.677 704.775 406.677ZM731.366 406H736.071V372.886H744.02V368.93H736.036V363.761C736.036 359.662 737.996 357.844 741.596 357.844C742.559 357.844 743.485 357.916 744.27 358.058V354.173C743.45 354.03 742.131 353.888 740.812 353.888C734.61 353.888 731.366 356.989 731.366 363.69V368.93H726.198V372.886H731.366V406ZM761.878 406.677C771.965 406.677 778.773 399.263 778.773 387.465V387.394C778.773 375.595 771.93 368.252 761.878 368.252C751.791 368.252 744.982 375.631 744.982 387.394V387.465C744.982 399.228 751.755 406.642 761.878 406.677ZM761.914 402.471C754.606 402.436 749.83 396.875 749.83 387.465V387.394C749.83 378.055 754.642 372.458 761.878 372.458C769.114 372.458 773.961 378.019 773.961 387.394V387.465C773.961 396.839 769.149 402.471 761.914 402.471ZM785.047 406H789.752V383.045C789.752 376.771 793.103 372.779 798.378 372.779C799.982 372.779 801.301 373.029 801.907 373.278V368.68C801.336 368.502 800.231 368.252 798.984 368.252C794.493 368.252 791.213 371.068 789.895 375.595H789.752V368.93H785.047V406ZM839.227 406.82C850.526 406.82 857.726 401.117 857.726 392.312V392.277C857.726 384.685 853.449 380.585 842.898 378.233L837.266 376.95C829.816 375.31 826.466 372.387 826.466 367.611V367.54C826.466 362.015 831.492 358.272 838.906 358.272C846.177 358.272 851.132 361.979 851.88 368.003L851.916 368.466H856.799L856.764 367.967C856.158 359.52 848.958 353.745 839.048 353.745C828.854 353.745 821.547 359.52 821.511 367.682V367.718C821.511 375.025 826.002 379.338 835.983 381.583L841.615 382.831C849.528 384.613 852.736 387.429 852.736 392.491V392.526C852.736 398.479 847.532 402.293 839.476 402.293C831.349 402.293 825.86 398.515 825.147 392.598L825.111 392.099H820.228L820.264 392.598C820.905 401.295 828.319 406.82 839.227 406.82ZM871.485 406H876.475L885.671 375.239H885.778L895.01 406H900L910.516 368.93H905.775L897.47 400.725H897.363L888.131 368.93H883.354L874.123 400.725H874.016L865.71 368.93H860.934L871.485 406ZM918.037 362.229C919.748 362.229 921.138 360.838 921.138 359.092C921.138 357.345 919.748 355.991 918.037 355.991C916.29 355.991 914.9 357.345 914.9 359.092C914.9 360.838 916.29 362.229 918.037 362.229ZM915.648 406H920.389V368.93H915.648V406ZM930.833 406H935.538V372.886H943.487V368.93H935.502V363.761C935.502 359.662 937.463 357.844 941.063 357.844C942.025 357.844 942.952 357.916 943.736 358.058V354.173C942.917 354.03 941.598 353.888 940.279 353.888C934.077 353.888 930.833 356.989 930.833 363.69V368.93H925.665V372.886H930.833V406ZM960.917 406.677C962.058 406.677 963.27 406.535 964.018 406.392V402.542C963.483 402.614 962.735 402.721 961.879 402.721C958.422 402.721 956.675 401.331 956.675 397.231V372.886H964.018V368.93H956.675V358.914H951.828V368.93H946.374V372.886H951.828V397.303C951.828 403.79 954.822 406.677 960.917 406.677ZM1000.59 406.677C1008.68 406.677 1014.63 401.58 1015.74 394.665L1015.77 394.38H1011.1L1011.03 394.665C1009.93 399.299 1006.11 402.471 1000.59 402.471C993.389 402.471 988.577 396.839 988.577 387.5V387.465C988.577 378.269 993.318 372.458 1000.55 372.458C1006.33 372.458 1010 375.916 1011.03 380.265L1011.1 380.55H1015.74L1015.7 380.229C1014.78 373.849 1009.18 368.252 1000.55 368.252C990.395 368.252 983.729 375.738 983.729 387.394V387.429C983.729 399.228 990.288 406.677 1000.59 406.677ZM1036.7 406.677C1046.78 406.677 1053.59 399.263 1053.59 387.465V387.394C1053.59 375.595 1046.75 368.252 1036.7 368.252C1026.61 368.252 1019.8 375.631 1019.8 387.394V387.465C1019.8 399.228 1026.57 406.642 1036.7 406.677ZM1036.73 402.471C1029.43 402.436 1024.65 396.875 1024.65 387.465V387.394C1024.65 378.055 1029.46 372.458 1036.7 372.458C1043.93 372.458 1048.78 378.019 1048.78 387.394V387.465C1048.78 396.839 1043.97 402.471 1036.73 402.471ZM1059.87 406H1064.57V383.223C1064.57 376.878 1068.49 372.494 1073.95 372.494C1079.01 372.494 1082.43 375.987 1082.43 381.298V406H1087.17V382.653C1087.17 376.7 1090.95 372.494 1096.44 372.494C1101.82 372.494 1105.03 375.952 1105.03 381.726V406H1109.73V380.657C1109.73 373.136 1104.99 368.288 1097.72 368.288C1092.09 368.288 1087.85 371.532 1086.06 376.13H1085.96C1084.57 371.425 1080.65 368.288 1075.23 368.288C1070.02 368.288 1066.25 371.211 1064.71 375.31H1064.57V368.93H1059.87V406ZM1117.68 406H1122.39V383.223C1122.39 376.878 1126.31 372.494 1131.76 372.494C1136.82 372.494 1140.24 375.987 1140.24 381.298V406H1144.99V382.653C1144.99 376.7 1148.76 372.494 1154.25 372.494C1159.64 372.494 1162.84 375.952 1162.84 381.726V406H1167.55V380.657C1167.55 373.136 1162.81 368.288 1155.54 368.288C1149.9 368.288 1145.66 371.532 1143.88 376.13H1143.77C1142.38 371.425 1138.46 368.288 1133.04 368.288C1127.84 368.288 1124.06 371.211 1122.53 375.31H1122.39V368.93H1117.68V406ZM1186.48 406.677C1191.96 406.677 1196.85 403.647 1198.88 399.228H1199.02V406H1203.73V380.621C1203.73 373.029 1198.42 368.252 1189.93 368.252C1181.56 368.252 1176.28 372.815 1175.57 379.195L1175.53 379.623H1180.1L1180.17 379.267C1180.95 375.061 1184.48 372.458 1189.86 372.458C1195.64 372.458 1199.02 375.702 1199.02 381.049V384.257L1187.47 384.97C1178.95 385.54 1174.18 389.354 1174.18 395.663V395.734C1174.18 402.293 1179.17 406.677 1186.48 406.677ZM1178.99 395.734V395.663C1178.99 391.6 1182.23 389.069 1188.04 388.712L1199.02 387.964V392.063C1199.02 397.98 1193.93 402.542 1187.44 402.542C1182.41 402.542 1178.99 399.798 1178.99 395.734ZM1211.64 406H1216.35V384.043C1216.35 377.128 1220.66 372.494 1227.11 372.494C1233.42 372.494 1236.84 376.166 1236.84 383.045V406H1241.55V382.261C1241.55 373.563 1236.7 368.288 1228.5 368.288C1222.51 368.288 1218.34 371.247 1216.49 375.239H1216.35V368.93H1211.64V406ZM1263.33 406.677C1269.17 406.677 1273.8 403.398 1275.94 398.301H1276.09V406H1280.83V354.565H1276.09V376.665H1275.98C1273.88 371.532 1269.1 368.252 1263.29 368.252C1254.02 368.252 1247.64 375.845 1247.64 387.429V387.465C1247.64 399.049 1253.99 406.677 1263.33 406.677ZM1264.22 402.471C1257.09 402.471 1252.49 396.625 1252.49 387.465V387.429C1252.49 378.34 1257.09 372.458 1264.22 372.458C1271.13 372.458 1276.12 378.518 1276.12 387.429V387.465C1276.12 396.412 1271.2 402.471 1264.22 402.471ZM1304.57 406H1309.27V354.565H1304.57V406ZM1320.46 362.229C1322.17 362.229 1323.56 360.838 1323.56 359.092C1323.56 357.345 1322.17 355.991 1320.46 355.991C1318.72 355.991 1317.33 357.345 1317.33 359.092C1317.33 360.838 1318.72 362.229 1320.46 362.229ZM1318.08 406H1322.82V368.93H1318.08V406ZM1331.33 406H1336.04V384.043C1336.04 377.128 1340.35 372.494 1346.8 372.494C1353.11 372.494 1356.54 376.166 1356.54 383.045V406H1361.24V382.261C1361.24 373.563 1356.39 368.288 1348.19 368.288C1342.21 368.288 1338.04 371.247 1336.18 375.239H1336.04V368.93H1331.33V406ZM1384.2 406.677C1392.22 406.677 1398.13 402.079 1399.42 395.734L1399.49 395.378H1394.82L1394.75 395.699C1393.53 399.727 1389.76 402.471 1384.3 402.471C1377 402.471 1372.25 397.445 1372.11 388.605H1399.95V386.752C1399.95 375.667 1393.71 368.252 1383.8 368.252C1373.89 368.252 1367.34 375.916 1367.34 387.536V387.572C1367.34 399.299 1373.79 406.677 1384.2 406.677ZM1383.77 372.458C1390.11 372.458 1394.68 376.771 1395.21 384.863H1372.18C1372.75 376.985 1377.46 372.458 1383.77 372.458ZM1432.28 406.677C1433.42 406.677 1434.63 406.535 1435.38 406.392V402.542C1434.85 402.614 1434.1 402.721 1433.24 402.721C1429.79 402.721 1428.04 401.331 1428.04 397.231V372.886H1435.38V368.93H1428.04V358.914H1423.19V368.93H1417.74V372.886H1423.19V397.303C1423.19 403.79 1426.19 406.677 1432.28 406.677ZM1455.73 406.677C1465.82 406.677 1472.63 399.263 1472.63 387.465V387.394C1472.63 375.595 1465.79 368.252 1455.73 368.252C1445.65 368.252 1438.84 375.631 1438.84 387.394V387.465C1438.84 399.228 1445.61 406.642 1455.73 406.677ZM1455.77 402.471C1448.46 402.436 1443.69 396.875 1443.69 387.465V387.394C1443.69 378.055 1448.5 372.458 1455.73 372.458C1462.97 372.458 1467.82 378.019 1467.82 387.394V387.465C1467.82 396.839 1463.01 402.471 1455.77 402.471ZM1493.95 406.677C1504.03 406.677 1510.84 399.263 1510.84 387.465V387.394C1510.84 375.595 1504 368.252 1493.95 368.252C1483.86 368.252 1477.05 375.631 1477.05 387.394V387.465C1477.05 399.228 1483.82 406.642 1493.95 406.677ZM1493.98 402.471C1486.67 402.436 1481.9 396.875 1481.9 387.465V387.394C1481.9 378.055 1486.71 372.458 1493.95 372.458C1501.18 372.458 1506.03 378.019 1506.03 387.394V387.465C1506.03 396.839 1501.22 402.471 1493.98 402.471ZM1517.44 406H1522.14V354.565H1517.44V406ZM1543.31 406.677C1551.44 406.677 1557.32 402.222 1557.32 395.913V395.877C1557.32 390.673 1554.51 387.786 1547.13 386.003L1541.53 384.685C1536.65 383.508 1534.65 381.619 1534.65 378.661V378.625C1534.65 374.847 1538 372.245 1543.03 372.245C1548.2 372.245 1551.48 375.061 1552.08 379.374L1552.12 379.623H1556.64L1556.61 379.231C1556 372.851 1550.94 368.252 1543.03 368.252C1535.29 368.252 1529.84 372.637 1529.84 378.803V378.839C1529.84 383.972 1533.19 387.037 1540.18 388.712L1545.77 390.067C1550.73 391.243 1552.51 392.99 1552.51 396.198V396.233C1552.51 400.119 1548.94 402.685 1543.35 402.685C1537.75 402.685 1534.29 399.905 1533.55 395.627L1533.48 395.307H1528.77L1528.81 395.627C1529.52 402.186 1534.9 406.677 1543.31 406.677Z" fill="url(#paint0_linear_201_76)"/>
</g>
<path d="M354.775 309H374.697V229.312H426.699C466.982 229.312 494.521 202.652 494.521 163.395V163.102C494.521 123.844 466.982 97.623 426.699 97.623H354.775V309ZM422.012 115.494C454.531 115.494 474.16 133.512 474.16 163.248V163.541C474.16 193.424 454.531 211.441 422.012 211.441H374.697V115.494H422.012ZM613.232 309H633.154V222.428H685.156C686.475 222.428 688.232 222.428 689.404 222.428L738.037 309H761.475L710.205 219.205C738.33 211.881 755.469 189.469 755.469 159.732V159.439C755.469 121.793 729.102 97.623 687.793 97.623H613.232V309ZM633.154 204.703V115.494H685.449C716.064 115.494 734.814 132.047 734.814 159.879V160.172C734.814 188.297 716.797 204.703 686.182 204.703H633.154ZM878.135 309H898.057V97.623H878.135V309ZM1095.43 312.369C1141.87 312.369 1171.46 288.932 1171.46 252.75V252.604C1171.46 221.402 1153.88 204.557 1110.52 194.889L1087.37 189.615C1056.76 182.877 1042.99 170.865 1042.99 151.236V150.943C1042.99 128.238 1063.64 112.857 1094.11 112.857C1123.99 112.857 1144.36 128.092 1147.43 152.848L1147.58 154.752H1167.65L1167.5 152.701C1165.01 117.984 1135.42 94.2539 1094.7 94.2539C1052.8 94.2539 1022.77 117.984 1022.63 151.529V151.676C1022.63 181.705 1041.08 199.43 1082.1 208.658L1105.24 213.785C1137.76 221.109 1150.95 232.682 1150.95 253.482V253.629C1150.95 278.092 1129.56 293.766 1096.46 293.766C1063.06 293.766 1040.5 278.238 1037.57 253.922L1037.42 251.871H1017.35L1017.5 253.922C1020.14 289.664 1050.61 312.369 1095.43 312.369ZM1290.75 309H1309.5V135.27H1310.53L1383.77 309H1401.2L1474.59 135.27H1475.62V309H1494.37V97.623H1471.37L1393 283.805H1392.12L1313.75 97.623H1290.75V309Z" fill="url(#paint1_linear_201_76)"/>
<path d="M354.775 309H374.697V229.312H426.699C466.982 229.312 494.521 202.652 494.521 163.395V163.102C494.521 123.844 466.982 97.623 426.699 97.623H354.775V309ZM422.012 115.494C454.531 115.494 474.16 133.512 474.16 163.248V163.541C474.16 193.424 454.531 211.441 422.012 211.441H374.697V115.494H422.012ZM613.232 309H633.154V222.428H685.156C686.475 222.428 688.232 222.428 689.404 222.428L738.037 309H761.475L710.205 219.205C738.33 211.881 755.469 189.469 755.469 159.732V159.439C755.469 121.793 729.102 97.623 687.793 97.623H613.232V309ZM633.154 204.703V115.494H685.449C716.064 115.494 734.814 132.047 734.814 159.879V160.172C734.814 188.297 716.797 204.703 686.182 204.703H633.154ZM878.135 309H898.057V97.623H878.135V309ZM1095.43 312.369C1141.87 312.369 1171.46 288.932 1171.46 252.75V252.604C1171.46 221.402 1153.88 204.557 1110.52 194.889L1087.37 189.615C1056.76 182.877 1042.99 170.865 1042.99 151.236V150.943C1042.99 128.238 1063.64 112.857 1094.11 112.857C1123.99 112.857 1144.36 128.092 1147.43 152.848L1147.58 154.752H1167.65L1167.5 152.701C1165.01 117.984 1135.42 94.2539 1094.7 94.2539C1052.8 94.2539 1022.77 117.984 1022.63 151.529V151.676C1022.63 181.705 1041.08 199.43 1082.1 208.658L1105.24 213.785C1137.76 221.109 1150.95 232.682 1150.95 253.482V253.629C1150.95 278.092 1129.56 293.766 1096.46 293.766C1063.06 293.766 1040.5 278.238 1037.57 253.922L1037.42 251.871H1017.35L1017.5 253.922C1020.14 289.664 1050.61 312.369 1095.43 312.369ZM1290.75 309H1309.5V135.27H1310.53L1383.77 309H1401.2L1474.59 135.27H1475.62V309H1494.37V97.623H1471.37L1393 283.805H1392.12L1313.75 97.623H1290.75V309Z" fill="black" fill-opacity="0.5" style="mix-blend-mode:multiply"/>
<g opacity="0.91">
<path d="M360.775 309H380.697V229.312H432.699C472.982 229.312 500.521 202.652 500.521 163.395V163.102C500.521 123.844 472.982 97.623 432.699 97.623H360.775V309ZM428.012 115.494C460.531 115.494 480.16 133.512 480.16 163.248V163.541C480.16 193.424 460.531 211.441 428.012 211.441H380.697V115.494H428.012ZM619.232 309H639.154V222.428H691.156C692.475 222.428 694.232 222.428 695.404 222.428L744.037 309H767.475L716.205 219.205C744.33 211.881 761.469 189.469 761.469 159.732V159.439C761.469 121.793 735.102 97.623 693.793 97.623H619.232V309ZM639.154 204.703V115.494H691.449C722.064 115.494 740.814 132.047 740.814 159.879V160.172C740.814 188.297 722.797 204.703 692.182 204.703H639.154ZM884.135 309H904.057V97.623H884.135V309ZM1101.43 312.369C1147.87 312.369 1177.46 288.932 1177.46 252.75V252.604C1177.46 221.402 1159.88 204.557 1116.52 194.889L1093.37 189.615C1062.76 182.877 1048.99 170.865 1048.99 151.236V150.943C1048.99 128.238 1069.64 112.857 1100.11 112.857C1129.99 112.857 1150.36 128.092 1153.43 152.848L1153.58 154.752H1173.65L1173.5 152.701C1171.01 117.984 1141.42 94.2539 1100.7 94.2539C1058.8 94.2539 1028.77 117.984 1028.63 151.529V151.676C1028.63 181.705 1047.08 199.43 1088.1 208.658L1111.24 213.785C1143.76 221.109 1156.95 232.682 1156.95 253.482V253.629C1156.95 278.092 1135.56 293.766 1102.46 293.766C1069.06 293.766 1046.5 278.238 1043.57 253.922L1043.42 251.871H1023.35L1023.5 253.922C1026.14 289.664 1056.61 312.369 1101.43 312.369ZM1296.75 309H1315.5V135.27H1316.53L1389.77 309H1407.2L1480.59 135.27H1481.62V309H1500.37V97.623H1477.37L1399 283.805H1398.12L1319.75 97.623H1296.75V309Z" fill="url(#paint2_linear_201_76)"/>
<path d="M360.775 309H380.697V229.312H432.699C472.982 229.312 500.521 202.652 500.521 163.395V163.102C500.521 123.844 472.982 97.623 432.699 97.623H360.775V309ZM428.012 115.494C460.531 115.494 480.16 133.512 480.16 163.248V163.541C480.16 193.424 460.531 211.441 428.012 211.441H380.697V115.494H428.012ZM619.232 309H639.154V222.428H691.156C692.475 222.428 694.232 222.428 695.404 222.428L744.037 309H767.475L716.205 219.205C744.33 211.881 761.469 189.469 761.469 159.732V159.439C761.469 121.793 735.102 97.623 693.793 97.623H619.232V309ZM639.154 204.703V115.494H691.449C722.064 115.494 740.814 132.047 740.814 159.879V160.172C740.814 188.297 722.797 204.703 692.182 204.703H639.154ZM884.135 309H904.057V97.623H884.135V309ZM1101.43 312.369C1147.87 312.369 1177.46 288.932 1177.46 252.75V252.604C1177.46 221.402 1159.88 204.557 1116.52 194.889L1093.37 189.615C1062.76 182.877 1048.99 170.865 1048.99 151.236V150.943C1048.99 128.238 1069.64 112.857 1100.11 112.857C1129.99 112.857 1150.36 128.092 1153.43 152.848L1153.58 154.752H1173.65L1173.5 152.701C1171.01 117.984 1141.42 94.2539 1100.7 94.2539C1058.8 94.2539 1028.77 117.984 1028.63 151.529V151.676C1028.63 181.705 1047.08 199.43 1088.1 208.658L1111.24 213.785C1143.76 221.109 1156.95 232.682 1156.95 253.482V253.629C1156.95 278.092 1135.56 293.766 1102.46 293.766C1069.06 293.766 1046.5 278.238 1043.57 253.922L1043.42 251.871H1023.35L1023.5 253.922C1026.14 289.664 1056.61 312.369 1101.43 312.369ZM1296.75 309H1315.5V135.27H1316.53L1389.77 309H1407.2L1480.59 135.27H1481.62V309H1500.37V97.623H1477.37L1399 283.805H1398.12L1319.75 97.623H1296.75V309Z" fill="url(#paint3_linear_201_76)" fill-opacity="0.4" style="mix-blend-mode:luminosity"/>
<path d="M360.775 309H380.697V229.312H432.699C472.982 229.312 500.521 202.652 500.521 163.395V163.102C500.521 123.844 472.982 97.623 432.699 97.623H360.775V309ZM428.012 115.494C460.531 115.494 480.16 133.512 480.16 163.248V163.541C480.16 193.424 460.531 211.441 428.012 211.441H380.697V115.494H428.012ZM619.232 309H639.154V222.428H691.156C692.475 222.428 694.232 222.428 695.404 222.428L744.037 309H767.475L716.205 219.205C744.33 211.881 761.469 189.469 761.469 159.732V159.439C761.469 121.793 735.102 97.623 693.793 97.623H619.232V309ZM639.154 204.703V115.494H691.449C722.064 115.494 740.814 132.047 740.814 159.879V160.172C740.814 188.297 722.797 204.703 692.182 204.703H639.154ZM884.135 309H904.057V97.623H884.135V309ZM1101.43 312.369C1147.87 312.369 1177.46 288.932 1177.46 252.75V252.604C1177.46 221.402 1159.88 204.557 1116.52 194.889L1093.37 189.615C1062.76 182.877 1048.99 170.865 1048.99 151.236V150.943C1048.99 128.238 1069.64 112.857 1100.11 112.857C1129.99 112.857 1150.36 128.092 1153.43 152.848L1153.58 154.752H1173.65L1173.5 152.701C1171.01 117.984 1141.42 94.2539 1100.7 94.2539C1058.8 94.2539 1028.77 117.984 1028.63 151.529V151.676C1028.63 181.705 1047.08 199.43 1088.1 208.658L1111.24 213.785C1143.76 221.109 1156.95 232.682 1156.95 253.482V253.629C1156.95 278.092 1135.56 293.766 1102.46 293.766C1069.06 293.766 1046.5 278.238 1043.57 253.922L1043.42 251.871H1023.35L1023.5 253.922C1026.14 289.664 1056.61 312.369 1101.43 312.369ZM1296.75 309H1315.5V135.27H1316.53L1389.77 309H1407.2L1480.59 135.27H1481.62V309H1500.37V97.623H1477.37L1399 283.805H1398.12L1319.75 97.623H1296.75V309Z" fill="black" fill-opacity="0.45" style="mix-blend-mode:multiply"/>
</g>
<g opacity="0.82">
<path d="M366.775 309H386.697V229.312H438.699C478.982 229.312 506.521 202.652 506.521 163.395V163.102C506.521 123.844 478.982 97.623 438.699 97.623H366.775V309ZM434.012 115.494C466.531 115.494 486.16 133.512 486.16 163.248V163.541C486.16 193.424 466.531 211.441 434.012 211.441H386.697V115.494H434.012ZM625.232 309H645.154V222.428H697.156C698.475 222.428 700.232 222.428 701.404 222.428L750.037 309H773.475L722.205 219.205C750.33 211.881 767.469 189.469 767.469 159.732V159.439C767.469 121.793 741.102 97.623 699.793 97.623H625.232V309ZM645.154 204.703V115.494H697.449C728.064 115.494 746.814 132.047 746.814 159.879V160.172C746.814 188.297 728.797 204.703 698.182 204.703H645.154ZM890.135 309H910.057V97.623H890.135V309ZM1107.43 312.369C1153.87 312.369 1183.46 288.932 1183.46 252.75V252.604C1183.46 221.402 1165.88 204.557 1122.52 194.889L1099.37 189.615C1068.76 182.877 1054.99 170.865 1054.99 151.236V150.943C1054.99 128.238 1075.64 112.857 1106.11 112.857C1135.99 112.857 1156.36 128.092 1159.43 152.848L1159.58 154.752H1179.65L1179.5 152.701C1177.01 117.984 1147.42 94.2539 1106.7 94.2539C1064.8 94.2539 1034.77 117.984 1034.63 151.529V151.676C1034.63 181.705 1053.08 199.43 1094.1 208.658L1117.24 213.785C1149.76 221.109 1162.95 232.682 1162.95 253.482V253.629C1162.95 278.092 1141.56 293.766 1108.46 293.766C1075.06 293.766 1052.5 278.238 1049.57 253.922L1049.42 251.871H1029.35L1029.5 253.922C1032.14 289.664 1062.61 312.369 1107.43 312.369ZM1302.75 309H1321.5V135.27H1322.53L1395.77 309H1413.2L1486.59 135.27H1487.62V309H1506.37V97.623H1483.37L1405 283.805H1404.12L1325.75 97.623H1302.75V309Z" fill="url(#paint4_linear_201_76)"/>
<path d="M366.775 309H386.697V229.312H438.699C478.982 229.312 506.521 202.652 506.521 163.395V163.102C506.521 123.844 478.982 97.623 438.699 97.623H366.775V309ZM434.012 115.494C466.531 115.494 486.16 133.512 486.16 163.248V163.541C486.16 193.424 466.531 211.441 434.012 211.441H386.697V115.494H434.012ZM625.232 309H645.154V222.428H697.156C698.475 222.428 700.232 222.428 701.404 222.428L750.037 309H773.475L722.205 219.205C750.33 211.881 767.469 189.469 767.469 159.732V159.439C767.469 121.793 741.102 97.623 699.793 97.623H625.232V309ZM645.154 204.703V115.494H697.449C728.064 115.494 746.814 132.047 746.814 159.879V160.172C746.814 188.297 728.797 204.703 698.182 204.703H645.154ZM890.135 309H910.057V97.623H890.135V309ZM1107.43 312.369C1153.87 312.369 1183.46 288.932 1183.46 252.75V252.604C1183.46 221.402 1165.88 204.557 1122.52 194.889L1099.37 189.615C1068.76 182.877 1054.99 170.865 1054.99 151.236V150.943C1054.99 128.238 1075.64 112.857 1106.11 112.857C1135.99 112.857 1156.36 128.092 1159.43 152.848L1159.58 154.752H1179.65L1179.5 152.701C1177.01 117.984 1147.42 94.2539 1106.7 94.2539C1064.8 94.2539 1034.77 117.984 1034.63 151.529V151.676C1034.63 181.705 1053.08 199.43 1094.1 208.658L1117.24 213.785C1149.76 221.109 1162.95 232.682 1162.95 253.482V253.629C1162.95 278.092 1141.56 293.766 1108.46 293.766C1075.06 293.766 1052.5 278.238 1049.57 253.922L1049.42 251.871H1029.35L1029.5 253.922C1032.14 289.664 1062.61 312.369 1107.43 312.369ZM1302.75 309H1321.5V135.27H1322.53L1395.77 309H1413.2L1486.59 135.27H1487.62V309H1506.37V97.623H1483.37L1405 283.805H1404.12L1325.75 97.623H1302.75V309Z" fill="black" fill-opacity="0.4" style="mix-blend-mode:multiply"/>
</g>
<g opacity="0.73">
<path d="M372.775 309H392.697V229.312H444.699C484.982 229.312 512.521 202.652 512.521 163.395V163.102C512.521 123.844 484.982 97.623 444.699 97.623H372.775V309ZM440.012 115.494C472.531 115.494 492.16 133.512 492.16 163.248V163.541C492.16 193.424 472.531 211.441 440.012 211.441H392.697V115.494H440.012ZM631.232 309H651.154V222.428H703.156C704.475 222.428 706.232 222.428 707.404 222.428L756.037 309H779.475L728.205 219.205C756.33 211.881 773.469 189.469 773.469 159.732V159.439C773.469 121.793 747.102 97.623 705.793 97.623H631.232V309ZM651.154 204.703V115.494H703.449C734.064 115.494 752.814 132.047 752.814 159.879V160.172C752.814 188.297 734.797 204.703 704.182 204.703H651.154ZM896.135 309H916.057V97.623H896.135V309ZM1113.43 312.369C1159.87 312.369 1189.46 288.932 1189.46 252.75V252.604C1189.46 221.402 1171.88 204.557 1128.52 194.889L1105.37 189.615C1074.76 182.877 1060.99 170.865 1060.99 151.236V150.943C1060.99 128.238 1081.64 112.857 1112.11 112.857C1141.99 112.857 1162.36 128.092 1165.43 152.848L1165.58 154.752H1185.65L1185.5 152.701C1183.01 117.984 1153.42 94.2539 1112.7 94.2539C1070.8 94.2539 1040.77 117.984 1040.63 151.529V151.676C1040.63 181.705 1059.08 199.43 1100.1 208.658L1123.24 213.785C1155.76 221.109 1168.95 232.682 1168.95 253.482V253.629C1168.95 278.092 1147.56 293.766 1114.46 293.766C1081.06 293.766 1058.5 278.238 1055.57 253.922L1055.42 251.871H1035.35L1035.5 253.922C1038.14 289.664 1068.61 312.369 1113.43 312.369ZM1308.75 309H1327.5V135.27H1328.53L1401.77 309H1419.2L1492.59 135.27H1493.62V309H1512.37V97.623H1489.37L1411 283.805H1410.12L1331.75 97.623H1308.75V309Z" fill="url(#paint5_linear_201_76)"/>
<path d="M372.775 309H392.697V229.312H444.699C484.982 229.312 512.521 202.652 512.521 163.395V163.102C512.521 123.844 484.982 97.623 444.699 97.623H372.775V309ZM440.012 115.494C472.531 115.494 492.16 133.512 492.16 163.248V163.541C492.16 193.424 472.531 211.441 440.012 211.441H392.697V115.494H440.012ZM631.232 309H651.154V222.428H703.156C704.475 222.428 706.232 222.428 707.404 222.428L756.037 309H779.475L728.205 219.205C756.33 211.881 773.469 189.469 773.469 159.732V159.439C773.469 121.793 747.102 97.623 705.793 97.623H631.232V309ZM651.154 204.703V115.494H703.449C734.064 115.494 752.814 132.047 752.814 159.879V160.172C752.814 188.297 734.797 204.703 704.182 204.703H651.154ZM896.135 309H916.057V97.623H896.135V309ZM1113.43 312.369C1159.87 312.369 1189.46 288.932 1189.46 252.75V252.604C1189.46 221.402 1171.88 204.557 1128.52 194.889L1105.37 189.615C1074.76 182.877 1060.99 170.865 1060.99 151.236V150.943C1060.99 128.238 1081.64 112.857 1112.11 112.857C1141.99 112.857 1162.36 128.092 1165.43 152.848L1165.58 154.752H1185.65L1185.5 152.701C1183.01 117.984 1153.42 94.2539 1112.7 94.2539C1070.8 94.2539 1040.77 117.984 1040.63 151.529V151.676C1040.63 181.705 1059.08 199.43 1100.1 208.658L1123.24 213.785C1155.76 221.109 1168.95 232.682 1168.95 253.482V253.629C1168.95 278.092 1147.56 293.766 1114.46 293.766C1081.06 293.766 1058.5 278.238 1055.57 253.922L1055.42 251.871H1035.35L1035.5 253.922C1038.14 289.664 1068.61 312.369 1113.43 312.369ZM1308.75 309H1327.5V135.27H1328.53L1401.77 309H1419.2L1492.59 135.27H1493.62V309H1512.37V97.623H1489.37L1411 283.805H1410.12L1331.75 97.623H1308.75V309Z" fill="url(#paint6_linear_201_76)" fill-opacity="0.4" style="mix-blend-mode:luminosity"/>
<path d="M372.775 309H392.697V229.312H444.699C484.982 229.312 512.521 202.652 512.521 163.395V163.102C512.521 123.844 484.982 97.623 444.699 97.623H372.775V309ZM440.012 115.494C472.531 115.494 492.16 133.512 492.16 163.248V163.541C492.16 193.424 472.531 211.441 440.012 211.441H392.697V115.494H440.012ZM631.232 309H651.154V222.428H703.156C704.475 222.428 706.232 222.428 707.404 222.428L756.037 309H779.475L728.205 219.205C756.33 211.881 773.469 189.469 773.469 159.732V159.439C773.469 121.793 747.102 97.623 705.793 97.623H631.232V309ZM651.154 204.703V115.494H703.449C734.064 115.494 752.814 132.047 752.814 159.879V160.172C752.814 188.297 734.797 204.703 704.182 204.703H651.154ZM896.135 309H916.057V97.623H896.135V309ZM1113.43 312.369C1159.87 312.369 1189.46 288.932 1189.46 252.75V252.604C1189.46 221.402 1171.88 204.557 1128.52 194.889L1105.37 189.615C1074.76 182.877 1060.99 170.865 1060.99 151.236V150.943C1060.99 128.238 1081.64 112.857 1112.11 112.857C1141.99 112.857 1162.36 128.092 1165.43 152.848L1165.58 154.752H1185.65L1185.5 152.701C1183.01 117.984 1153.42 94.2539 1112.7 94.2539C1070.8 94.2539 1040.77 117.984 1040.63 151.529V151.676C1040.63 181.705 1059.08 199.43 1100.1 208.658L1123.24 213.785C1155.76 221.109 1168.95 232.682 1168.95 253.482V253.629C1168.95 278.092 1147.56 293.766 1114.46 293.766C1081.06 293.766 1058.5 278.238 1055.57 253.922L1055.42 251.871H1035.35L1035.5 253.922C1038.14 289.664 1068.61 312.369 1113.43 312.369ZM1308.75 309H1327.5V135.27H1328.53L1401.77 309H1419.2L1492.59 135.27H1493.62V309H1512.37V97.623H1489.37L1411 283.805H1410.12L1331.75 97.623H1308.75V309Z" fill="black" fill-opacity="0.35" style="mix-blend-mode:multiply"/>
</g>
<g opacity="0.64">
<path d="M378.775 309H398.697V229.312H450.699C490.982 229.312 518.521 202.652 518.521 163.395V163.102C518.521 123.844 490.982 97.623 450.699 97.623H378.775V309ZM446.012 115.494C478.531 115.494 498.16 133.512 498.16 163.248V163.541C498.16 193.424 478.531 211.441 446.012 211.441H398.697V115.494H446.012ZM637.232 309H657.154V222.428H709.156C710.475 222.428 712.232 222.428 713.404 222.428L762.037 309H785.475L734.205 219.205C762.33 211.881 779.469 189.469 779.469 159.732V159.439C779.469 121.793 753.102 97.623 711.793 97.623H637.232V309ZM657.154 204.703V115.494H709.449C740.064 115.494 758.814 132.047 758.814 159.879V160.172C758.814 188.297 740.797 204.703 710.182 204.703H657.154ZM902.135 309H922.057V97.623H902.135V309ZM1119.43 312.369C1165.87 312.369 1195.46 288.932 1195.46 252.75V252.604C1195.46 221.402 1177.88 204.557 1134.52 194.889L1111.37 189.615C1080.76 182.877 1066.99 170.865 1066.99 151.236V150.943C1066.99 128.238 1087.64 112.857 1118.11 112.857C1147.99 112.857 1168.36 128.092 1171.43 152.848L1171.58 154.752H1191.65L1191.5 152.701C1189.01 117.984 1159.42 94.2539 1118.7 94.2539C1076.8 94.2539 1046.77 117.984 1046.63 151.529V151.676C1046.63 181.705 1065.08 199.43 1106.1 208.658L1129.24 213.785C1161.76 221.109 1174.95 232.682 1174.95 253.482V253.629C1174.95 278.092 1153.56 293.766 1120.46 293.766C1087.06 293.766 1064.5 278.238 1061.57 253.922L1061.42 251.871H1041.35L1041.5 253.922C1044.14 289.664 1074.61 312.369 1119.43 312.369ZM1314.75 309H1333.5V135.27H1334.53L1407.77 309H1425.2L1498.59 135.27H1499.62V309H1518.37V97.623H1495.37L1417 283.805H1416.12L1337.75 97.623H1314.75V309Z" fill="url(#paint7_linear_201_76)"/>
<path d="M378.775 309H398.697V229.312H450.699C490.982 229.312 518.521 202.652 518.521 163.395V163.102C518.521 123.844 490.982 97.623 450.699 97.623H378.775V309ZM446.012 115.494C478.531 115.494 498.16 133.512 498.16 163.248V163.541C498.16 193.424 478.531 211.441 446.012 211.441H398.697V115.494H446.012ZM637.232 309H657.154V222.428H709.156C710.475 222.428 712.232 222.428 713.404 222.428L762.037 309H785.475L734.205 219.205C762.33 211.881 779.469 189.469 779.469 159.732V159.439C779.469 121.793 753.102 97.623 711.793 97.623H637.232V309ZM657.154 204.703V115.494H709.449C740.064 115.494 758.814 132.047 758.814 159.879V160.172C758.814 188.297 740.797 204.703 710.182 204.703H657.154ZM902.135 309H922.057V97.623H902.135V309ZM1119.43 312.369C1165.87 312.369 1195.46 288.932 1195.46 252.75V252.604C1195.46 221.402 1177.88 204.557 1134.52 194.889L1111.37 189.615C1080.76 182.877 1066.99 170.865 1066.99 151.236V150.943C1066.99 128.238 1087.64 112.857 1118.11 112.857C1147.99 112.857 1168.36 128.092 1171.43 152.848L1171.58 154.752H1191.65L1191.5 152.701C1189.01 117.984 1159.42 94.2539 1118.7 94.2539C1076.8 94.2539 1046.77 117.984 1046.63 151.529V151.676C1046.63 181.705 1065.08 199.43 1106.1 208.658L1129.24 213.785C1161.76 221.109 1174.95 232.682 1174.95 253.482V253.629C1174.95 278.092 1153.56 293.766 1120.46 293.766C1087.06 293.766 1064.5 278.238 1061.57 253.922L1061.42 251.871H1041.35L1041.5 253.922C1044.14 289.664 1074.61 312.369 1119.43 312.369ZM1314.75 309H1333.5V135.27H1334.53L1407.77 309H1425.2L1498.59 135.27H1499.62V309H1518.37V97.623H1495.37L1417 283.805H1416.12L1337.75 97.623H1314.75V309Z" fill="black" fill-opacity="0.3" style="mix-blend-mode:multiply"/>
</g>
<g opacity="0.55">
<path d="M384.775 309H404.697V229.312H456.699C496.982 229.312 524.521 202.652 524.521 163.395V163.102C524.521 123.844 496.982 97.623 456.699 97.623H384.775V309ZM452.012 115.494C484.531 115.494 504.16 133.512 504.16 163.248V163.541C504.16 193.424 484.531 211.441 452.012 211.441H404.697V115.494H452.012ZM643.232 309H663.154V222.428H715.156C716.475 222.428 718.232 222.428 719.404 222.428L768.037 309H791.475L740.205 219.205C768.33 211.881 785.469 189.469 785.469 159.732V159.439C785.469 121.793 759.102 97.623 717.793 97.623H643.232V309ZM663.154 204.703V115.494H715.449C746.064 115.494 764.814 132.047 764.814 159.879V160.172C764.814 188.297 746.797 204.703 716.182 204.703H663.154ZM908.135 309H928.057V97.623H908.135V309ZM1125.43 312.369C1171.87 312.369 1201.46 288.932 1201.46 252.75V252.604C1201.46 221.402 1183.88 204.557 1140.52 194.889L1117.37 189.615C1086.76 182.877 1072.99 170.865 1072.99 151.236V150.943C1072.99 128.238 1093.64 112.857 1124.11 112.857C1153.99 112.857 1174.36 128.092 1177.43 152.848L1177.58 154.752H1197.65L1197.5 152.701C1195.01 117.984 1165.42 94.2539 1124.7 94.2539C1082.8 94.2539 1052.77 117.984 1052.63 151.529V151.676C1052.63 181.705 1071.08 199.43 1112.1 208.658L1135.24 213.785C1167.76 221.109 1180.95 232.682 1180.95 253.482V253.629C1180.95 278.092 1159.56 293.766 1126.46 293.766C1093.06 293.766 1070.5 278.238 1067.57 253.922L1067.42 251.871H1047.35L1047.5 253.922C1050.14 289.664 1080.61 312.369 1125.43 312.369ZM1320.75 309H1339.5V135.27H1340.53L1413.77 309H1431.2L1504.59 135.27H1505.62V309H1524.37V97.623H1501.37L1423 283.805H1422.12L1343.75 97.623H1320.75V309Z" fill="url(#paint8_linear_201_76)"/>
<path d="M384.775 309H404.697V229.312H456.699C496.982 229.312 524.521 202.652 524.521 163.395V163.102C524.521 123.844 496.982 97.623 456.699 97.623H384.775V309ZM452.012 115.494C484.531 115.494 504.16 133.512 504.16 163.248V163.541C504.16 193.424 484.531 211.441 452.012 211.441H404.697V115.494H452.012ZM643.232 309H663.154V222.428H715.156C716.475 222.428 718.232 222.428 719.404 222.428L768.037 309H791.475L740.205 219.205C768.33 211.881 785.469 189.469 785.469 159.732V159.439C785.469 121.793 759.102 97.623 717.793 97.623H643.232V309ZM663.154 204.703V115.494H715.449C746.064 115.494 764.814 132.047 764.814 159.879V160.172C764.814 188.297 746.797 204.703 716.182 204.703H663.154ZM908.135 309H928.057V97.623H908.135V309ZM1125.43 312.369C1171.87 312.369 1201.46 288.932 1201.46 252.75V252.604C1201.46 221.402 1183.88 204.557 1140.52 194.889L1117.37 189.615C1086.76 182.877 1072.99 170.865 1072.99 151.236V150.943C1072.99 128.238 1093.64 112.857 1124.11 112.857C1153.99 112.857 1174.36 128.092 1177.43 152.848L1177.58 154.752H1197.65L1197.5 152.701C1195.01 117.984 1165.42 94.2539 1124.7 94.2539C1082.8 94.2539 1052.77 117.984 1052.63 151.529V151.676C1052.63 181.705 1071.08 199.43 1112.1 208.658L1135.24 213.785C1167.76 221.109 1180.95 232.682 1180.95 253.482V253.629C1180.95 278.092 1159.56 293.766 1126.46 293.766C1093.06 293.766 1070.5 278.238 1067.57 253.922L1067.42 251.871H1047.35L1047.5 253.922C1050.14 289.664 1080.61 312.369 1125.43 312.369ZM1320.75 309H1339.5V135.27H1340.53L1413.77 309H1431.2L1504.59 135.27H1505.62V309H1524.37V97.623H1501.37L1423 283.805H1422.12L1343.75 97.623H1320.75V309Z" fill="url(#paint9_linear_201_76)" fill-opacity="0.4" style="mix-blend-mode:luminosity"/>
<path d="M384.775 309H404.697V229.312H456.699C496.982 229.312 524.521 202.652 524.521 163.395V163.102C524.521 123.844 496.982 97.623 456.699 97.623H384.775V309ZM452.012 115.494C484.531 115.494 504.16 133.512 504.16 163.248V163.541C504.16 193.424 484.531 211.441 452.012 211.441H404.697V115.494H452.012ZM643.232 309H663.154V222.428H715.156C716.475 222.428 718.232 222.428 719.404 222.428L768.037 309H791.475L740.205 219.205C768.33 211.881 785.469 189.469 785.469 159.732V159.439C785.469 121.793 759.102 97.623 717.793 97.623H643.232V309ZM663.154 204.703V115.494H715.449C746.064 115.494 764.814 132.047 764.814 159.879V160.172C764.814 188.297 746.797 204.703 716.182 204.703H663.154ZM908.135 309H928.057V97.623H908.135V309ZM1125.43 312.369C1171.87 312.369 1201.46 288.932 1201.46 252.75V252.604C1201.46 221.402 1183.88 204.557 1140.52 194.889L1117.37 189.615C1086.76 182.877 1072.99 170.865 1072.99 151.236V150.943C1072.99 128.238 1093.64 112.857 1124.11 112.857C1153.99 112.857 1174.36 128.092 1177.43 152.848L1177.58 154.752H1197.65L1197.5 152.701C1195.01 117.984 1165.42 94.2539 1124.7 94.2539C1082.8 94.2539 1052.77 117.984 1052.63 151.529V151.676C1052.63 181.705 1071.08 199.43 1112.1 208.658L1135.24 213.785C1167.76 221.109 1180.95 232.682 1180.95 253.482V253.629C1180.95 278.092 1159.56 293.766 1126.46 293.766C1093.06 293.766 1070.5 278.238 1067.57 253.922L1067.42 251.871H1047.35L1047.5 253.922C1050.14 289.664 1080.61 312.369 1125.43 312.369ZM1320.75 309H1339.5V135.27H1340.53L1413.77 309H1431.2L1504.59 135.27H1505.62V309H1524.37V97.623H1501.37L1423 283.805H1422.12L1343.75 97.623H1320.75V309Z" fill="black" fill-opacity="0.25" style="mix-blend-mode:multiply"/>
</g>
<g opacity="0.64">
<path d="M390.775 309H410.697V229.312H462.699C502.982 229.312 530.521 202.652 530.521 163.395V163.102C530.521 123.844 502.982 97.623 462.699 97.623H390.775V309ZM458.012 115.494C490.531 115.494 510.16 133.512 510.16 163.248V163.541C510.16 193.424 490.531 211.441 458.012 211.441H410.697V115.494H458.012ZM649.232 309H669.154V222.428H721.156C722.475 222.428 724.232 222.428 725.404 222.428L774.037 309H797.475L746.205 219.205C774.33 211.881 791.469 189.469 791.469 159.732V159.439C791.469 121.793 765.102 97.623 723.793 97.623H649.232V309ZM669.154 204.703V115.494H721.449C752.064 115.494 770.814 132.047 770.814 159.879V160.172C770.814 188.297 752.797 204.703 722.182 204.703H669.154ZM914.135 309H934.057V97.623H914.135V309ZM1131.43 312.369C1177.87 312.369 1207.46 288.932 1207.46 252.75V252.604C1207.46 221.402 1189.88 204.557 1146.52 194.889L1123.37 189.615C1092.76 182.877 1078.99 170.865 1078.99 151.236V150.943C1078.99 128.238 1099.64 112.857 1130.11 112.857C1159.99 112.857 1180.36 128.092 1183.43 152.848L1183.58 154.752H1203.65L1203.5 152.701C1201.01 117.984 1171.42 94.2539 1130.7 94.2539C1088.8 94.2539 1058.77 117.984 1058.63 151.529V151.676C1058.63 181.705 1077.08 199.43 1118.1 208.658L1141.24 213.785C1173.76 221.109 1186.95 232.682 1186.95 253.482V253.629C1186.95 278.092 1165.56 293.766 1132.46 293.766C1099.06 293.766 1076.5 278.238 1073.57 253.922L1073.42 251.871H1053.35L1053.5 253.922C1056.14 289.664 1086.61 312.369 1131.43 312.369ZM1326.75 309H1345.5V135.27H1346.53L1419.77 309H1437.2L1510.59 135.27H1511.62V309H1530.37V97.623H1507.37L1429 283.805H1428.12L1349.75 97.623H1326.75V309Z" fill="url(#paint10_linear_201_76)"/>
<path d="M390.775 309H410.697V229.312H462.699C502.982 229.312 530.521 202.652 530.521 163.395V163.102C530.521 123.844 502.982 97.623 462.699 97.623H390.775V309ZM458.012 115.494C490.531 115.494 510.16 133.512 510.16 163.248V163.541C510.16 193.424 490.531 211.441 458.012 211.441H410.697V115.494H458.012ZM649.232 309H669.154V222.428H721.156C722.475 222.428 724.232 222.428 725.404 222.428L774.037 309H797.475L746.205 219.205C774.33 211.881 791.469 189.469 791.469 159.732V159.439C791.469 121.793 765.102 97.623 723.793 97.623H649.232V309ZM669.154 204.703V115.494H721.449C752.064 115.494 770.814 132.047 770.814 159.879V160.172C770.814 188.297 752.797 204.703 722.182 204.703H669.154ZM914.135 309H934.057V97.623H914.135V309ZM1131.43 312.369C1177.87 312.369 1207.46 288.932 1207.46 252.75V252.604C1207.46 221.402 1189.88 204.557 1146.52 194.889L1123.37 189.615C1092.76 182.877 1078.99 170.865 1078.99 151.236V150.943C1078.99 128.238 1099.64 112.857 1130.11 112.857C1159.99 112.857 1180.36 128.092 1183.43 152.848L1183.58 154.752H1203.65L1203.5 152.701C1201.01 117.984 1171.42 94.2539 1130.7 94.2539C1088.8 94.2539 1058.77 117.984 1058.63 151.529V151.676C1058.63 181.705 1077.08 199.43 1118.1 208.658L1141.24 213.785C1173.76 221.109 1186.95 232.682 1186.95 253.482V253.629C1186.95 278.092 1165.56 293.766 1132.46 293.766C1099.06 293.766 1076.5 278.238 1073.57 253.922L1073.42 251.871H1053.35L1053.5 253.922C1056.14 289.664 1086.61 312.369 1131.43 312.369ZM1326.75 309H1345.5V135.27H1346.53L1419.77 309H1437.2L1510.59 135.27H1511.62V309H1530.37V97.623H1507.37L1429 283.805H1428.12L1349.75 97.623H1326.75V309Z" fill="black" fill-opacity="0.2" style="mix-blend-mode:multiply"/>
</g>
<g opacity="0.73">
<path d="M396.775 309H416.697V229.312H468.699C508.982 229.312 536.521 202.652 536.521 163.395V163.102C536.521 123.844 508.982 97.623 468.699 97.623H396.775V309ZM464.012 115.494C496.531 115.494 516.16 133.512 516.16 163.248V163.541C516.16 193.424 496.531 211.441 464.012 211.441H416.697V115.494H464.012ZM655.232 309H675.154V222.428H727.156C728.475 222.428 730.232 222.428 731.404 222.428L780.037 309H803.475L752.205 219.205C780.33 211.881 797.469 189.469 797.469 159.732V159.439C797.469 121.793 771.102 97.623 729.793 97.623H655.232V309ZM675.154 204.703V115.494H727.449C758.064 115.494 776.814 132.047 776.814 159.879V160.172C776.814 188.297 758.797 204.703 728.182 204.703H675.154ZM920.135 309H940.057V97.623H920.135V309ZM1137.43 312.369C1183.87 312.369 1213.46 288.932 1213.46 252.75V252.604C1213.46 221.402 1195.88 204.557 1152.52 194.889L1129.37 189.615C1098.76 182.877 1084.99 170.865 1084.99 151.236V150.943C1084.99 128.238 1105.64 112.857 1136.11 112.857C1165.99 112.857 1186.36 128.092 1189.43 152.848L1189.58 154.752H1209.65L1209.5 152.701C1207.01 117.984 1177.42 94.2539 1136.7 94.2539C1094.8 94.2539 1064.77 117.984 1064.63 151.529V151.676C1064.63 181.705 1083.08 199.43 1124.1 208.658L1147.24 213.785C1179.76 221.109 1192.95 232.682 1192.95 253.482V253.629C1192.95 278.092 1171.56 293.766 1138.46 293.766C1105.06 293.766 1082.5 278.238 1079.57 253.922L1079.42 251.871H1059.35L1059.5 253.922C1062.14 289.664 1092.61 312.369 1137.43 312.369ZM1332.75 309H1351.5V135.27H1352.53L1425.77 309H1443.2L1516.59 135.27H1517.62V309H1536.37V97.623H1513.37L1435 283.805H1434.12L1355.75 97.623H1332.75V309Z" fill="url(#paint11_linear_201_76)"/>
<path d="M396.775 309H416.697V229.312H468.699C508.982 229.312 536.521 202.652 536.521 163.395V163.102C536.521 123.844 508.982 97.623 468.699 97.623H396.775V309ZM464.012 115.494C496.531 115.494 516.16 133.512 516.16 163.248V163.541C516.16 193.424 496.531 211.441 464.012 211.441H416.697V115.494H464.012ZM655.232 309H675.154V222.428H727.156C728.475 222.428 730.232 222.428 731.404 222.428L780.037 309H803.475L752.205 219.205C780.33 211.881 797.469 189.469 797.469 159.732V159.439C797.469 121.793 771.102 97.623 729.793 97.623H655.232V309ZM675.154 204.703V115.494H727.449C758.064 115.494 776.814 132.047 776.814 159.879V160.172C776.814 188.297 758.797 204.703 728.182 204.703H675.154ZM920.135 309H940.057V97.623H920.135V309ZM1137.43 312.369C1183.87 312.369 1213.46 288.932 1213.46 252.75V252.604C1213.46 221.402 1195.88 204.557 1152.52 194.889L1129.37 189.615C1098.76 182.877 1084.99 170.865 1084.99 151.236V150.943C1084.99 128.238 1105.64 112.857 1136.11 112.857C1165.99 112.857 1186.36 128.092 1189.43 152.848L1189.58 154.752H1209.65L1209.5 152.701C1207.01 117.984 1177.42 94.2539 1136.7 94.2539C1094.8 94.2539 1064.77 117.984 1064.63 151.529V151.676C1064.63 181.705 1083.08 199.43 1124.1 208.658L1147.24 213.785C1179.76 221.109 1192.95 232.682 1192.95 253.482V253.629C1192.95 278.092 1171.56 293.766 1138.46 293.766C1105.06 293.766 1082.5 278.238 1079.57 253.922L1079.42 251.871H1059.35L1059.5 253.922C1062.14 289.664 1092.61 312.369 1137.43 312.369ZM1332.75 309H1351.5V135.27H1352.53L1425.77 309H1443.2L1516.59 135.27H1517.62V309H1536.37V97.623H1513.37L1435 283.805H1434.12L1355.75 97.623H1332.75V309Z" fill="url(#paint12_linear_201_76)" fill-opacity="0.4" style="mix-blend-mode:luminosity"/>
<path d="M396.775 309H416.697V229.312H468.699C508.982 229.312 536.521 202.652 536.521 163.395V163.102C536.521 123.844 508.982 97.623 468.699 97.623H396.775V309ZM464.012 115.494C496.531 115.494 516.16 133.512 516.16 163.248V163.541C516.16 193.424 496.531 211.441 464.012 211.441H416.697V115.494H464.012ZM655.232 309H675.154V222.428H727.156C728.475 222.428 730.232 222.428 731.404 222.428L780.037 309H803.475L752.205 219.205C780.33 211.881 797.469 189.469 797.469 159.732V159.439C797.469 121.793 771.102 97.623 729.793 97.623H655.232V309ZM675.154 204.703V115.494H727.449C758.064 115.494 776.814 132.047 776.814 159.879V160.172C776.814 188.297 758.797 204.703 728.182 204.703H675.154ZM920.135 309H940.057V97.623H920.135V309ZM1137.43 312.369C1183.87 312.369 1213.46 288.932 1213.46 252.75V252.604C1213.46 221.402 1195.88 204.557 1152.52 194.889L1129.37 189.615C1098.76 182.877 1084.99 170.865 1084.99 151.236V150.943C1084.99 128.238 1105.64 112.857 1136.11 112.857C1165.99 112.857 1186.36 128.092 1189.43 152.848L1189.58 154.752H1209.65L1209.5 152.701C1207.01 117.984 1177.42 94.2539 1136.7 94.2539C1094.8 94.2539 1064.77 117.984 1064.63 151.529V151.676C1064.63 181.705 1083.08 199.43 1124.1 208.658L1147.24 213.785C1179.76 221.109 1192.95 232.682 1192.95 253.482V253.629C1192.95 278.092 1171.56 293.766 1138.46 293.766C1105.06 293.766 1082.5 278.238 1079.57 253.922L1079.42 251.871H1059.35L1059.5 253.922C1062.14 289.664 1092.61 312.369 1137.43 312.369ZM1332.75 309H1351.5V135.27H1352.53L1425.77 309H1443.2L1516.59 135.27H1517.62V309H1536.37V97.623H1513.37L1435 283.805H1434.12L1355.75 97.623H1332.75V309Z" fill="black" fill-opacity="0.15" style="mix-blend-mode:multiply"/>
</g>
<g opacity="0.82">
<path d="M402.775 309H422.697V229.312H474.699C514.982 229.312 542.521 202.652 542.521 163.395V163.102C542.521 123.844 514.982 97.623 474.699 97.623H402.775V309ZM470.012 115.494C502.531 115.494 522.16 133.512 522.16 163.248V163.541C522.16 193.424 502.531 211.441 470.012 211.441H422.697V115.494H470.012ZM661.232 309H681.154V222.428H733.156C734.475 222.428 736.232 222.428 737.404 222.428L786.037 309H809.475L758.205 219.205C786.33 211.881 803.469 189.469 803.469 159.732V159.439C803.469 121.793 777.102 97.623 735.793 97.623H661.232V309ZM681.154 204.703V115.494H733.449C764.064 115.494 782.814 132.047 782.814 159.879V160.172C782.814 188.297 764.797 204.703 734.182 204.703H681.154ZM926.135 309H946.057V97.623H926.135V309ZM1143.43 312.369C1189.87 312.369 1219.46 288.932 1219.46 252.75V252.604C1219.46 221.402 1201.88 204.557 1158.52 194.889L1135.37 189.615C1104.76 182.877 1090.99 170.865 1090.99 151.236V150.943C1090.99 128.238 1111.64 112.857 1142.11 112.857C1171.99 112.857 1192.36 128.092 1195.43 152.848L1195.58 154.752H1215.65L1215.5 152.701C1213.01 117.984 1183.42 94.2539 1142.7 94.2539C1100.8 94.2539 1070.77 117.984 1070.63 151.529V151.676C1070.63 181.705 1089.08 199.43 1130.1 208.658L1153.24 213.785C1185.76 221.109 1198.95 232.682 1198.95 253.482V253.629C1198.95 278.092 1177.56 293.766 1144.46 293.766C1111.06 293.766 1088.5 278.238 1085.57 253.922L1085.42 251.871H1065.35L1065.5 253.922C1068.14 289.664 1098.61 312.369 1143.43 312.369ZM1338.75 309H1357.5V135.27H1358.53L1431.77 309H1449.2L1522.59 135.27H1523.62V309H1542.37V97.623H1519.37L1441 283.805H1440.12L1361.75 97.623H1338.75V309Z" fill="url(#paint13_linear_201_76)"/>
<path d="M402.775 309H422.697V229.312H474.699C514.982 229.312 542.521 202.652 542.521 163.395V163.102C542.521 123.844 514.982 97.623 474.699 97.623H402.775V309ZM470.012 115.494C502.531 115.494 522.16 133.512 522.16 163.248V163.541C522.16 193.424 502.531 211.441 470.012 211.441H422.697V115.494H470.012ZM661.232 309H681.154V222.428H733.156C734.475 222.428 736.232 222.428 737.404 222.428L786.037 309H809.475L758.205 219.205C786.33 211.881 803.469 189.469 803.469 159.732V159.439C803.469 121.793 777.102 97.623 735.793 97.623H661.232V309ZM681.154 204.703V115.494H733.449C764.064 115.494 782.814 132.047 782.814 159.879V160.172C782.814 188.297 764.797 204.703 734.182 204.703H681.154ZM926.135 309H946.057V97.623H926.135V309ZM1143.43 312.369C1189.87 312.369 1219.46 288.932 1219.46 252.75V252.604C1219.46 221.402 1201.88 204.557 1158.52 194.889L1135.37 189.615C1104.76 182.877 1090.99 170.865 1090.99 151.236V150.943C1090.99 128.238 1111.64 112.857 1142.11 112.857C1171.99 112.857 1192.36 128.092 1195.43 152.848L1195.58 154.752H1215.65L1215.5 152.701C1213.01 117.984 1183.42 94.2539 1142.7 94.2539C1100.8 94.2539 1070.77 117.984 1070.63 151.529V151.676C1070.63 181.705 1089.08 199.43 1130.1 208.658L1153.24 213.785C1185.76 221.109 1198.95 232.682 1198.95 253.482V253.629C1198.95 278.092 1177.56 293.766 1144.46 293.766C1111.06 293.766 1088.5 278.238 1085.57 253.922L1085.42 251.871H1065.35L1065.5 253.922C1068.14 289.664 1098.61 312.369 1143.43 312.369ZM1338.75 309H1357.5V135.27H1358.53L1431.77 309H1449.2L1522.59 135.27H1523.62V309H1542.37V97.623H1519.37L1441 283.805H1440.12L1361.75 97.623H1338.75V309Z" fill="black" fill-opacity="0.1" style="mix-blend-mode:multiply"/>
</g>
<g opacity="0.91">
<path d="M408.775 309H428.697V229.312H480.699C520.982 229.312 548.521 202.652 548.521 163.395V163.102C548.521 123.844 520.982 97.623 480.699 97.623H408.775V309ZM476.012 115.494C508.531 115.494 528.16 133.512 528.16 163.248V163.541C528.16 193.424 508.531 211.441 476.012 211.441H428.697V115.494H476.012ZM667.232 309H687.154V222.428H739.156C740.475 222.428 742.232 222.428 743.404 222.428L792.037 309H815.475L764.205 219.205C792.33 211.881 809.469 189.469 809.469 159.732V159.439C809.469 121.793 783.102 97.623 741.793 97.623H667.232V309ZM687.154 204.703V115.494H739.449C770.064 115.494 788.814 132.047 788.814 159.879V160.172C788.814 188.297 770.797 204.703 740.182 204.703H687.154ZM932.135 309H952.057V97.623H932.135V309ZM1149.43 312.369C1195.87 312.369 1225.46 288.932 1225.46 252.75V252.604C1225.46 221.402 1207.88 204.557 1164.52 194.889L1141.37 189.615C1110.76 182.877 1096.99 170.865 1096.99 151.236V150.943C1096.99 128.238 1117.64 112.857 1148.11 112.857C1177.99 112.857 1198.36 128.092 1201.43 152.848L1201.58 154.752H1221.65L1221.5 152.701C1219.01 117.984 1189.42 94.2539 1148.7 94.2539C1106.8 94.2539 1076.77 117.984 1076.63 151.529V151.676C1076.63 181.705 1095.08 199.43 1136.1 208.658L1159.24 213.785C1191.76 221.109 1204.95 232.682 1204.95 253.482V253.629C1204.95 278.092 1183.56 293.766 1150.46 293.766C1117.06 293.766 1094.5 278.238 1091.57 253.922L1091.42 251.871H1071.35L1071.5 253.922C1074.14 289.664 1104.61 312.369 1149.43 312.369ZM1344.75 309H1363.5V135.27H1364.53L1437.77 309H1455.2L1528.59 135.27H1529.62V309H1548.37V97.623H1525.37L1447 283.805H1446.12L1367.75 97.623H1344.75V309Z" fill="url(#paint14_linear_201_76)"/>
<path d="M408.775 309H428.697V229.312H480.699C520.982 229.312 548.521 202.652 548.521 163.395V163.102C548.521 123.844 520.982 97.623 480.699 97.623H408.775V309ZM476.012 115.494C508.531 115.494 528.16 133.512 528.16 163.248V163.541C528.16 193.424 508.531 211.441 476.012 211.441H428.697V115.494H476.012ZM667.232 309H687.154V222.428H739.156C740.475 222.428 742.232 222.428 743.404 222.428L792.037 309H815.475L764.205 219.205C792.33 211.881 809.469 189.469 809.469 159.732V159.439C809.469 121.793 783.102 97.623 741.793 97.623H667.232V309ZM687.154 204.703V115.494H739.449C770.064 115.494 788.814 132.047 788.814 159.879V160.172C788.814 188.297 770.797 204.703 740.182 204.703H687.154ZM932.135 309H952.057V97.623H932.135V309ZM1149.43 312.369C1195.87 312.369 1225.46 288.932 1225.46 252.75V252.604C1225.46 221.402 1207.88 204.557 1164.52 194.889L1141.37 189.615C1110.76 182.877 1096.99 170.865 1096.99 151.236V150.943C1096.99 128.238 1117.64 112.857 1148.11 112.857C1177.99 112.857 1198.36 128.092 1201.43 152.848L1201.58 154.752H1221.65L1221.5 152.701C1219.01 117.984 1189.42 94.2539 1148.7 94.2539C1106.8 94.2539 1076.77 117.984 1076.63 151.529V151.676C1076.63 181.705 1095.08 199.43 1136.1 208.658L1159.24 213.785C1191.76 221.109 1204.95 232.682 1204.95 253.482V253.629C1204.95 278.092 1183.56 293.766 1150.46 293.766C1117.06 293.766 1094.5 278.238 1091.57 253.922L1091.42 251.871H1071.35L1071.5 253.922C1074.14 289.664 1104.61 312.369 1149.43 312.369ZM1344.75 309H1363.5V135.27H1364.53L1437.77 309H1455.2L1528.59 135.27H1529.62V309H1548.37V97.623H1525.37L1447 283.805H1446.12L1367.75 97.623H1344.75V309Z" fill="url(#paint15_linear_201_76)" fill-opacity="0.4" style="mix-blend-mode:luminosity"/>
<path d="M408.775 309H428.697V229.312H480.699C520.982 229.312 548.521 202.652 548.521 163.395V163.102C548.521 123.844 520.982 97.623 480.699 97.623H408.775V309ZM476.012 115.494C508.531 115.494 528.16 133.512 528.16 163.248V163.541C528.16 193.424 508.531 211.441 476.012 211.441H428.697V115.494H476.012ZM667.232 309H687.154V222.428H739.156C740.475 222.428 742.232 222.428 743.404 222.428L792.037 309H815.475L764.205 219.205C792.33 211.881 809.469 189.469 809.469 159.732V159.439C809.469 121.793 783.102 97.623 741.793 97.623H667.232V309ZM687.154 204.703V115.494H739.449C770.064 115.494 788.814 132.047 788.814 159.879V160.172C788.814 188.297 770.797 204.703 740.182 204.703H687.154ZM932.135 309H952.057V97.623H932.135V309ZM1149.43 312.369C1195.87 312.369 1225.46 288.932 1225.46 252.75V252.604C1225.46 221.402 1207.88 204.557 1164.52 194.889L1141.37 189.615C1110.76 182.877 1096.99 170.865 1096.99 151.236V150.943C1096.99 128.238 1117.64 112.857 1148.11 112.857C1177.99 112.857 1198.36 128.092 1201.43 152.848L1201.58 154.752H1221.65L1221.5 152.701C1219.01 117.984 1189.42 94.2539 1148.7 94.2539C1106.8 94.2539 1076.77 117.984 1076.63 151.529V151.676C1076.63 181.705 1095.08 199.43 1136.1 208.658L1159.24 213.785C1191.76 221.109 1204.95 232.682 1204.95 253.482V253.629C1204.95 278.092 1183.56 293.766 1150.46 293.766C1117.06 293.766 1094.5 278.238 1091.57 253.922L1091.42 251.871H1071.35L1071.5 253.922C1074.14 289.664 1104.61 312.369 1149.43 312.369ZM1344.75 309H1363.5V135.27H1364.53L1437.77 309H1455.2L1528.59 135.27H1529.62V309H1548.37V97.623H1525.37L1447 283.805H1446.12L1367.75 97.623H1344.75V309Z" fill="black" fill-opacity="0.05" style="mix-blend-mode:multiply"/>
</g>
<path d="M414.775 309H434.697V229.312H486.699C526.982 229.312 554.521 202.652 554.521 163.395V163.102C554.521 123.844 526.982 97.623 486.699 97.623H414.775V309ZM482.012 115.494C514.531 115.494 534.16 133.512 534.16 163.248V163.541C534.16 193.424 514.531 211.441 482.012 211.441H434.697V115.494H482.012ZM673.232 309H693.154V222.428H745.156C746.475 222.428 748.232 222.428 749.404 222.428L798.037 309H821.475L770.205 219.205C798.33 211.881 815.469 189.469 815.469 159.732V159.439C815.469 121.793 789.102 97.623 747.793 97.623H673.232V309ZM693.154 204.703V115.494H745.449C776.064 115.494 794.814 132.047 794.814 159.879V160.172C794.814 188.297 776.797 204.703 746.182 204.703H693.154ZM938.135 309H958.057V97.623H938.135V309ZM1155.43 312.369C1201.87 312.369 1231.46 288.932 1231.46 252.75V252.604C1231.46 221.402 1213.88 204.557 1170.52 194.889L1147.37 189.615C1116.76 182.877 1102.99 170.865 1102.99 151.236V150.943C1102.99 128.238 1123.64 112.857 1154.11 112.857C1183.99 112.857 1204.36 128.092 1207.43 152.848L1207.58 154.752H1227.65L1227.5 152.701C1225.01 117.984 1195.42 94.2539 1154.7 94.2539C1112.8 94.2539 1082.77 117.984 1082.63 151.529V151.676C1082.63 181.705 1101.08 199.43 1142.1 208.658L1165.24 213.785C1197.76 221.109 1210.95 232.682 1210.95 253.482V253.629C1210.95 278.092 1189.56 293.766 1156.46 293.766C1123.06 293.766 1100.5 278.238 1097.57 253.922L1097.42 251.871H1077.35L1077.5 253.922C1080.14 289.664 1110.61 312.369 1155.43 312.369ZM1350.75 309H1369.5V135.27H1370.53L1443.77 309H1461.2L1534.59 135.27H1535.62V309H1554.37V97.623H1531.37L1453 283.805H1452.12L1373.75 97.623H1350.75V309Z" fill="url(#paint16_linear_201_76)"/>
<defs>
<filter id="filter0_d_201_76" x="349.142" y="353.745" width="1212.18" height="61.0747" filterUnits="userSpaceOnUse" color-interpolation-filters="sRGB">
<feFlood flood-opacity="0" result="BackgroundImageFix"/>
<feColorMatrix in="SourceAlpha" type="matrix" values="0 0 0 0 0 0 0 0 0 0 0 0 0 0 0 0 0 0 127 0" result="hardAlpha"/>
<feOffset dy="4"/>
<feGaussianBlur stdDeviation="2"/>
<feComposite in2="hardAlpha" operator="out"/>
<feColorMatrix type="matrix" values="0 0 0 0 0 0 0 0 0 0 0 0 0 0 0 0 0 0 0.25 0"/>
<feBlend mode="normal" in2="BackgroundImageFix" result="effect1_dropShadow_201_76"/>
<feBlend mode="normal" in="SourceGraphic" in2="effect1_dropShadow_201_76" result="shape"/>
</filter>
<linearGradient id="paint0_linear_201_76" x1="350" y1="380.5" x2="1560" y2="380.499" gradientUnits="userSpaceOnUse">
<stop stop-color="#ED5858"/>
<stop offset="0.145833" stop-color="#FFB067"/>
<stop offset="0.286458" stop-color="#F9C716"/>
<stop offset="0.427083" stop-color="#B4F52B"/>
<stop offset="0.572917" stop-color="#43C4AD"/>
<stop offset="0.71875" stop-color="#766EAA"/>
<stop offset="0.859375" stop-color="#A63DA7"/>
<stop offset="1" stop-color="#A60D7B"/>
</linearGradient>
<linearGradient id="paint1_linear_201_76" x1="335" y1="202" x2="1515" y2="202" gradientUnits="userSpaceOnUse">
<stop stop-color="#ED5858"/>
<stop offset="0.145833" stop-color="#FFB067"/>
<stop offset="0.286458" stop-color="#F9C716"/>
<stop offset="0.427083" stop-color="#B4F52B"/>
<stop offset="0.572917" stop-color="#43C4AD"/>
<stop offset="0.71875" stop-color="#766EAA"/>
<stop offset="0.859375" stop-color="#A63DA7"/>
<stop offset="1" stop-color="#A60D7B"/>
</linearGradient>
<linearGradient id="paint2_linear_201_76" x1="341" y1="202" x2="1521" y2="202" gradientUnits="userSpaceOnUse">
<stop stop-color="#ED5858"/>
<stop offset="0.145833" stop-color="#FFB067"/>
<stop offset="0.286458" stop-color="#F9C716"/>
<stop offset="0.427083" stop-color="#B4F52B"/>
<stop offset="0.572917" stop-color="#43C4AD"/>
<stop offset="0.71875" stop-color="#766EAA"/>
<stop offset="0.859375" stop-color="#A63DA7"/>
<stop offset="1" stop-color="#A60D7B"/>
</linearGradient>
<linearGradient id="paint3_linear_201_76" x1="341" y1="202" x2="1521" y2="202" gradientUnits="userSpaceOnUse">
<stop/>
<stop offset="0.473958" stop-color="#909090"/>
<stop offset="0.583333" stop-color="white"/>
<stop offset="0.713542" stop-color="white"/>
<stop offset="0.796875" stop-color="#E2E2E2"/>
<stop offset="1" stop-color="white"/>
</linearGradient>
<linearGradient id="paint4_linear_201_76" x1="347" y1="202" x2="1527" y2="202" gradientUnits="userSpaceOnUse">
<stop stop-color="#ED5858"/>
<stop offset="0.145833" stop-color="#FFB067"/>
<stop offset="0.286458" stop-color="#F9C716"/>
<stop offset="0.427083" stop-color="#B4F52B"/>
<stop offset="0.572917" stop-color="#43C4AD"/>
<stop offset="0.71875" stop-color="#766EAA"/>
<stop offset="0.859375" stop-color="#A63DA7"/>
<stop offset="1" stop-color="#A60D7B"/>
</linearGradient>
<linearGradient id="paint5_linear_201_76" x1="353" y1="202" x2="1533" y2="202" gradientUnits="userSpaceOnUse">
<stop stop-color="#ED5858"/>
<stop offset="0.145833" stop-color="#FFB067"/>
<stop offset="0.286458" stop-color="#F9C716"/>
<stop offset="0.427083" stop-color="#B4F52B"/>
<stop offset="0.572917" stop-color="#43C4AD"/>
<stop offset="0.71875" stop-color="#766EAA"/>
<stop offset="0.859375" stop-color="#A63DA7"/>
<stop offset="1" stop-color="#A60D7B"/>
</linearGradient>
<linearGradient id="paint6_linear_201_76" x1="353" y1="202" x2="1533" y2="202" gradientUnits="userSpaceOnUse">
<stop/>
<stop offset="0.473958" stop-color="#909090"/>
<stop offset="0.583333" stop-color="white"/>
<stop offset="0.713542" stop-color="white"/>
<stop offset="0.796875" stop-color="#E2E2E2"/>
<stop offset="1" stop-color="white"/>
</linearGradient>
<linearGradient id="paint7_linear_201_76" x1="359" y1="202" x2="1539" y2="202" gradientUnits="userSpaceOnUse">
<stop stop-color="#ED5858"/>
<stop offset="0.145833" stop-color="#FFB067"/>
<stop offset="0.286458" stop-color="#F9C716"/>
<stop offset="0.427083" stop-color="#B4F52B"/>
<stop offset="0.572917" stop-color="#43C4AD"/>
<stop offset="0.71875" stop-color="#766EAA"/>
<stop offset="0.859375" stop-color="#A63DA7"/>
<stop offset="1" stop-color="#A60D7B"/>
</linearGradient>
<linearGradient id="paint8_linear_201_76" x1="365" y1="202" x2="1545" y2="202" gradientUnits="userSpaceOnUse">
<stop stop-color="#ED5858"/>
<stop offset="0.145833" stop-color="#FFB067"/>
<stop offset="0.286458" stop-color="#F9C716"/>
<stop offset="0.427083" stop-color="#B4F52B"/>
<stop offset="0.572917" stop-color="#43C4AD"/>
<stop offset="0.71875" stop-color="#766EAA"/>
<stop offset="0.859375" stop-color="#A63DA7"/>
<stop offset="1" stop-color="#A60D7B"/>
</linearGradient>
<linearGradient id="paint9_linear_201_76" x1="365" y1="202" x2="1545" y2="202" gradientUnits="userSpaceOnUse">
<stop/>
<stop offset="0.473958" stop-color="#909090"/>
<stop offset="0.583333" stop-color="white"/>
<stop offset="0.713542" stop-color="white"/>
<stop offset="0.796875" stop-color="#E2E2E2"/>
<stop offset="1" stop-color="white"/>
</linearGradient>
<linearGradient id="paint10_linear_201_76" x1="371" y1="202" x2="1551" y2="202" gradientUnits="userSpaceOnUse">
<stop stop-color="#ED5858"/>
<stop offset="0.145833" stop-color="#FFB067"/>
<stop offset="0.286458" stop-color="#F9C716"/>
<stop offset="0.427083" stop-color="#B4F52B"/>
<stop offset="0.572917" stop-color="#43C4AD"/>
<stop offset="0.71875" stop-color="#766EAA"/>
<stop offset="0.859375" stop-color="#A63DA7"/>
<stop offset="1" stop-color="#A60D7B"/>
</linearGradient>
<linearGradient id="paint11_linear_201_76" x1="377" y1="202" x2="1557" y2="202" gradientUnits="userSpaceOnUse">
<stop stop-color="#ED5858"/>
<stop offset="0.145833" stop-color="#FFB067"/>
<stop offset="0.286458" stop-color="#F9C716"/>
<stop offset="0.427083" stop-color="#B4F52B"/>
<stop offset="0.572917" stop-color="#43C4AD"/>
<stop offset="0.71875" stop-color="#766EAA"/>
<stop offset="0.859375" stop-color="#A63DA7"/>
<stop offset="1" stop-color="#A60D7B"/>
</linearGradient>
<linearGradient id="paint12_linear_201_76" x1="377" y1="202" x2="1557" y2="202" gradientUnits="userSpaceOnUse">
<stop/>
<stop offset="0.473958" stop-color="#909090"/>
<stop offset="0.583333" stop-color="white"/>
<stop offset="0.713542" stop-color="white"/>
<stop offset="0.796875" stop-color="#E2E2E2"/>
<stop offset="1" stop-color="white"/>
</linearGradient>
<linearGradient id="paint13_linear_201_76" x1="383" y1="202" x2="1563" y2="202" gradientUnits="userSpaceOnUse">
<stop stop-color="#ED5858"/>
<stop offset="0.145833" stop-color="#FFB067"/>
<stop offset="0.286458" stop-color="#F9C716"/>
<stop offset="0.427083" stop-color="#B4F52B"/>
<stop offset="0.572917" stop-color="#43C4AD"/>
<stop offset="0.71875" stop-color="#766EAA"/>
<stop offset="0.859375" stop-color="#A63DA7"/>
<stop offset="1" stop-color="#A60D7B"/>
</linearGradient>
<linearGradient id="paint14_linear_201_76" x1="389" y1="202" x2="1569" y2="202" gradientUnits="userSpaceOnUse">
<stop stop-color="#ED5858"/>
<stop offset="0.145833" stop-color="#FFB067"/>
<stop offset="0.286458" stop-color="#F9C716"/>
<stop offset="0.427083" stop-color="#B4F52B"/>
<stop offset="0.572917" stop-color="#43C4AD"/>
<stop offset="0.71875" stop-color="#766EAA"/>
<stop offset="0.859375" stop-color="#A63DA7"/>
<stop offset="1" stop-color="#A60D7B"/>
</linearGradient>
<linearGradient id="paint15_linear_201_76" x1="389" y1="202" x2="1569" y2="202" gradientUnits="userSpaceOnUse">
<stop/>
<stop offset="0.473958" stop-color="#909090"/>
<stop offset="0.583333" stop-color="white"/>
<stop offset="0.713542" stop-color="white"/>
<stop offset="0.796875" stop-color="#E2E2E2"/>
<stop offset="1" stop-color="white"/>
</linearGradient>
<linearGradient id="paint16_linear_201_76" x1="395" y1="202" x2="1575" y2="202" gradientUnits="userSpaceOnUse">
<stop stop-color="#ED5858"/>
<stop offset="0.145833" stop-color="#FFB067"/>
<stop offset="0.286458" stop-color="#F9C716"/>
<stop offset="0.427083" stop-color="#B4F52B"/>
<stop offset="0.572917" stop-color="#43C4AD"/>
<stop offset="0.71875" stop-color="#766EAA"/>
<stop offset="0.859375" stop-color="#A63DA7"/>
<stop offset="1" stop-color="#A60D7B"/>
</linearGradient>
</defs>
</svg>
