<svg width="1070" height="182" viewBox="0 0 1070 182" fill="none" xmlns="http://www.w3.org/2000/svg">
<rect width="1070" height="182" fill="#383B41"/>
<rect x="16" y="117" width="75" height="48" fill="#D15F5F"/>
<path d="M27.5234 145.508C27.5234 140.117 30.2969 136.875 34.9844 136.875C36.1367 136.875 37.5039 137.109 38.4805 137.461V133.73C37.7773 133.438 36.625 133.262 35.4141 133.262C31.332 133.262 28.6953 135.293 27.9141 139.219H27.4844V133.809H19.5742V136.465H24.2812V152.344H20.0039V155H34.0859V152.344H27.5234V145.508ZM58.8125 149.531C58.2266 151.387 56.2539 152.52 53.5781 152.52C49.9648 152.52 47.6602 150.02 47.6602 146.133V145.273H62.0938V143.203C62.0938 137.07 58.8516 133.418 53.3438 133.418C47.9531 133.418 44.3789 137.09 44.3789 142.676V145.859C44.3789 151.895 47.7578 155.391 53.5781 155.391C58.0312 155.391 61.3906 153.027 62.0352 149.531H58.8125ZM53.3242 136.27C56.7422 136.27 58.8125 138.711 58.8125 142.754H47.6602C47.6602 138.691 49.7891 136.27 53.3242 136.27ZM76.4883 155.352C79.5156 155.352 81.7422 154.102 82.8359 151.758H83.207V155H86.4688V125.488H83.0898V137.09H82.7383C81.8203 134.766 79.5547 133.457 76.4883 133.457C71.5859 133.457 68.3828 136.992 68.3828 142.422V146.367C68.3828 151.816 71.5859 155.352 76.4883 155.352ZM77.4648 152.324C73.9688 152.324 71.7227 149.805 71.7227 145.898V142.852C71.7227 138.945 73.9688 136.445 77.4648 136.445C80.9414 136.445 83.1875 138.945 83.1875 142.852V145.898C83.1875 149.824 80.9414 152.324 77.4648 152.324Z" fill="white"/>
<rect x="101" y="117" width="124" height="48" fill="#AFE769"/>
<path d="M112.738 162.949C118.48 162.949 121.879 159.98 121.879 155V133.809H118.598V137.09H118.227C117.309 134.805 114.984 133.457 111.918 133.457C106.957 133.457 103.715 136.973 103.715 142.422V146.23C103.715 151.66 106.938 155.195 111.84 155.195C114.926 155.195 117.27 153.848 118.207 151.621H118.559V154.922C118.559 158.32 116.508 160.195 112.797 160.195C109.965 160.195 107.836 159.043 107.406 157.285H104.125C104.555 160.801 107.836 162.949 112.738 162.949ZM107.055 145.762V142.852C107.055 138.965 109.32 136.445 112.836 136.445C116.332 136.445 118.578 138.945 118.578 142.852V145.762C118.578 149.668 116.332 152.188 112.836 152.188C109.32 152.188 107.055 149.648 107.055 145.762ZM137.25 145.508C137.25 140.117 140.023 136.875 144.711 136.875C145.863 136.875 147.23 137.109 148.207 137.461V133.73C147.504 133.438 146.352 133.262 145.141 133.262C141.059 133.262 138.422 135.293 137.641 139.219H137.211V133.809H129.301V136.465H134.008V152.344H129.73V155H143.812V152.344H137.25V145.508ZM168.539 149.531C167.953 151.387 165.98 152.52 163.305 152.52C159.691 152.52 157.387 150.02 157.387 146.133V145.273H171.82V143.203C171.82 137.07 168.578 133.418 163.07 133.418C157.68 133.418 154.105 137.09 154.105 142.676V145.859C154.105 151.895 157.484 155.391 163.305 155.391C167.758 155.391 171.117 153.027 171.762 149.531H168.539ZM163.051 136.27C166.469 136.27 168.539 138.711 168.539 142.754H157.387C157.387 138.691 159.516 136.27 163.051 136.27ZM193.266 149.531C192.68 151.387 190.707 152.52 188.031 152.52C184.418 152.52 182.113 150.02 182.113 146.133V145.273H196.547V143.203C196.547 137.07 193.305 133.418 187.797 133.418C182.406 133.418 178.832 137.09 178.832 142.676V145.859C178.832 151.895 182.211 155.391 188.031 155.391C192.484 155.391 195.844 153.027 196.488 149.531H193.266ZM187.777 136.27C191.195 136.27 193.266 138.711 193.266 142.754H182.113C182.113 138.691 184.242 136.27 187.777 136.27ZM203.598 155H206.918V142.52C206.918 138.906 209.262 136.465 212.758 136.465C216.059 136.465 217.621 138.262 217.621 142.09V155H220.941V141.25C220.941 136.172 218.441 133.418 213.832 133.418C210.609 133.418 208.188 134.902 207.055 137.539H206.781V133.809H203.598V155Z" fill="white"/>
<rect x="235" y="117" width="149" height="48" fill="#FCFF73"/>
<path d="M241.426 162.539C245.352 162.539 247.129 160.996 248.984 155.781L256.973 133.809H253.438L247.52 151.543H247.266L241.328 133.809H237.715L245.508 155.137L245.137 156.289C244.258 158.75 243.164 159.648 241.172 159.648C240.859 159.648 240.254 159.629 240 159.57V162.48C240.293 162.52 240.938 162.539 241.426 162.539ZM277.812 149.531C277.227 151.387 275.254 152.52 272.578 152.52C268.965 152.52 266.66 150.02 266.66 146.133V145.273H281.094V143.203C281.094 137.07 277.852 133.418 272.344 133.418C266.953 133.418 263.379 137.09 263.379 142.676V145.859C263.379 151.895 266.758 155.391 272.578 155.391C277.031 155.391 280.391 153.027 281.035 149.531H277.812ZM272.324 136.27C275.742 136.27 277.812 138.711 277.812 142.754H266.66C266.66 138.691 268.789 136.27 272.324 136.27ZM306.074 155V152.246H299.082V125.488H288.574V128.242H295.762V152.246H288.516V155H306.074ZM330.801 155V152.246H323.809V125.488H313.301V128.242H320.488V152.246H313.242V155H330.801ZM346.27 155.391C351.875 155.391 355.449 151.738 355.449 146.016V142.812C355.449 137.09 351.875 133.438 346.27 133.438C340.664 133.438 337.09 137.09 337.09 142.812V146.016C337.09 151.738 340.664 155.391 346.27 155.391ZM346.27 136.367C349.902 136.367 352.168 138.945 352.168 143.105V145.703C352.168 149.883 349.902 152.441 346.27 152.441C342.637 152.441 340.371 149.883 340.371 145.703V143.105C340.371 138.945 342.637 136.367 346.27 136.367ZM382.441 133.809H379.199L376.328 150.801H375.977L372.559 133.828H369.434L366.016 150.801H365.664L362.793 133.809H359.551L364.102 155H367.285L370.879 138.477H371.113L374.707 155H377.891L382.441 133.809Z" fill="black"/>
<rect x="394" y="117" width="99" height="48" fill="#3A6ED1"/>
<path d="M407.691 155.352C412.594 155.352 415.797 151.816 415.797 146.367V142.422C415.797 136.992 412.594 133.457 407.691 133.457C404.625 133.457 402.379 134.766 401.441 137.09H401.09V125.488H397.711V155H400.973V151.758H401.344C402.438 154.102 404.664 155.352 407.691 155.352ZM406.715 152.324C403.238 152.324 401.012 149.824 401.012 145.898V142.852C401.012 138.945 403.238 136.445 406.715 136.445C410.23 136.445 412.457 138.945 412.457 142.852V145.898C412.457 149.805 410.23 152.324 406.715 152.324ZM440.348 155V152.246H433.355V125.488H422.848V128.242H430.035V152.246H422.789V155H440.348ZM464.488 133.809H461.168V146.289C461.168 149.902 458.824 152.344 455.328 152.344C452.027 152.344 450.465 150.547 450.465 146.719V133.809H447.145V147.559C447.145 152.637 449.645 155.391 454.254 155.391C457.477 155.391 459.898 153.906 461.031 151.27H461.305V155H464.488V133.809ZM486.266 149.531C485.68 151.387 483.707 152.52 481.031 152.52C477.418 152.52 475.113 150.02 475.113 146.133V145.273H489.547V143.203C489.547 137.07 486.305 133.418 480.797 133.418C475.406 133.418 471.832 137.09 471.832 142.676V145.859C471.832 151.895 475.211 155.391 481.031 155.391C485.484 155.391 488.844 153.027 489.488 149.531H486.266ZM480.777 136.27C484.195 136.27 486.266 138.711 486.266 142.754H475.113C475.113 138.691 477.242 136.27 480.777 136.27Z" fill="white"/>
<rect x="503" y="117" width="173" height="48" fill="#BD5EBF"/>
<path d="M525.578 139.395C525.578 135.469 524.035 133.418 521.086 133.418C518.957 133.418 517.258 134.707 516.711 136.738H516.359C515.91 134.648 514.504 133.418 512.512 133.418C510.52 133.418 508.996 134.668 508.469 136.797H508.117V133.809H505.148V155H508.137V140.703C508.137 138.066 509.309 136.445 511.184 136.445C512.98 136.445 513.918 137.793 513.918 140.352V155H516.887V140.703C516.887 138.066 518.02 136.445 519.875 136.445C521.652 136.445 522.59 137.793 522.59 140.371V155H525.578V139.395ZM537.941 155.371C541.027 155.371 543.332 154.102 544.348 151.836H544.68V155.02H547.844V140.508C547.844 136.094 544.992 133.555 540.012 133.555C535.676 133.555 532.395 135.879 532.004 139.277H535.266C535.812 137.461 537.531 136.426 539.973 136.426C542.922 136.426 544.543 137.891 544.543 140.547V142.461L538.723 142.754C533.898 143.008 531.203 145.234 531.203 148.984C531.203 152.832 533.898 155.371 537.941 155.371ZM538.898 152.461C536.223 152.461 534.562 151.094 534.562 148.867C534.562 146.66 536.125 145.391 539.094 145.254L544.543 145V147.5C544.543 150.332 542.102 152.461 538.898 152.461ZM564.191 162.949C569.934 162.949 573.332 159.98 573.332 155V133.809H570.051V137.09H569.68C568.762 134.805 566.438 133.457 563.371 133.457C558.41 133.457 555.168 136.973 555.168 142.422V146.23C555.168 151.66 558.391 155.195 563.293 155.195C566.379 155.195 568.723 153.848 569.66 151.621H570.012V154.922C570.012 158.32 567.961 160.195 564.25 160.195C561.418 160.195 559.289 159.043 558.859 157.285H555.578C556.008 160.801 559.289 162.949 564.191 162.949ZM558.508 145.762V142.852C558.508 138.965 560.773 136.445 564.289 136.445C567.785 136.445 570.031 138.945 570.031 142.852V145.762C570.031 149.668 567.785 152.188 564.289 152.188C560.773 152.188 558.508 149.648 558.508 145.762ZM595.266 149.531C594.68 151.387 592.707 152.52 590.031 152.52C586.418 152.52 584.113 150.02 584.113 146.133V145.273H598.547V143.203C598.547 137.07 595.305 133.418 589.797 133.418C584.406 133.418 580.832 137.09 580.832 142.676V145.859C580.832 151.895 584.211 155.391 590.031 155.391C594.484 155.391 597.844 153.027 598.488 149.531H595.266ZM589.777 136.27C593.195 136.27 595.266 138.711 595.266 142.754H584.113C584.113 138.691 586.242 136.27 589.777 136.27ZM605.598 155H608.918V142.52C608.918 138.906 611.262 136.465 614.758 136.465C618.059 136.465 619.621 138.262 619.621 142.09V155H622.941V141.25C622.941 136.172 620.441 133.418 615.832 133.418C612.609 133.418 610.188 134.902 609.055 137.539H608.781V133.809H605.598V155ZM635.383 128.125V133.867H629.738V136.699H635.383V148.691C635.383 153.105 637.824 155.098 643.078 155.098C644.094 155.098 646.672 155 647.199 154.902V152.09C646.633 152.148 644.504 152.207 643.312 152.207C640.324 152.207 638.703 150.957 638.703 148.652V136.699H647.258V133.867H638.664V128.125H635.383ZM661.574 155.371C664.66 155.371 666.965 154.102 667.98 151.836H668.312V155.02H671.477V140.508C671.477 136.094 668.625 133.555 663.645 133.555C659.309 133.555 656.027 135.879 655.637 139.277H658.898C659.445 137.461 661.164 136.426 663.605 136.426C666.555 136.426 668.176 137.891 668.176 140.547V142.461L662.355 142.754C657.531 143.008 654.836 145.234 654.836 148.984C654.836 152.832 657.531 155.371 661.574 155.371ZM662.531 152.461C659.855 152.461 658.195 151.094 658.195 148.867C658.195 146.66 659.758 145.391 662.727 145.254L668.176 145V147.5C668.176 150.332 665.734 152.461 662.531 152.461Z" fill="white"/>
<rect x="687" y="117" width="99" height="48" fill="#8ED6ED"/>
<path d="M708.191 140.41C707.645 136.055 704.441 133.398 699.754 133.398C693.992 133.398 690.633 136.934 690.633 143.008V145.781C690.633 151.855 693.992 155.391 699.754 155.391C704.441 155.391 707.664 152.754 708.191 148.438H704.91C704.5 150.859 702.43 152.402 699.695 152.402C696.004 152.402 693.953 149.902 693.953 145.352V143.438C693.953 138.887 696.004 136.367 699.695 136.367C702.43 136.367 704.5 137.93 704.91 140.41H708.191ZM718.152 162.539C722.078 162.539 723.855 160.996 725.711 155.781L733.699 133.809H730.164L724.246 151.543H723.992L718.055 133.809H714.441L722.234 155.137L721.863 156.289C720.984 158.75 719.891 159.648 717.898 159.648C717.586 159.648 716.98 159.629 716.727 159.57V162.48C717.02 162.52 717.664 162.539 718.152 162.539ZM746.668 155.371C749.754 155.371 752.059 154.102 753.074 151.836H753.406V155.02H756.57V140.508C756.57 136.094 753.719 133.555 748.738 133.555C744.402 133.555 741.121 135.879 740.73 139.277H743.992C744.539 137.461 746.258 136.426 748.699 136.426C751.648 136.426 753.27 137.891 753.27 140.547V142.461L747.449 142.754C742.625 143.008 739.93 145.234 739.93 148.984C739.93 152.832 742.625 155.371 746.668 155.371ZM747.625 152.461C744.949 152.461 743.289 151.094 743.289 148.867C743.289 146.66 744.852 145.391 747.82 145.254L753.27 145V147.5C753.27 150.332 750.828 152.461 747.625 152.461ZM764.871 155H768.191V142.52C768.191 138.906 770.535 136.465 774.031 136.465C777.332 136.465 778.895 138.262 778.895 142.09V155H782.215V141.25C782.215 136.172 779.715 133.418 775.105 133.418C771.883 133.418 769.461 134.902 768.328 137.539H768.055V133.809H764.871V155Z" fill="white"/>
<rect x="796" y="118" width="124" height="48" fill="white"/>
<path d="M819.809 133.809H816.566L813.695 150.801H813.344L809.926 133.828H806.801L803.383 150.801H803.031L800.16 133.809H796.918L801.469 155H804.652L808.246 138.477H808.48L812.074 155H815.258L819.809 133.809ZM824.398 155H827.719V142.539C827.719 138.926 830.082 136.484 833.578 136.484C836.898 136.484 838.461 138.301 838.461 142.109V155H841.781V141.27C841.781 136.211 839.281 133.438 834.672 133.438C831.43 133.438 828.988 134.922 827.875 137.559H827.602V125.488H824.398V155ZM858.188 128.613C859.75 128.613 860.941 127.441 860.941 125.879C860.941 124.336 859.75 123.164 858.188 123.164C856.625 123.164 855.434 124.336 855.434 125.879C855.434 127.441 856.625 128.613 858.188 128.613ZM867.074 155V152.246H860.062V133.809H849.574V136.562H856.781V152.246H849.516V155H867.074ZM878.93 128.125V133.867H873.285V136.699H878.93V148.691C878.93 153.105 881.371 155.098 886.625 155.098C887.641 155.098 890.219 155 890.746 154.902V152.09C890.18 152.148 888.051 152.207 886.859 152.207C883.871 152.207 882.25 150.957 882.25 148.652V136.699H890.805V133.867H882.211V128.125H878.93ZM912.992 149.531C912.406 151.387 910.434 152.52 907.758 152.52C904.145 152.52 901.84 150.02 901.84 146.133V145.273H916.273V143.203C916.273 137.07 913.031 133.418 907.523 133.418C902.133 133.418 898.559 137.09 898.559 142.676V145.859C898.559 151.895 901.938 155.391 907.758 155.391C912.211 155.391 915.57 153.027 916.215 149.531H912.992ZM907.504 136.27C910.922 136.27 912.992 138.711 912.992 142.754H901.84C901.84 138.691 903.969 136.27 907.504 136.27Z" fill="black"/>
<rect x="930" y="118" width="124" height="48" fill="black"/>
<path d="M943.691 155.352C948.594 155.352 951.797 151.816 951.797 146.367V142.422C951.797 136.992 948.594 133.457 943.691 133.457C940.625 133.457 938.379 134.766 937.441 137.09H937.09V125.488H933.711V155H936.973V151.758H937.344C938.438 154.102 940.664 155.352 943.691 155.352ZM942.715 152.324C939.238 152.324 937.012 149.824 937.012 145.898V142.852C937.012 138.945 939.238 136.445 942.715 136.445C946.23 136.445 948.457 138.945 948.457 142.852V145.898C948.457 149.805 946.23 152.324 942.715 152.324ZM976.348 155V152.246H969.355V125.488H958.848V128.242H966.035V152.246H958.789V155H976.348ZM989.668 155.371C992.754 155.371 995.059 154.102 996.074 151.836H996.406V155.02H999.57V140.508C999.57 136.094 996.719 133.555 991.738 133.555C987.402 133.555 984.121 135.879 983.73 139.277H986.992C987.539 137.461 989.258 136.426 991.699 136.426C994.648 136.426 996.27 137.891 996.27 140.547V142.461L990.449 142.754C985.625 143.008 982.93 145.234 982.93 148.984C982.93 152.832 985.625 155.371 989.668 155.371ZM990.625 152.461C987.949 152.461 986.289 151.094 986.289 148.867C986.289 146.66 987.852 145.391 990.82 145.254L996.27 145V147.5C996.27 150.332 993.828 152.461 990.625 152.461ZM1025.37 140.41C1024.82 136.055 1021.62 133.398 1016.93 133.398C1011.17 133.398 1007.81 136.934 1007.81 143.008V145.781C1007.81 151.855 1011.17 155.391 1016.93 155.391C1021.62 155.391 1024.84 152.754 1025.37 148.438H1022.09C1021.68 150.859 1019.61 152.402 1016.88 152.402C1013.18 152.402 1011.13 149.902 1011.13 145.352V143.438C1011.13 138.887 1013.18 136.367 1016.88 136.367C1019.61 136.367 1021.68 137.93 1022.09 140.41H1025.37ZM1037.73 143.32H1037.48V125.488H1034.16V155H1037.48V147.285L1040.41 144.473L1047.64 155H1051.58L1042.77 142.207L1051 133.809H1046.97L1037.73 143.32Z" fill="white"/>
<path d="M27.5234 94.5078C27.5234 89.1172 30.2969 85.875 34.9844 85.875C36.1367 85.875 37.5039 86.1094 38.4805 86.4609V82.7305C37.7773 82.4375 36.625 82.2617 35.4141 82.2617C31.332 82.2617 28.6953 84.293 27.9141 88.2188H27.4844V82.8086H19.5742V85.4648H24.2812V101.344H20.0039V104H34.0859V101.344H27.5234V94.5078ZM58.8125 98.5312C58.2266 100.387 56.2539 101.52 53.5781 101.52C49.9648 101.52 47.6602 99.0195 47.6602 95.1328V94.2734H62.0938V92.2031C62.0938 86.0703 58.8516 82.418 53.3438 82.418C47.9531 82.418 44.3789 86.0898 44.3789 91.6758V94.8594C44.3789 100.895 47.7578 104.391 53.5781 104.391C58.0312 104.391 61.3906 102.027 62.0352 98.5312H58.8125ZM53.3242 85.2695C56.7422 85.2695 58.8125 87.7109 58.8125 91.7539H47.6602C47.6602 87.6914 49.7891 85.2695 53.3242 85.2695ZM76.4883 104.352C79.5156 104.352 81.7422 103.102 82.8359 100.758H83.207V104H86.4688V74.4883H83.0898V86.0898H82.7383C81.8203 83.7656 79.5547 82.457 76.4883 82.457C71.5859 82.457 68.3828 85.9922 68.3828 91.4219V95.3672C68.3828 100.816 71.5859 104.352 76.4883 104.352ZM77.4648 101.324C73.9688 101.324 71.7227 98.8047 71.7227 94.8984V91.8516C71.7227 87.9453 73.9688 85.4453 77.4648 85.4453C80.9414 85.4453 83.1875 87.9453 83.1875 91.8516V94.8984C83.1875 98.8242 80.9414 101.324 77.4648 101.324Z" fill="#D15F5F"/>
<path d="M112.738 111.949C118.48 111.949 121.879 108.98 121.879 104V82.8086H118.598V86.0898H118.227C117.309 83.8047 114.984 82.457 111.918 82.457C106.957 82.457 103.715 85.9727 103.715 91.4219V95.2305C103.715 100.66 106.938 104.195 111.84 104.195C114.926 104.195 117.27 102.848 118.207 100.621H118.559V103.922C118.559 107.32 116.508 109.195 112.797 109.195C109.965 109.195 107.836 108.043 107.406 106.285H104.125C104.555 109.801 107.836 111.949 112.738 111.949ZM107.055 94.7617V91.8516C107.055 87.9648 109.32 85.4453 112.836 85.4453C116.332 85.4453 118.578 87.9453 118.578 91.8516V94.7617C118.578 98.668 116.332 101.188 112.836 101.188C109.32 101.188 107.055 98.6484 107.055 94.7617ZM137.25 94.5078C137.25 89.1172 140.023 85.875 144.711 85.875C145.863 85.875 147.23 86.1094 148.207 86.4609V82.7305C147.504 82.4375 146.352 82.2617 145.141 82.2617C141.059 82.2617 138.422 84.293 137.641 88.2188H137.211V82.8086H129.301V85.4648H134.008V101.344H129.73V104H143.812V101.344H137.25V94.5078ZM168.539 98.5312C167.953 100.387 165.98 101.52 163.305 101.52C159.691 101.52 157.387 99.0195 157.387 95.1328V94.2734H171.82V92.2031C171.82 86.0703 168.578 82.418 163.07 82.418C157.68 82.418 154.105 86.0898 154.105 91.6758V94.8594C154.105 100.895 157.484 104.391 163.305 104.391C167.758 104.391 171.117 102.027 171.762 98.5312H168.539ZM163.051 85.2695C166.469 85.2695 168.539 87.7109 168.539 91.7539H157.387C157.387 87.6914 159.516 85.2695 163.051 85.2695ZM193.266 98.5312C192.68 100.387 190.707 101.52 188.031 101.52C184.418 101.52 182.113 99.0195 182.113 95.1328V94.2734H196.547V92.2031C196.547 86.0703 193.305 82.418 187.797 82.418C182.406 82.418 178.832 86.0898 178.832 91.6758V94.8594C178.832 100.895 182.211 104.391 188.031 104.391C192.484 104.391 195.844 102.027 196.488 98.5312H193.266ZM187.777 85.2695C191.195 85.2695 193.266 87.7109 193.266 91.7539H182.113C182.113 87.6914 184.242 85.2695 187.777 85.2695ZM203.598 104H206.918V91.5195C206.918 87.9062 209.262 85.4648 212.758 85.4648C216.059 85.4648 217.621 87.2617 217.621 91.0898V104H220.941V90.25C220.941 85.1719 218.441 82.418 213.832 82.418C210.609 82.418 208.188 83.9023 207.055 86.5391H206.781V82.8086H203.598V104Z" fill="#AFE769"/>
<path d="M241.426 111.539C245.352 111.539 247.129 109.996 248.984 104.781L256.973 82.8086H253.438L247.52 100.543H247.266L241.328 82.8086H237.715L245.508 104.137L245.137 105.289C244.258 107.75 243.164 108.648 241.172 108.648C240.859 108.648 240.254 108.629 240 108.57V111.48C240.293 111.52 240.938 111.539 241.426 111.539ZM277.812 98.5312C277.227 100.387 275.254 101.52 272.578 101.52C268.965 101.52 266.66 99.0195 266.66 95.1328V94.2734H281.094V92.2031C281.094 86.0703 277.852 82.418 272.344 82.418C266.953 82.418 263.379 86.0898 263.379 91.6758V94.8594C263.379 100.895 266.758 104.391 272.578 104.391C277.031 104.391 280.391 102.027 281.035 98.5312H277.812ZM272.324 85.2695C275.742 85.2695 277.812 87.7109 277.812 91.7539H266.66C266.66 87.6914 268.789 85.2695 272.324 85.2695ZM306.074 104V101.246H299.082V74.4883H288.574V77.2422H295.762V101.246H288.516V104H306.074ZM330.801 104V101.246H323.809V74.4883H313.301V77.2422H320.488V101.246H313.242V104H330.801ZM346.27 104.391C351.875 104.391 355.449 100.738 355.449 95.0156V91.8125C355.449 86.0898 351.875 82.4375 346.27 82.4375C340.664 82.4375 337.09 86.0898 337.09 91.8125V95.0156C337.09 100.738 340.664 104.391 346.27 104.391ZM346.27 85.3672C349.902 85.3672 352.168 87.9453 352.168 92.1055V94.7031C352.168 98.8828 349.902 101.441 346.27 101.441C342.637 101.441 340.371 98.8828 340.371 94.7031V92.1055C340.371 87.9453 342.637 85.3672 346.27 85.3672ZM382.441 82.8086H379.199L376.328 99.8008H375.977L372.559 82.8281H369.434L366.016 99.8008H365.664L362.793 82.8086H359.551L364.102 104H367.285L370.879 87.4766H371.113L374.707 104H377.891L382.441 82.8086Z" fill="#FCFF73"/>
<path d="M407.691 104.352C412.594 104.352 415.797 100.816 415.797 95.3672V91.4219C415.797 85.9922 412.594 82.457 407.691 82.457C404.625 82.457 402.379 83.7656 401.441 86.0898H401.09V74.4883H397.711V104H400.973V100.758H401.344C402.438 103.102 404.664 104.352 407.691 104.352ZM406.715 101.324C403.238 101.324 401.012 98.8242 401.012 94.8984V91.8516C401.012 87.9453 403.238 85.4453 406.715 85.4453C410.23 85.4453 412.457 87.9453 412.457 91.8516V94.8984C412.457 98.8047 410.23 101.324 406.715 101.324ZM440.348 104V101.246H433.355V74.4883H422.848V77.2422H430.035V101.246H422.789V104H440.348ZM464.488 82.8086H461.168V95.2891C461.168 98.9023 458.824 101.344 455.328 101.344C452.027 101.344 450.465 99.5469 450.465 95.7188V82.8086H447.145V96.5586C447.145 101.637 449.645 104.391 454.254 104.391C457.477 104.391 459.898 102.906 461.031 100.27H461.305V104H464.488V82.8086ZM486.266 98.5312C485.68 100.387 483.707 101.52 481.031 101.52C477.418 101.52 475.113 99.0195 475.113 95.1328V94.2734H489.547V92.2031C489.547 86.0703 486.305 82.418 480.797 82.418C475.406 82.418 471.832 86.0898 471.832 91.6758V94.8594C471.832 100.895 475.211 104.391 481.031 104.391C485.484 104.391 488.844 102.027 489.488 98.5312H486.266ZM480.777 85.2695C484.195 85.2695 486.266 87.7109 486.266 91.7539H475.113C475.113 87.6914 477.242 85.2695 480.777 85.2695Z" fill="#3A6ED1"/>
<path d="M525.578 88.3945C525.578 84.4688 524.035 82.418 521.086 82.418C518.957 82.418 517.258 83.707 516.711 85.7383H516.359C515.91 83.6484 514.504 82.418 512.512 82.418C510.52 82.418 508.996 83.668 508.469 85.7969H508.117V82.8086H505.148V104H508.137V89.7031C508.137 87.0664 509.309 85.4453 511.184 85.4453C512.98 85.4453 513.918 86.793 513.918 89.3516V104H516.887V89.7031C516.887 87.0664 518.02 85.4453 519.875 85.4453C521.652 85.4453 522.59 86.793 522.59 89.3711V104H525.578V88.3945ZM537.941 104.371C541.027 104.371 543.332 103.102 544.348 100.836H544.68V104.02H547.844V89.5078C547.844 85.0938 544.992 82.5547 540.012 82.5547C535.676 82.5547 532.395 84.8789 532.004 88.2773H535.266C535.812 86.4609 537.531 85.4258 539.973 85.4258C542.922 85.4258 544.543 86.8906 544.543 89.5469V91.4609L538.723 91.7539C533.898 92.0078 531.203 94.2344 531.203 97.9844C531.203 101.832 533.898 104.371 537.941 104.371ZM538.898 101.461C536.223 101.461 534.562 100.094 534.562 97.8672C534.562 95.6602 536.125 94.3906 539.094 94.2539L544.543 94V96.5C544.543 99.332 542.102 101.461 538.898 101.461ZM564.191 111.949C569.934 111.949 573.332 108.98 573.332 104V82.8086H570.051V86.0898H569.68C568.762 83.8047 566.438 82.457 563.371 82.457C558.41 82.457 555.168 85.9727 555.168 91.4219V95.2305C555.168 100.66 558.391 104.195 563.293 104.195C566.379 104.195 568.723 102.848 569.66 100.621H570.012V103.922C570.012 107.32 567.961 109.195 564.25 109.195C561.418 109.195 559.289 108.043 558.859 106.285H555.578C556.008 109.801 559.289 111.949 564.191 111.949ZM558.508 94.7617V91.8516C558.508 87.9648 560.773 85.4453 564.289 85.4453C567.785 85.4453 570.031 87.9453 570.031 91.8516V94.7617C570.031 98.668 567.785 101.188 564.289 101.188C560.773 101.188 558.508 98.6484 558.508 94.7617ZM595.266 98.5312C594.68 100.387 592.707 101.52 590.031 101.52C586.418 101.52 584.113 99.0195 584.113 95.1328V94.2734H598.547V92.2031C598.547 86.0703 595.305 82.418 589.797 82.418C584.406 82.418 580.832 86.0898 580.832 91.6758V94.8594C580.832 100.895 584.211 104.391 590.031 104.391C594.484 104.391 597.844 102.027 598.488 98.5312H595.266ZM589.777 85.2695C593.195 85.2695 595.266 87.7109 595.266 91.7539H584.113C584.113 87.6914 586.242 85.2695 589.777 85.2695ZM605.598 104H608.918V91.5195C608.918 87.9062 611.262 85.4648 614.758 85.4648C618.059 85.4648 619.621 87.2617 619.621 91.0898V104H622.941V90.25C622.941 85.1719 620.441 82.418 615.832 82.418C612.609 82.418 610.188 83.9023 609.055 86.5391H608.781V82.8086H605.598V104ZM635.383 77.125V82.8672H629.738V85.6992H635.383V97.6914C635.383 102.105 637.824 104.098 643.078 104.098C644.094 104.098 646.672 104 647.199 103.902V101.09C646.633 101.148 644.504 101.207 643.312 101.207C640.324 101.207 638.703 99.957 638.703 97.6523V85.6992H647.258V82.8672H638.664V77.125H635.383ZM661.574 104.371C664.66 104.371 666.965 103.102 667.98 100.836H668.312V104.02H671.477V89.5078C671.477 85.0938 668.625 82.5547 663.645 82.5547C659.309 82.5547 656.027 84.8789 655.637 88.2773H658.898C659.445 86.4609 661.164 85.4258 663.605 85.4258C666.555 85.4258 668.176 86.8906 668.176 89.5469V91.4609L662.355 91.7539C657.531 92.0078 654.836 94.2344 654.836 97.9844C654.836 101.832 657.531 104.371 661.574 104.371ZM662.531 101.461C659.855 101.461 658.195 100.094 658.195 97.8672C658.195 95.6602 659.758 94.3906 662.727 94.2539L668.176 94V96.5C668.176 99.332 665.734 101.461 662.531 101.461Z" fill="#BD5EBF"/>
<path d="M708.191 89.4102C707.645 85.0547 704.441 82.3984 699.754 82.3984C693.992 82.3984 690.633 85.9336 690.633 92.0078V94.7812C690.633 100.855 693.992 104.391 699.754 104.391C704.441 104.391 707.664 101.754 708.191 97.4375H704.91C704.5 99.8594 702.43 101.402 699.695 101.402C696.004 101.402 693.953 98.9023 693.953 94.3516V92.4375C693.953 87.8867 696.004 85.3672 699.695 85.3672C702.43 85.3672 704.5 86.9297 704.91 89.4102H708.191ZM718.152 111.539C722.078 111.539 723.855 109.996 725.711 104.781L733.699 82.8086H730.164L724.246 100.543H723.992L718.055 82.8086H714.441L722.234 104.137L721.863 105.289C720.984 107.75 719.891 108.648 717.898 108.648C717.586 108.648 716.98 108.629 716.727 108.57V111.48C717.02 111.52 717.664 111.539 718.152 111.539ZM746.668 104.371C749.754 104.371 752.059 103.102 753.074 100.836H753.406V104.02H756.57V89.5078C756.57 85.0938 753.719 82.5547 748.738 82.5547C744.402 82.5547 741.121 84.8789 740.73 88.2773H743.992C744.539 86.4609 746.258 85.4258 748.699 85.4258C751.648 85.4258 753.27 86.8906 753.27 89.5469V91.4609L747.449 91.7539C742.625 92.0078 739.93 94.2344 739.93 97.9844C739.93 101.832 742.625 104.371 746.668 104.371ZM747.625 101.461C744.949 101.461 743.289 100.094 743.289 97.8672C743.289 95.6602 744.852 94.3906 747.82 94.2539L753.27 94V96.5C753.27 99.332 750.828 101.461 747.625 101.461ZM764.871 104H768.191V91.5195C768.191 87.9062 770.535 85.4648 774.031 85.4648C777.332 85.4648 778.895 87.2617 778.895 91.0898V104H782.215V90.25C782.215 85.1719 779.715 82.418 775.105 82.418C771.883 82.418 769.461 83.9023 768.328 86.5391H768.055V82.8086H764.871V104Z" fill="#8ED6ED"/>
<path d="M819.809 82.8086H816.566L813.695 99.8008H813.344L809.926 82.8281H806.801L803.383 99.8008H803.031L800.16 82.8086H796.918L801.469 104H804.652L808.246 87.4766H808.48L812.074 104H815.258L819.809 82.8086ZM824.398 104H827.719V91.5391C827.719 87.9258 830.082 85.4844 833.578 85.4844C836.898 85.4844 838.461 87.3008 838.461 91.1094V104H841.781V90.2695C841.781 85.2109 839.281 82.4375 834.672 82.4375C831.43 82.4375 828.988 83.9219 827.875 86.5586H827.602V74.4883H824.398V104ZM858.188 77.6133C859.75 77.6133 860.941 76.4414 860.941 74.8789C860.941 73.3359 859.75 72.1641 858.188 72.1641C856.625 72.1641 855.434 73.3359 855.434 74.8789C855.434 76.4414 856.625 77.6133 858.188 77.6133ZM867.074 104V101.246H860.062V82.8086H849.574V85.5625H856.781V101.246H849.516V104H867.074ZM878.93 77.125V82.8672H873.285V85.6992H878.93V97.6914C878.93 102.105 881.371 104.098 886.625 104.098C887.641 104.098 890.219 104 890.746 103.902V101.09C890.18 101.148 888.051 101.207 886.859 101.207C883.871 101.207 882.25 99.957 882.25 97.6523V85.6992H890.805V82.8672H882.211V77.125H878.93ZM912.992 98.5312C912.406 100.387 910.434 101.52 907.758 101.52C904.145 101.52 901.84 99.0195 901.84 95.1328V94.2734H916.273V92.2031C916.273 86.0703 913.031 82.418 907.523 82.418C902.133 82.418 898.559 86.0898 898.559 91.6758V94.8594C898.559 100.895 901.938 104.391 907.758 104.391C912.211 104.391 915.57 102.027 916.215 98.5312H912.992ZM907.504 85.2695C910.922 85.2695 912.992 87.7109 912.992 91.7539H901.84C901.84 87.6914 903.969 85.2695 907.504 85.2695Z" fill="white"/>
<path d="M943.691 104.352C948.594 104.352 951.797 100.816 951.797 95.3672V91.4219C951.797 85.9922 948.594 82.457 943.691 82.457C940.625 82.457 938.379 83.7656 937.441 86.0898H937.09V74.4883H933.711V104H936.973V100.758H937.344C938.438 103.102 940.664 104.352 943.691 104.352ZM942.715 101.324C939.238 101.324 937.012 98.8242 937.012 94.8984V91.8516C937.012 87.9453 939.238 85.4453 942.715 85.4453C946.23 85.4453 948.457 87.9453 948.457 91.8516V94.8984C948.457 98.8047 946.23 101.324 942.715 101.324ZM976.348 104V101.246H969.355V74.4883H958.848V77.2422H966.035V101.246H958.789V104H976.348ZM989.668 104.371C992.754 104.371 995.059 103.102 996.074 100.836H996.406V104.02H999.57V89.5078C999.57 85.0938 996.719 82.5547 991.738 82.5547C987.402 82.5547 984.121 84.8789 983.73 88.2773H986.992C987.539 86.4609 989.258 85.4258 991.699 85.4258C994.648 85.4258 996.27 86.8906 996.27 89.5469V91.4609L990.449 91.7539C985.625 92.0078 982.93 94.2344 982.93 97.9844C982.93 101.832 985.625 104.371 989.668 104.371ZM990.625 101.461C987.949 101.461 986.289 100.094 986.289 97.8672C986.289 95.6602 987.852 94.3906 990.82 94.2539L996.27 94V96.5C996.27 99.332 993.828 101.461 990.625 101.461ZM1025.37 89.4102C1024.82 85.0547 1021.62 82.3984 1016.93 82.3984C1011.17 82.3984 1007.81 85.9336 1007.81 92.0078V94.7812C1007.81 100.855 1011.17 104.391 1016.93 104.391C1021.62 104.391 1024.84 101.754 1025.37 97.4375H1022.09C1021.68 99.8594 1019.61 101.402 1016.88 101.402C1013.18 101.402 1011.13 98.9023 1011.13 94.3516V92.4375C1011.13 87.8867 1013.18 85.3672 1016.88 85.3672C1019.61 85.3672 1021.68 86.9297 1022.09 89.4102H1025.37ZM1037.73 92.3203H1037.48V74.4883H1034.16V104H1037.48V96.2852L1040.41 93.4727L1047.64 104H1051.58L1042.77 91.207L1051 82.8086H1046.97L1037.73 92.3203Z" fill="black"/>
<path d="M725.648 37.5312C725.648 40.5391 727.543 42.4727 731.371 43.3516L734.516 44.0742C737.211 44.6797 738.246 45.5781 738.246 47.2578C738.246 49.2891 736.41 50.5977 733.52 50.5977C730.785 50.5977 728.91 49.4648 728.422 47.5117H725.043C725.414 51.1445 728.598 53.3906 733.402 53.3906C738.422 53.3906 741.684 50.8516 741.684 46.9453C741.684 43.8789 739.809 42.082 735.688 41.1445L732.699 40.4609C730.043 39.875 728.949 38.957 728.949 37.3359C728.949 35.4023 730.688 34.1523 733.383 34.1523C735.863 34.1523 737.641 35.2852 738.031 37.1406H741.234C740.844 33.6055 737.855 31.3984 733.441 31.3984C728.773 31.3984 725.648 33.8594 725.648 37.5312ZM754.477 26.125V31.8672H748.832V34.6992H754.477V46.6914C754.477 51.1055 756.918 53.0977 762.172 53.0977C763.188 53.0977 765.766 53 766.293 52.9023V50.0898C765.727 50.1484 763.598 50.207 762.406 50.207C759.418 50.207 757.797 48.957 757.797 46.6523V34.6992H766.352V31.8672H757.758V26.125H754.477ZM781.977 43.5078C781.977 38.1172 784.75 34.875 789.438 34.875C790.59 34.875 791.957 35.1094 792.934 35.4609V31.7305C792.23 31.4375 791.078 31.2617 789.867 31.2617C785.785 31.2617 783.148 33.293 782.367 37.2188H781.938V31.8086H774.027V34.4648H778.734V50.3438H774.457V53H788.539V50.3438H781.977V43.5078ZM807.914 26.6133C809.477 26.6133 810.668 25.4414 810.668 23.8789C810.668 22.3359 809.477 21.1641 807.914 21.1641C806.352 21.1641 805.16 22.3359 805.16 23.8789C805.16 25.4414 806.352 26.6133 807.914 26.6133ZM816.801 53V50.2461H809.789V31.8086H799.301V34.5625H806.508V50.2461H799.242V53H816.801ZM828.734 41.3203H828.48V23.4883H825.16V53H828.48V45.2852L831.41 42.4727L838.637 53H842.582L833.773 40.207L841.996 31.8086H837.973L828.734 41.3203ZM862.719 47.5312C862.133 49.3867 860.16 50.5195 857.484 50.5195C853.871 50.5195 851.566 48.0195 851.566 44.1328V43.2734H866V41.2031C866 35.0703 862.758 31.418 857.25 31.418C851.859 31.418 848.285 35.0898 848.285 40.6758V43.8594C848.285 49.8945 851.664 53.3906 857.484 53.3906C861.938 53.3906 865.297 51.0273 865.941 47.5312H862.719ZM857.23 34.2695C860.648 34.2695 862.719 36.7109 862.719 40.7539H851.566C851.566 36.6914 853.695 34.2695 857.23 34.2695ZM878.109 26.125V31.8672H872.465V34.6992H878.109V46.6914C878.109 51.1055 880.551 53.0977 885.805 53.0977C886.82 53.0977 889.398 53 889.926 52.9023V50.0898C889.359 50.1484 887.23 50.207 886.039 50.207C883.051 50.207 881.43 48.957 881.43 46.6523V34.6992H889.984V31.8672H881.391V26.125H878.109ZM897.758 53H901.078V40.5391C901.078 36.9258 903.441 34.4844 906.938 34.4844C910.258 34.4844 911.82 36.3008 911.82 40.1094V53H915.141V39.2695C915.141 34.2109 912.641 31.4375 908.031 31.4375C904.789 31.4375 902.348 32.9219 901.234 35.5586H900.961V23.4883H897.758V53ZM930.336 43.5078C930.336 38.1172 933.109 34.875 937.797 34.875C938.949 34.875 940.316 35.1094 941.293 35.4609V31.7305C940.59 31.4375 939.438 31.2617 938.227 31.2617C934.145 31.2617 931.508 33.293 930.727 37.2188H930.297V31.8086H922.387V34.4648H927.094V50.3438H922.816V53H936.898V50.3438H930.336V43.5078ZM955.902 53.3906C961.508 53.3906 965.082 49.7383 965.082 44.0156V40.8125C965.082 35.0898 961.508 31.4375 955.902 31.4375C950.297 31.4375 946.723 35.0898 946.723 40.8125V44.0156C946.723 49.7383 950.297 53.3906 955.902 53.3906ZM955.902 34.3672C959.535 34.3672 961.801 36.9453 961.801 41.1055V43.7031C961.801 47.8828 959.535 50.4414 955.902 50.4414C952.27 50.4414 950.004 47.8828 950.004 43.7031V41.1055C950.004 36.9453 952.27 34.3672 955.902 34.3672ZM989.301 31.8086H985.98V44.2891C985.98 47.9023 983.637 50.3438 980.141 50.3438C976.84 50.3438 975.277 48.5469 975.277 44.7188V31.8086H971.957V45.5586C971.957 50.6367 974.457 53.3906 979.066 53.3906C982.289 53.3906 984.711 51.9062 985.844 49.2695H986.117V53H989.301V31.8086ZM1004.73 60.9492C1010.47 60.9492 1013.87 57.9805 1013.87 53V31.8086H1010.59V35.0898H1010.22C1009.3 32.8047 1006.98 31.457 1003.91 31.457C998.949 31.457 995.707 34.9727 995.707 40.4219V44.2305C995.707 49.6602 998.93 53.1953 1003.83 53.1953C1006.92 53.1953 1009.26 51.8477 1010.2 49.6211H1010.55V52.9219C1010.55 56.3203 1008.5 58.1953 1004.79 58.1953C1001.96 58.1953 999.828 57.043 999.398 55.2852H996.117C996.547 58.8008 999.828 60.9492 1004.73 60.9492ZM999.047 43.7617V40.8516C999.047 36.9648 1001.31 34.4453 1004.83 34.4453C1008.32 34.4453 1010.57 36.9453 1010.57 40.8516V43.7617C1010.57 47.668 1008.32 50.1875 1004.83 50.1875C1001.31 50.1875 999.047 47.6484 999.047 43.7617ZM1021.39 53H1024.71V40.5391C1024.71 36.9258 1027.07 34.4844 1030.57 34.4844C1033.89 34.4844 1035.45 36.3008 1035.45 40.1094V53H1038.77V39.2695C1038.77 34.2109 1036.27 31.4375 1031.66 31.4375C1028.42 31.4375 1025.98 32.9219 1024.87 35.5586H1024.59V23.4883H1021.39V53Z" fill="white"/>
<path d="M721 41.2812H1042.45V43.2344H721V41.2812Z" fill="white"/>
<path fill-rule="evenodd" clip-rule="evenodd" d="M711 15H612V63H711V15ZM622.371 43.3516C618.543 42.4727 616.648 40.5391 616.648 37.5312C616.648 33.8594 619.773 31.3984 624.441 31.3984C628.855 31.3984 631.844 33.6055 632.234 37.1406H629.031C628.641 35.2852 626.863 34.1523 624.383 34.1523C621.688 34.1523 619.949 35.4023 619.949 37.3359C619.949 38.957 621.043 39.875 623.699 40.4609L626.688 41.1445C630.809 42.082 632.684 43.8789 632.684 46.9453C632.684 50.8516 629.422 53.3906 624.402 53.3906C619.598 53.3906 616.414 51.1445 616.043 47.5117H619.422C619.91 49.4648 621.785 50.5977 624.52 50.5977C627.41 50.5977 629.246 49.2891 629.246 47.2578C629.246 45.5781 628.211 44.6797 625.516 44.0742L622.371 43.3516ZM657.293 31.8086H660.535L655.984 53H652.801L649.207 36.4766H648.973L645.379 53H642.195L637.645 31.8086H640.887L643.758 48.8008H644.109L647.527 31.8281H650.652L654.07 48.8008H654.422L657.293 31.8086ZM678.074 49.8359C677.059 52.1016 674.754 53.3711 671.668 53.3711C667.625 53.3711 664.93 50.832 664.93 46.9844C664.93 43.2344 667.625 41.0078 672.449 40.7539L678.27 40.4609V38.5469C678.27 35.8906 676.648 34.4258 673.699 34.4258C671.258 34.4258 669.539 35.4609 668.992 37.2773H665.73C666.121 33.8789 669.402 31.5547 673.738 31.5547C678.719 31.5547 681.57 34.0938 681.57 38.5078V53.0195H678.406V49.8359H678.074ZM668.289 46.8672C668.289 49.0938 669.949 50.4609 672.625 50.4609C675.828 50.4609 678.27 48.332 678.27 45.5V43L672.82 43.2539C669.852 43.3906 668.289 44.6602 668.289 46.8672ZM693.523 35.0508C694.637 32.707 696.844 31.457 699.871 31.457C704.773 31.457 707.977 34.9922 707.977 40.4414V44.3867C707.977 49.8164 704.773 53.3516 699.871 53.3516C696.805 53.3516 694.559 52.043 693.641 49.7188H693.27V60.1484H689.891V31.8086H693.172V35.0508H693.523ZM704.637 40.9102C704.637 37.0039 702.41 34.5039 698.914 34.5039C695.418 34.5039 693.191 37.0039 693.191 40.9102V43.957C693.191 47.8828 695.418 50.3828 698.914 50.3828C702.41 50.3828 704.637 47.8633 704.637 43.957V40.9102Z" fill="white"/>
<path d="M400.035 31.8086H396.715V44.2891C396.715 47.9023 394.371 50.3438 390.875 50.3438C387.574 50.3438 386.012 48.5469 386.012 44.7188V31.8086H382.691V45.5586C382.691 50.6367 385.191 53.3906 389.801 53.3906C393.023 53.3906 395.445 51.9062 396.578 49.2695H396.852V53H400.035V31.8086ZM407.418 53H410.738V40.5195C410.738 36.9062 413.082 34.4648 416.578 34.4648C419.879 34.4648 421.441 36.2617 421.441 40.0898V53H424.762V39.25C424.762 34.1719 422.262 31.418 417.652 31.418C414.43 31.418 412.008 32.9023 410.875 35.5391H410.602V31.8086H407.418V53ZM439.488 53.3516C442.516 53.3516 444.742 52.1016 445.836 49.7578H446.207V53H449.469V23.4883H446.09V35.0898H445.738C444.82 32.7656 442.555 31.457 439.488 31.457C434.586 31.457 431.383 34.9922 431.383 40.4219V44.3672C431.383 49.8164 434.586 53.3516 439.488 53.3516ZM440.465 50.3242C436.969 50.3242 434.723 47.8047 434.723 43.8984V40.8516C434.723 36.9453 436.969 34.4453 440.465 34.4453C443.941 34.4453 446.188 36.9453 446.188 40.8516V43.8984C446.188 47.8242 443.941 50.3242 440.465 50.3242ZM471.266 47.5312C470.68 49.3867 468.707 50.5195 466.031 50.5195C462.418 50.5195 460.113 48.0195 460.113 44.1328V43.2734H474.547V41.2031C474.547 35.0703 471.305 31.418 465.797 31.418C460.406 31.418 456.832 35.0898 456.832 40.6758V43.8594C456.832 49.8945 460.211 53.3906 466.031 53.3906C470.484 53.3906 473.844 51.0273 474.488 47.5312H471.266ZM465.777 34.2695C469.195 34.2695 471.266 36.7109 471.266 40.7539H460.113C460.113 36.6914 462.242 34.2695 465.777 34.2695ZM489.43 43.5078C489.43 38.1172 492.203 34.875 496.891 34.875C498.043 34.875 499.41 35.1094 500.387 35.4609V31.7305C499.684 31.4375 498.531 31.2617 497.32 31.2617C493.238 31.2617 490.602 33.293 489.82 37.2188H489.391V31.8086H481.48V34.4648H486.188V50.3438H481.91V53H495.992V50.3438H489.43V43.5078ZM524.254 53V50.2461H517.262V23.4883H506.754V26.2422H513.941V50.2461H506.695V53H524.254ZM540.094 26.6133C541.656 26.6133 542.848 25.4414 542.848 23.8789C542.848 22.3359 541.656 21.1641 540.094 21.1641C538.531 21.1641 537.34 22.3359 537.34 23.8789C537.34 25.4414 538.531 26.6133 540.094 26.6133ZM548.98 53V50.2461H541.969V31.8086H531.48V34.5625H538.688V50.2461H531.422V53H548.98ZM555.777 53H559.098V40.5195C559.098 36.9062 561.441 34.4648 564.938 34.4648C568.238 34.4648 569.801 36.2617 569.801 40.0898V53H573.121V39.25C573.121 34.1719 570.621 31.418 566.012 31.418C562.789 31.418 560.367 32.9023 559.234 35.5391H558.961V31.8086H555.777V53ZM594.898 47.5312C594.312 49.3867 592.34 50.5195 589.664 50.5195C586.051 50.5195 583.746 48.0195 583.746 44.1328V43.2734H598.18V41.2031C598.18 35.0703 594.938 31.418 589.43 31.418C584.039 31.418 580.465 35.0898 580.465 40.6758V43.8594C580.465 49.8945 583.844 53.3906 589.664 53.3906C594.117 53.3906 597.477 51.0273 598.121 47.5312H594.898ZM589.41 34.2695C592.828 34.2695 594.898 36.7109 594.898 40.7539H583.746C583.746 36.6914 585.875 34.2695 589.41 34.2695Z" fill="white"/>
<path d="M379 57.8828H601.539V59.8359H379V57.8828Z" fill="white"/>
<path d="M237.852 26.6133C239.414 26.6133 240.605 25.4414 240.605 23.8789C240.605 22.3359 239.414 21.1641 237.852 21.1641C236.289 21.1641 235.098 22.3359 235.098 23.8789C235.098 25.4414 236.289 26.6133 237.852 26.6133ZM241.621 53L242.09 50.2461H235.059L238.34 31.8086H227.852L227.402 34.5625H234.59L231.797 50.2461H224.531L224.062 53H241.621ZM258.203 26.125L257.207 31.8672H251.543L251.074 34.6992H256.719L254.57 46.3398C254.453 46.9844 254.395 47.5703 254.395 48.0391C254.395 51.3398 256.68 53.0977 260.918 53.0977C261.973 53.0977 264.805 53 265.312 52.9023L265.781 50.0898C265.254 50.1484 263.164 50.207 261.855 50.207C259.082 50.207 257.793 49.2695 257.793 47.3164C257.793 47.0234 257.812 46.7109 257.891 46.3203L260.039 34.6992H268.594L269.082 31.8672H260.488L261.484 26.125H258.203ZM280.508 53.3516C283.301 53.3516 285.684 52.043 286.738 49.9531H286.934L286.406 53H289.57L291.719 40.7734C292.07 38.8984 292.129 38.3711 292.129 37.4727C292.129 33.8984 289.199 31.5352 284.785 31.5352C280.469 31.5352 277.031 33.8789 276.367 37.2578H279.688C280.234 35.5586 282.188 34.4062 284.473 34.4062C287.109 34.4062 288.809 35.793 288.809 37.9609C288.809 38.3906 288.77 38.7227 288.652 39.3672L288.457 40.4414L283.184 40.4805C277.324 40.5391 274.082 43 274.121 47.3945C274.16 50.9297 276.758 53.3516 280.508 53.3516ZM281.66 50.4414C279.141 50.4414 277.539 49.0742 277.559 46.9258C277.578 44.4648 279.59 43.0586 283.164 43.0391L288.027 43.0195L287.559 45.5195C287.051 48.3516 284.531 50.4414 281.66 50.4414ZM315.801 53L316.27 50.2461H309.277L314.004 23.4883H303.516L303.047 26.2422H310.234L305.957 50.2461H298.711L298.242 53H315.801ZM336.758 26.6133C338.32 26.6133 339.512 25.4414 339.512 23.8789C339.512 22.3359 338.32 21.1641 336.758 21.1641C335.195 21.1641 334.004 22.3359 334.004 23.8789C334.004 25.4414 335.195 26.6133 336.758 26.6133ZM340.527 53L340.996 50.2461H333.965L337.246 31.8086H326.758L326.309 34.5625H333.496L330.703 50.2461H323.438L322.969 53H340.527ZM367.48 38.8398C367.48 38.7227 367.48 38.6055 367.48 38.5078C367.48 34.25 364.199 31.3984 359.258 31.3984C354.102 31.3984 350.469 34.543 349.551 39.8359C349.355 40.9492 349.121 42.3555 349.023 43.0195C348.906 43.918 348.848 44.6602 348.848 45.3047C348.848 50.3047 352.09 53.4102 357.383 53.4102C361.836 53.4102 365.293 50.8125 366.172 46.8477H362.871C362.129 49.0938 360.098 50.4219 357.52 50.4219C354.102 50.4219 352.168 48.4102 352.168 44.8359C352.168 44.1133 352.285 43.0977 352.422 42.2969L352.656 41.0078C353.457 36.5547 355.566 34.3672 359.141 34.3672C362.109 34.3672 364.18 36.1836 364.18 38.7422C364.18 38.8008 364.18 38.8203 364.18 38.8398H367.48Z" fill="white"/>
<path d="M144.98 53.332C148.145 53.332 150.273 51.9062 151.016 49.2891H151.426V53H156.934V23.2539H151.348V35.1289H150.957C150.234 32.5508 148.086 31.1055 144.98 31.1055C140.059 31.1055 137.129 34.5039 137.129 40.3633V44.0742C137.129 49.9336 140.059 53.332 144.98 53.332ZM147.051 48.7031C144.277 48.7031 142.578 46.8867 142.578 43.918V40.3633C142.578 37.3945 144.277 35.5977 147.051 35.5977C149.805 35.5977 151.484 37.3945 151.484 40.3633V43.918C151.484 46.8867 149.805 48.7031 147.051 48.7031ZM172.402 27.0625C174.59 27.0625 176.074 25.7148 176.074 23.6836C176.074 21.6523 174.59 20.3047 172.402 20.3047C170.215 20.3047 168.75 21.6523 168.75 23.6836C168.75 25.7148 170.215 27.0625 172.402 27.0625ZM181.602 53V48.7422H175.098V31.457H163.34V35.7344H169.902V48.7422H162.988V53H181.602ZM207.695 36.2812C207.695 32.8633 206.25 31.0078 203.594 31.0078C201.543 31.0078 200.039 32.3555 199.59 34.6602H199.023C198.574 32.3359 197.207 31.0078 195.254 31.0078C193.125 31.0078 191.66 32.3555 191.172 34.8359H190.605V31.457H185.938V53H190.469V38.2148C190.469 36.6328 191.309 35.6172 192.598 35.6172C193.867 35.6172 194.59 36.5352 194.59 38.0781V53H199.062V38.2148C199.062 36.6328 199.902 35.6172 201.172 35.6172C202.402 35.6172 203.164 36.5352 203.164 38.0781V53H207.695V36.2812Z" fill="#878787"/>
<path d="M40.7461 53.332C45.6875 53.332 48.5977 49.9336 48.5977 44.0742V40.3633C48.5977 34.5039 45.6875 31.1055 40.7461 31.1055C37.6602 31.1055 35.5117 32.5508 34.7891 35.1289H34.3789V23.2539H28.8125V53H34.3203V49.2891H34.7109C35.4727 51.9062 37.6016 53.332 40.7461 53.332ZM38.6953 48.7031C35.9414 48.7031 34.2422 46.8867 34.2422 43.918V40.3633C34.2422 37.3945 35.9414 35.5977 38.6953 35.5977C41.4688 35.5977 43.1484 37.3945 43.1484 40.3633V43.918C43.1484 46.8867 41.4688 48.7031 38.6953 48.7031ZM63.0898 53.4688C69.1641 53.4688 72.9922 49.7773 72.9922 43.8984V40.5781C72.9922 34.6992 69.1641 31.0078 63.0898 31.0078C57.0156 31.0078 53.1875 34.6992 53.1875 40.5781V43.8984C53.1875 49.7773 57.0156 53.4688 63.0898 53.4688ZM63.0898 35.3828C65.9609 35.3828 67.7383 37.4531 67.7383 40.793V43.6836C67.7383 47.0039 65.9609 49.0938 63.0898 49.0938C60.2188 49.0938 58.4414 47.0039 58.4414 43.6836V40.793C58.4414 37.4531 60.2188 35.3828 63.0898 35.3828ZM97.3281 53V48.7422H90.9023V23.2539H79.0664V27.5117H85.5508V48.7422H78.7148V53H97.3281ZM110.16 53.332C113.324 53.332 115.453 51.9062 116.195 49.2891H116.605V53H122.113V23.2539H116.527V35.1289H116.137C115.414 32.5508 113.266 31.1055 110.16 31.1055C105.238 31.1055 102.309 34.5039 102.309 40.3633V44.0742C102.309 49.9336 105.238 53.332 110.16 53.332ZM112.23 48.7031C109.457 48.7031 107.758 46.8867 107.758 43.918V40.3633C107.758 37.3945 109.457 35.5977 112.23 35.5977C114.984 35.5977 116.664 37.3945 116.664 40.3633V43.918C116.664 46.8867 114.984 48.7031 112.23 48.7031Z" fill="white"/>
</svg>
